<svg xmlns="http://www.w3.org/2000/svg" viewBox="0 0 204 85"><title>STPH_Logo_RGB_1_line_color_5</title><path d="M7.32935,59.70068H5.7739a6.30551,6.30551,0,0,1-4.12324-1.22723,6.04251,6.04251,0,0,1-1.59149-1.9847A.33285.33285,0,0,1,.204,55.98347l1.88073-.97459a.34574.34574,0,0,1,.5064.18049A3.64029,3.64029,0,0,0,5.7739,57.21048H7.32935a3.55409,3.55409,0,0,0,3.58057-3.53672c0-2.41805-2.20624-3.46457-4.62963-4.54728-2.78494-1.2632-5.93166-2.67069-5.93166-6.857,0-3.46457,2.568-6.02693,6.40179-6.02693h.57893a6.28046,6.28046,0,0,1,4.55709,1.588,6.30877,6.30877,0,0,1,1.19368,1.588.34386.34386,0,0,1-.18089.50505l-1.917.93841c-.18066.10834-.32551.03619-.43386-.1443a3.76872,3.76872,0,0,0-3.219-1.98492H6.75042a3.33747,3.33747,0,0,0-3.54454,3.53672c0,2.16541,2.35109,3.13978,4.9191,4.29464,2.71263,1.227,5.60615,2.851,5.60615,7.10963C13.73113,57.21048,11.2717,59.70068,7.32935,59.70068Z" transform="translate(0)"/><path d="M31.27405,59.08707a.32437.32437,0,0,1-.36178.25264H29.28474a.32437.32437,0,0,1-.36178-.25264L25.95713,48.9098a10.17718,10.17718,0,0,1-.36177-1.80443H25.487A13.00946,13.00946,0,0,1,25.089,48.9098L22.1594,59.08707a.32436.32436,0,0,1-.36177.25264H20.17009a.32437.32437,0,0,1-.36177-.25264L15.10638,43.713c-.07231-.2886.03627-.46909.36177-.46909H17.783a.324.324,0,0,1,.36155.25264l2.45966,9.70794a16.97427,16.97427,0,0,1,.36155,1.76848h.10857a13.2305,13.2305,0,0,1,.39782-1.76848l2.82121-9.70794a.32437.32437,0,0,1,.36178-.25264h1.91677a.32423.32423,0,0,1,.36177.25264l2.71263,9.38315a11.96487,11.96487,0,0,1,.39782,1.98493h.10858a20.34887,20.34887,0,0,1,.39781-2.02089l2.4234-9.34719a.32437.32437,0,0,1,.36177-.25264h2.27855c.32551,0,.43409.18049.36178.46909Z" transform="translate(0)"/><path d="M40.17313,39.81547A1.78659,1.78659,0,1,1,41.98155,38.011,1.81163,1.81163,0,0,1,40.17313,39.81547Zm1.0851,19.52424H39.1243c-.2532,0-.36178-.10834-.36178-.361V43.60483c0-.25264.10858-.361.36178-.361h2.13393c.25319,0,.36177.10833.36177.361v15.3739C41.62,59.23137,41.51142,59.33971,41.25823,59.33971Z" transform="translate(0)"/><path d="M52.25428,59.70068H51.16919a6.18824,6.18824,0,0,1-4.30413-1.40749,5.72077,5.72077,0,0,1-1.37433-1.76848c-.10858-.21645-.03627-.361.18088-.46909l1.73611-.86625a.31962.31962,0,0,1,.47013.14453,3.8756,3.8756,0,0,0,3.29134,2.02088h1.08509c2.02558,0,3.03837-1.15486,3.03837-2.4902,0-1.76825-2.35108-2.02089-4.88283-2.52617-2.38735-.46909-4.95536-1.51583-4.95536-4.54728,0-3.28408,2.45966-4.908,5.71473-4.908h1.08509a6.4141,6.4141,0,0,1,4.15951,1.263A5.98687,5.98687,0,0,1,57.933,45.9867a.3444.3444,0,0,1-.18089.50528l-1.73611.866a.327.327,0,0,1-.47035-.1443,3.83935,3.83935,0,0,0-3.29134-1.98493H51.16919c-2.09766,0-2.92956,1.01056-2.92956,2.20138,0,1.98492,2.35085,2.16541,4.81051,2.67069,2.74868.57743,5.06349,1.47965,5.06349,4.403C58.11363,57.35478,56.12432,59.70068,52.25428,59.70068Z" transform="translate(0)"/><path d="M67.77139,59.70068H66.6863a6.18824,6.18824,0,0,1-4.30413-1.40749,5.72077,5.72077,0,0,1-1.37433-1.76848c-.10859-.21645-.03627-.361.18088-.46909l1.73611-.86625a.31962.31962,0,0,1,.47013.14453,3.8756,3.8756,0,0,0,3.29134,2.02088h1.08509c2.02558,0,3.03837-1.15486,3.03837-2.4902,0-1.76825-2.35108-2.02089-4.88283-2.52617-2.38735-.46909-4.95536-1.51583-4.95536-4.54728,0-3.28408,2.45966-4.908,5.71473-4.908h1.08509a6.4141,6.4141,0,0,1,4.15951,1.263,5.98687,5.98687,0,0,1,1.51918,1.84063.3444.3444,0,0,1-.18089.50528l-1.73611.866a.327.327,0,0,1-.47035-.1443,3.83935,3.83935,0,0,0-3.29134-1.98493H66.6863c-2.09766,0-2.92956,1.01056-2.92956,2.20138,0,1.98492,2.35085,2.16541,4.81051,2.67069,2.74868.57743,5.06349,1.47965,5.06349,4.403C73.63074,57.35478,71.64143,59.70068,67.77139,59.70068Z" transform="translate(0)"/><path d="M97.53709,39.09352H93.26924c-.2532,0-.36178.10834-.36178.361V58.97873c0,.25264-.10835.361-.36155.361H90.412c-.2532,0-.36178-.10834-.36178-.361V39.4545c0-.25264-.10858-.361-.36178-.361H85.42058c-.2532,0-.36178-.10811-.36178-.36075V36.96429c0-.25264.10858-.36075.36178-.36075H97.53709c.2532,0,.36178.10811.36178.36075v1.76848C97.89887,38.98541,97.79029,39.09352,97.53709,39.09352Z" transform="translate(0)"/><path d="M108.35226,49.05433h-4.30412c-.2532,0-.36155.10811-.36155.36075v9.56365c0,.25264-.10858.361-.36178.361h-2.09788c-.2532,0-.36155-.10834-.36155-.361V36.96429c0-.25264.10835-.36075.36155-.36075h7.12533a5.99334,5.99334,0,0,1,6.402,6.38768C114.75427,46.41983,112.25857,49.05433,108.35226,49.05433Zm3.5808-6.42386a3.57779,3.57779,0,0,0-3.5808-3.537h-4.30412c-.2532,0-.36155.10834-.36155.361v6.74865c0,.25264.10835.361.36155.361h4.30412a3.585,3.585,0,0,0,3.5808-3.57291Z" transform="translate(0)"/><path d="M131.46529,59.33971h-2.13416c-.2532,0-.36177-.10834-.36177-.361V49.41508c0-.25264-.10858-.36075-.36178-.36075h-8.06536c-.25319,0-.36177.10811-.36177.36075v9.56365c0,.25264-.10858.361-.36178.361H117.721c-.25319,0-.36177-.10834-.36177-.361V36.96429c0-.25264.10858-.36075.36177-.36075h2.09766c.2532,0,.36178.10811.36178.36075v9.23886c0,.25264.10858.361.36177.361h8.06536c.2532,0,.36178-.10834.36178-.361V36.96429c0-.25264.10857-.36075.36177-.36075h2.13416c.25319,0,.36132.10811.36132.36075V58.97873C131.82661,59.23137,131.71848,59.33971,131.46529,59.33971Z" transform="translate(0)"/><path d="M3.04109,82.18129H2.47635a2.29056,2.29056,0,0,1-1.49793-.44583,2.19356,2.19356,0,0,1-.57817-.72113.12071.12071,0,0,1,.05249-.1832l.68341-.35423a.12552.12552,0,0,1,.18385.06578,1.32308,1.32308,0,0,0,1.15635.73428h.56474A1.29124,1.29124,0,0,0,4.342,79.99209c0-.8785-.80158-1.25855-1.68178-1.65176-1.0118-.459-2.15472-.97059-2.15472-2.49128a2.16654,2.16654,0,0,1,2.32563-2.18919h.21a2.28128,2.28128,0,0,1,1.65565.57689,2.2977,2.2977,0,0,1,.43363.5769.12486.12486,0,0,1-.06568.18321l-.69634.34107c-.06592.03946-.11842.01315-.15773-.05262a1.36926,1.36926,0,0,0-1.16953-.72064h-.21a1.21226,1.21226,0,0,0-1.2877,1.28438c0,.7869.85407,1.14064,1.78677,1.56016.98543.44583,2.03654,1.03588,2.03654,2.58288A2.13134,2.13134,0,0,1,3.04109,82.18129Z" transform="translate(0)"/><path d="M11.73858,81.95862a.11789.11789,0,0,1-.13136.0916h-.59135a.11789.11789,0,0,1-.13136-.0916L9.80727,78.2614a3.681,3.681,0,0,1-.13136-.65535H9.63636a4.70052,4.70052,0,0,1-.14454.65535l-1.0643,3.69722a.11775.11775,0,0,1-.13136.0916H7.70505a.11775.11775,0,0,1-.13136-.0916L5.86554,76.37381c-.02637-.10524.01319-.17053.13136-.17053h.84089a.1179.1179,0,0,1,.13136.0916l.89338,3.52668a6.17668,6.17668,0,0,1,.1316.64219h.03931a4.76877,4.76877,0,0,1,.14455-.64219l1.02474-3.52668a.11789.11789,0,0,1,.13136-.0916h.69634a.118.118,0,0,1,.13161.0916l.98543,3.40876a4.34732,4.34732,0,0,1,.1443.72113h.03955a7.36133,7.36133,0,0,1,.14454-.73428l.8802-3.39561a.1179.1179,0,0,1,.13136-.0916h.82795c.11817,0,.15748.06529.13136.17053Z" transform="translate(0)"/><path d="M14.97005,74.95788a.64906.64906,0,1,1,.657-.65584A.65828.65828,0,0,1,14.97005,74.95788Zm.39432,7.09234h-.77521c-.09205,0-.13136-.03947-.13136-.13107V76.33434c0-.0916.03931-.13106.13136-.13106h.77521c.0918,0,.13136.03946.13136.13106v5.58481C15.49573,82.01075,15.45617,82.05022,15.36437,82.05022Z" transform="translate(0)"/><path d="M19.3581,82.18129H18.964a2.24744,2.24744,0,0,1-1.56361-.51112,2.07945,2.07945,0,0,1-.49931-.64268c-.03931-.07845-.01318-.13107.06568-.17005l.63067-.31476a.11619.11619,0,0,1,.17091.05214,1.40794,1.40794,0,0,0,1.19566.73427h.39407c.7359,0,1.10385-.41951,1.10385-.90432,0-.64268-.85407-.73428-1.77382-.918-.86726-.17054-1.8002-.55059-1.8002-1.65176,0-1.19278.89363-1.78283,2.0761-1.78283h.39407a2.33016,2.33016,0,0,1,1.51111.45849,2.17453,2.17453,0,0,1,.55181.669.12472.12472,0,0,1-.06568.18321l-.63067.31476a.11889.11889,0,0,1-.17091-.05214,1.39467,1.39467,0,0,0-1.19566-.72112H18.964c-.762,0-1.0643.36689-1.0643.79957,0,.72112.85408.78641,1.74746.9701.99862.20952,1.83951.53743,1.83951,1.59963A1.89061,1.89061,0,0,1,19.3581,82.18129Z" transform="translate(0)"/><path d="M24.99406,82.18129H24.6a2.24744,2.24744,0,0,1-1.56361-.51112,2.07945,2.07945,0,0,1-.49931-.64268c-.03931-.07845-.01294-.13107.06568-.17005l.63067-.31476a.11614.11614,0,0,1,.17091.05214A1.40794,1.40794,0,0,0,24.6,81.32909h.39407c.7359,0,1.10361-.41951,1.10361-.90432,0-.64268-.85383-.73428-1.77358-.918-.86726-.17054-1.8-.55059-1.8-1.65176,0-1.19278.89339-1.78283,2.07586-1.78283h.39407a2.33065,2.33065,0,0,1,1.51111.45849,2.17453,2.17453,0,0,1,.55181.669.12472.12472,0,0,1-.06568.18321l-.63067.31476a.11889.11889,0,0,1-.17091-.05214,1.39467,1.39467,0,0,0-1.19566-.72112H24.6c-.762,0-1.0643.36689-1.0643.79957,0,.72112.85408.78641,1.74746.9701.99862.20952,1.83951.53743,1.83951,1.59963A1.89061,1.89061,0,0,1,24.99406,82.18129Z" transform="translate(0)"/><path d="M34.54514,74.69574H32.99472c-.09181,0-.13136.039-.13136.13107v7.09234c0,.0916-.03931.13107-.13136.13107h-.77521c-.09205,0-.13136-.03947-.13136-.13107V74.82681c0-.09209-.03931-.13107-.13135-.13107H30.14366c-.09205,0-.13136-.03947-.13136-.13107V73.922c0-.0916.03931-.13107.13136-.13107h4.40148c.092,0,.13136.03947.13136.13107v.64268C34.6765,74.65627,34.63719,74.69574,34.54514,74.69574Z" transform="translate(0)"/><path d="M37.59275,77.29129a.68676.68676,0,0,0-.23659-.03946,1.21959,1.21959,0,0,0-1.28746,1.25855v3.40877c0,.0916-.03955.13107-.13136.13107h-.77521c-.09205,0-.13136-.03947-.13136-.13107V76.33434c0-.0916.03931-.13106.13136-.13106H35.806c.09181,0,.13136.03946.13136.13106v.53744c0,.14422.13136.21.22317.0916a1.57364,1.57364,0,0,1,1.19565-.7601h.28909c.09205,0,.11841.05213.11841.14422v.82588C37.76366,77.27814,37.698,77.33076,37.59275,77.29129Z" transform="translate(0)"/><path d="M40.75878,82.18129a2.15669,2.15669,0,0,1-2.32563-2.176v-1.757a2.33077,2.33077,0,0,1,4.65126,0v1.757A2.14954,2.14954,0,0,1,40.75878,82.18129ZM42.04649,78.183a1.28851,1.28851,0,0,0-2.57517.06529v1.8223a1.28852,1.28852,0,0,0,2.57517-.06529Z" transform="translate(0)"/><path d="M47.07815,82.05022a1.80962,1.80962,0,0,1-1.19566-.5769c-.10523-.10476-.2234-.05262-.2234.10476v3.29085c0,.0916-.03956.13107-.13136.13107h-.77521c-.09205,0-.13136-.03947-.13136-.13107V76.33434c0-.0916.03931-.13106.13136-.13106h.64385c.0918,0,.13136.03946.13136.13106v.34059c0,.14422.13136.21.22341.09209a1.49952,1.49952,0,0,1,1.19541-.56374,2.13939,2.13939,0,0,1,2.33881,2.176V79.861A2.1422,2.1422,0,0,1,47.07815,82.05022Zm1.16928-3.67091a1.30845,1.30845,0,0,0-1.30088-1.28486,1.28834,1.28834,0,0,0-1.28746,1.28486V79.861a1.29421,1.29421,0,0,0,2.58834,0Z" transform="translate(0)"/><path d="M51.33436,74.95788a.64906.64906,0,1,1,.657-.65584A.65828.65828,0,0,1,51.33436,74.95788Zm.39432,7.09234h-.77521c-.09205,0-.13136-.03947-.13136-.13107V76.33434c0-.0916.03931-.13106.13136-.13106h.77521c.0918,0,.13136.03946.13136.13106v5.58481C51.86,82.01075,51.82048,82.05022,51.72868,82.05022Z" transform="translate(0)"/><path d="M57.31263,81.657a2.28309,2.28309,0,0,1-1.59.52428,2.15944,2.15944,0,0,1-2.32563-2.1892V78.24824a2.14953,2.14953,0,0,1,2.32563-2.176,2.34651,2.34651,0,0,1,1.59.51112,2.29421,2.29421,0,0,1,.49907.62952.12457.12457,0,0,1-.06568.1832l-.69635.35423c-.06568.039-.11817.01315-.15748-.05262a1.412,1.412,0,0,0-1.16953-.73428,1.22561,1.22561,0,0,0-1.28746,1.28486v1.74385A1.22562,1.22562,0,0,0,55.72266,81.277a1.37235,1.37235,0,0,0,1.16953-.74743.11874.11874,0,0,1,.17066-.05263l.69635.35423c.07886.039.09205.0916.0525.17054A2.635,2.635,0,0,1,57.31263,81.657Z" transform="translate(0)"/><path d="M63.29017,82.05022H62.6595c-.092,0-.13135-.03947-.13135-.13107v-.3669c0-.14422-.13136-.21-.2366-.10524a1.87743,1.87743,0,0,1-1.14316.60321h-.51224A1.59886,1.59886,0,0,1,58.928,80.46375V80.3853A1.58866,1.58866,0,0,1,60.63615,78.812h1.61609c.09181,0,.13136-.03947.13136-.13107v-.44583a1.26938,1.26938,0,0,0-1.30088-1.25856,1.32763,1.32763,0,0,0-1.15611.72113.13039.13039,0,0,1-.18409.05262l-.67-.35423a.114.114,0,0,1-.05249-.1832,2.24727,2.24727,0,0,1,.53861-.62952,2.33183,2.33183,0,0,1,1.52406-.498,2.11337,2.11337,0,0,1,2.33881,2.14973v3.68406C63.42153,82.01075,63.38222,82.05022,63.29017,82.05022Zm-.90657-2.34658c0-.09208-.03955-.13106-.13136-.13106H60.63615a.67772.67772,0,0,0-.68317.68165v.20952a.68578.68578,0,0,0,.68317.68165h.51224A1.4295,1.4295,0,0,0,62.3836,80.11Z" transform="translate(0)"/><path d="M65.73349,82.05022h-.77521c-.09205,0-.13136-.03947-.13136-.13107V73.922c0-.0916.03931-.13107.13136-.13107h.77521c.0918,0,.13136.03947.13136.13107v7.99716C65.86485,82.01075,65.82529,82.05022,65.73349,82.05022Z" transform="translate(0)"/><path d="M73.94461,82.05022h-.63067c-.09205,0-.13136-.03947-.13136-.13107v-.3669c0-.14422-.13135-.21-.23659-.10524a1.87745,1.87745,0,0,1-1.14316.60321h-.51225a1.59886,1.59886,0,0,1-1.70814-1.58647V80.3853A1.58866,1.58866,0,0,1,71.29058,78.812h1.6161c.09181,0,.13136-.03947.13136-.13107v-.44583a1.26938,1.26938,0,0,0-1.30089-1.25856,1.32763,1.32763,0,0,0-1.1561.72113.13018.13018,0,0,1-.18385.05262l-.67022-.35423a.114.114,0,0,1-.0525-.1832,2.24747,2.24747,0,0,1,.53862-.62952,2.33182,2.33182,0,0,1,1.52405-.498A2.11338,2.11338,0,0,1,74.076,78.23509v3.68406C74.076,82.01075,74.03666,82.05022,73.94461,82.05022ZM73.038,79.70364c0-.09208-.03955-.13106-.13136-.13106h-1.6161a.67792.67792,0,0,0-.6834.68165v.20952a.686.686,0,0,0,.6834.68165h.51225A1.42951,1.42951,0,0,0,73.038,80.11Z" transform="translate(0)"/><path d="M80.27716,82.05022h-.77521c-.09205,0-.13136-.03947-.13136-.13107V78.37931a1.30846,1.30846,0,0,0-1.30089-1.28486,1.28835,1.28835,0,0,0-1.28746,1.28486v3.53984c0,.0916-.03955.13107-.13135.13107h-.77521c-.09205,0-.13136-.03947-.13136-.13107V76.33434c0-.0916.03931-.13106.13136-.13106h.64385c.0918,0,.13136.03946.13136.13106v.34059c0,.14422.13135.21.2234.09209a1.51678,1.51678,0,0,1,1.19541-.56374,2.13939,2.13939,0,0,1,2.33882,2.176v3.53984C80.40852,82.01075,80.36921,82.05022,80.27716,82.05022Z" transform="translate(0)"/><path d="M86.13653,82.05022h-.63067c-.09205,0-.13136-.03947-.13136-.13107v-.3669c0-.14422-.13136-.19684-.23659-.09209a1.74183,1.74183,0,0,1-1.19565.59006,2.13848,2.13848,0,0,1-2.32563-2.1892V78.37931a2.1205,2.1205,0,0,1,2.19427-2.176,1.55994,1.55994,0,0,1,1.19565.56374c.09205.11791.22341.06529.22341-.09209V73.922c0-.0916.03931-.13107.13136-.13107h.77521c.09205,0,.13136.03947.13136.13107v7.99716C86.26789,82.01075,86.22858,82.05022,86.13653,82.05022ZM85.23,78.37931a1.28758,1.28758,0,0,0-2.57516,0V79.861a1.28758,1.28758,0,0,0,2.57516,0Z" transform="translate(0)"/><path d="M93.15175,78.314h-1.5636c-.09181,0-.13136.039-.13136.13107v3.47406c0,.0916-.03931.13107-.13136.13107h-.762c-.092,0-.13135-.03947-.13135-.13107V73.922c0-.0916.03931-.13107.13135-.13107h2.58835a2.26245,2.26245,0,1,1,0,4.5231Zm1.30064-2.3339a1.29914,1.29914,0,0,0-1.30064-1.28438h-1.5636c-.09181,0-.13136.039-.13136.13107v2.45133c0,.0916.03955.13107.13136.13107h1.5636a1.30224,1.30224,0,0,0,1.30064-1.298Z" transform="translate(0)"/><path d="M100.67971,82.05022H100.049c-.092,0-.13135-.03947-.13135-.13107v-.3669c0-.14422-.14455-.21-.2366-.09209a1.53115,1.53115,0,0,1-1.19565.59006,2.13842,2.13842,0,0,1-2.32539-2.1892V76.33434c0-.0916.03931-.13106.13136-.13106h.77521c.09181,0,.13136.03946.13136.13106V79.861a1.29421,1.29421,0,0,0,2.58835,0V76.33434c0-.0916.03931-.13106.13136-.13106h.762c.09205,0,.13136.03946.13136.13106v5.58481C100.81107,82.01075,100.77176,82.05022,100.67971,82.05022Z" transform="translate(0)"/><path d="M104.60752,82.05022a1.75037,1.75037,0,0,1-1.19541-.5769c-.10523-.10476-.2234-.06529-.2234.0916v.35423c0,.0916-.03956.13107-.13136.13107h-.64385c-.09205,0-.13136-.03947-.13136-.13107V73.922c0-.0916.03931-.13107.13136-.13107h.77521c.0918,0,.13135.03947.13135.13107v2.74027c0,.14422.13136.19636.22341.0916a1.62857,1.62857,0,0,1,1.19566-.55058,2.13873,2.13873,0,0,1,2.20721,2.176V79.861A2.14945,2.14945,0,0,1,104.60752,82.05022Zm1.30089-3.67091a1.30846,1.30846,0,0,0-1.30089-1.28486,1.28835,1.28835,0,0,0-1.28746,1.28486V79.861a1.29421,1.29421,0,0,0,2.58835,0Z" transform="translate(0)"/><path d="M109.12669,82.05022h-.77521c-.09205,0-.13136-.03947-.13136-.13107V73.922c0-.0916.03931-.13107.13136-.13107h.77521c.09181,0,.13136.03947.13136.13107v7.99716C109.25805,82.01075,109.2185,82.05022,109.12669,82.05022Z" transform="translate(0)"/><path d="M111.24186,74.95788a.64906.64906,0,1,1,.657-.65584A.65828.65828,0,0,1,111.24186,74.95788Zm.39432,7.09234H110.861c-.09205,0-.13136-.03947-.13136-.13107V76.33434c0-.0916.03931-.13106.13136-.13106h.77521c.0918,0,.13135.03946.13135.13106v5.58481C111.76753,82.01075,111.728,82.05022,111.63618,82.05022Z" transform="translate(0)"/><path d="M116.95717,81.657a2.28311,2.28311,0,0,1-1.59.52428,2.15944,2.15944,0,0,1-2.32563-2.1892V78.24824a2.14953,2.14953,0,0,1,2.32563-2.176,2.34653,2.34653,0,0,1,1.59.51112,2.294,2.294,0,0,1,.49906.62952.12456.12456,0,0,1-.06568.1832l-.69634.35423c-.06568.039-.11818.01315-.15749-.05262a1.41192,1.41192,0,0,0-1.16952-.73428,1.22561,1.22561,0,0,0-1.28746,1.28486v1.74385A1.22562,1.22562,0,0,0,115.3672,81.277a1.37232,1.37232,0,0,0,1.16952-.74743.11875.11875,0,0,1,.17067-.05263l.69635.35423c.07886.039.09205.0916.05249.17054A2.63468,2.63468,0,0,1,116.95717,81.657Z" transform="translate(0)"/><path d="M126.28459,82.05022h-.775c-.09229,0-.13136-.03947-.13136-.13107V78.44509c0-.09209-.03955-.13107-.13136-.13107H122.317c-.09229,0-.13135.039-.13135.13107v3.47406c0,.0916-.03956.13107-.13185.13107H121.292c-.09181,0-.13136-.03947-.13136-.13107V73.922c0-.0916.03955-.13107.13136-.13107h.76178c.09229,0,.13185.03947.13185.13107v3.35615c0,.0916.03906.13107.13135.13107h2.92993c.09181,0,.13136-.03947.13136-.13107V73.922c0-.0916.03907-.13107.13136-.13107h.775c.0923,0,.13136.03947.13136.13107v7.99716C126.416,82.01075,126.37689,82.05022,126.28459,82.05022Z" transform="translate(0)"/><path d="M132.34124,79.24466h-3.35037c-.0918,0-.13136.03947-.13136.13107v.61636a1.297,1.297,0,0,0,1.28771,1.28487,1.37221,1.37221,0,0,0,1.169-.74743.1191.1191,0,0,1,.17091-.05263l.69635.35423c.0791.039.0918.0916.05273.17054a2.3691,2.3691,0,0,1-.43363.58956,2.20863,2.20863,0,0,1-1.6554.59006,2.13177,2.13177,0,0,1-2.32588-2.1892V78.24824a2.33077,2.33077,0,0,1,4.65126,0v.86535C132.4726,79.20519,132.43305,79.24466,132.34124,79.24466Zm-.90681-1.06171a1.28838,1.28838,0,0,0-2.57492.06529v.14423c0,.06578.06544.07893.13136.07893h2.3122c.09229,0,.13136-.03947.13136-.13107Z" transform="translate(0)"/><path d="M138.05607,82.05022h-.63091c-.09181,0-.13136-.03947-.13136-.13107v-.3669c0-.14422-.13136-.21-.23635-.10524a1.87745,1.87745,0,0,1-1.14316.60321H135.402a1.599,1.599,0,0,1-1.70815-1.58647V80.3853A1.5888,1.5888,0,0,1,135.402,78.812h1.61586c.09229,0,.13135-.03947.13135-.13107v-.44583a1.269,1.269,0,0,0-1.30039-1.25856,1.3277,1.3277,0,0,0-1.15635.72113.13034.13034,0,0,1-.1841.05262l-.67-.35423a.11426.11426,0,0,1-.05274-.1832,2.24491,2.24491,0,0,1,.5391-.62952,2.33039,2.33039,0,0,1,1.52406-.498,2.11317,2.11317,0,0,1,2.33857,2.14973v3.68406C138.18743,82.01075,138.14787,82.05022,138.05607,82.05022Zm-.90682-2.34658c0-.09208-.03906-.13106-.13135-.13106H135.402a.67786.67786,0,0,0-.68316.68165v.20952a.68594.68594,0,0,0,.68316.68165h.51225a1.42864,1.42864,0,0,0,1.235-1.03539Z" transform="translate(0)"/><path d="M140.49914,82.05022h-.775c-.0918,0-.13136-.03947-.13136-.13107V73.922c0-.0916.03956-.13107.13136-.13107h.775c.09229,0,.13136.03947.13136.13107v7.99716C140.6305,82.01075,140.59143,82.05022,140.49914,82.05022Z" transform="translate(0)"/><path d="M144.61178,82.16813a2.56225,2.56225,0,0,1-1.32726-.498,2.08251,2.08251,0,0,1-.76178-1.67808V77.22552c0-.09161-.03955-.13107-.13136-.13107h-.7359c-.0918,0-.13135-.039-.13135-.13107v-.35374l1.49768-1.57332a.19743.19743,0,0,1,.0918-.03946h.31546c.09229,0,.13135.03946.13135.13155v.9438c0,.0916.03956.13107.13136.13107h.93319c.0918,0,.13135.03946.13135.13106v.629c0,.09209-.03955.13107-.13135.13107h-.93319c-.0918,0-.13136.03946-.13136.13107v2.76657a1.28553,1.28553,0,0,0,1.09091,1.25856.11909.11909,0,0,1,.105.13107v.65534A.11723.11723,0,0,1,144.61178,82.16813Z" transform="translate(0)"/><path d="M150.40522,82.05022h-.775c-.09181,0-.13136-.03947-.13136-.13107V78.37931a1.30846,1.30846,0,0,0-1.30089-1.28486,1.28839,1.28839,0,0,0-1.2877,1.28486v3.53984c0,.0916-.03907.13107-.13136.13107h-.775c-.0918,0-.13135-.03947-.13135-.13107V73.922c0-.0916.03955-.13107.13135-.13107h.775c.09229,0,.13136.03947.13136.13107v2.74027c0,.14422.13136.19636.22365.0916a1.62807,1.62807,0,0,1,1.19541-.55058,2.124,2.124,0,0,1,2.2077,2.176v3.53984C150.53707,82.01075,150.49752,82.05022,150.40522,82.05022Z" transform="translate(0)"/><path d="M155.52918,82.05022h-.76227c-.0918,0-.13136-.03947-.13136-.13107V73.922c0-.0916.03956-.13107.13136-.13107h.76227c.0918,0,.13136.03947.13136.13107v7.99716C155.66054,82.01075,155.621,82.05022,155.52918,82.05022Z" transform="translate(0)"/><path d="M161.79532,82.05022h-.775c-.0918,0-.13136-.03947-.13136-.13107V78.37931a1.30845,1.30845,0,0,0-1.30088-1.28486,1.2884,1.2884,0,0,0-1.28771,1.28486v3.53984c0,.0916-.03906.13107-.13136.13107h-.775c-.09181,0-.13136-.03947-.13136-.13107V76.33434c0-.0916.03955-.13106.13136-.13106h.64361c.09229,0,.13135.03946.13135.13106v.34059c0,.14422.13136.21.22366.09209a1.51678,1.51678,0,0,1,1.19541-.56374,2.1396,2.1396,0,0,1,2.33906,2.176v3.53984C161.92717,82.01075,161.88761,82.05022,161.79532,82.05022Z" transform="translate(0)"/><path d="M165.46115,82.18129h-.39457a2.24648,2.24648,0,0,1-1.56311-.51112,2.073,2.073,0,0,1-.49956-.64268c-.03955-.07845-.01318-.13107.06593-.17005l.63042-.31476a.11614.11614,0,0,1,.17091.05214,1.40756,1.40756,0,0,0,1.19541.73427h.39457c.73541,0,1.1036-.41951,1.1036-.90432,0-.64268-.85407-.73428-1.77407-.918-.86677-.17054-1.79995-.55059-1.79995-1.65176,0-1.19278.89363-1.78283,2.07585-1.78283h.39457a2.33037,2.33037,0,0,1,1.51086.45849,2.17467,2.17467,0,0,1,.55181.669.12452.12452,0,0,1-.06593.18321l-.63042.31476a.11885.11885,0,0,1-.17091-.05214,1.39458,1.39458,0,0,0-1.19541-.72112h-.39457c-.76178,0-1.064.36689-1.064.79957,0,.72112.85407.78641,1.7477.9701.99813.20952,1.839.53743,1.839,1.59963A1.89018,1.89018,0,0,1,165.46115,82.18129Z" transform="translate(0)"/><path d="M171.215,82.16813a2.56222,2.56222,0,0,1-1.32726-.498,2.08251,2.08251,0,0,1-.76178-1.67808V77.22552c0-.09161-.03956-.13107-.13136-.13107h-.7359c-.09181,0-.13136-.039-.13136-.13107v-.35374l1.49768-1.57332a.19751.19751,0,0,1,.09181-.03946h.31545c.09229,0,.13136.03946.13136.13155v.9438c0,.0916.03955.13107.13136.13107h.93318c.09181,0,.13136.03946.13136.13106v.629c0,.09209-.03955.13107-.13136.13107H170.295c-.09181,0-.13136.03946-.13136.13107v2.76657a1.28552,1.28552,0,0,0,1.09042,1.25856.1191.1191,0,0,1,.10548.13107v.65534A.11723.11723,0,0,1,171.215,82.16813Z" transform="translate(0)"/><path d="M172.98862,74.95788a.64906.64906,0,1,1,.65679-.65584A.65792.65792,0,0,1,172.98862,74.95788Zm.39407,7.09234h-.775c-.09181,0-.13136-.03947-.13136-.13107V76.33434c0-.0916.03955-.13106.13136-.13106h.775c.0923,0,.13136.03946.13136.13106v5.58481C173.51405,82.01075,173.475,82.05022,173.38269,82.05022Z" transform="translate(0)"/><path d="M177.49558,82.16813a2.56226,2.56226,0,0,1-1.3275-.498,2.08251,2.08251,0,0,1-.76178-1.67808V77.22552c0-.09161-.03956-.13107-.13136-.13107h-.7359c-.09181,0-.13136-.039-.13136-.13107v-.35374l1.49768-1.57332a.19751.19751,0,0,1,.09181-.03946h.31545c.09229,0,.13136.03946.13136.13155v.9438c0,.0916.03955.13107.13136.13107h.93342c.09181,0,.13136.03946.13136.13106v.629c0,.09209-.03955.13107-.13136.13107h-.93342c-.09181,0-.13136.03946-.13136.13107v2.76657a1.28552,1.28552,0,0,0,1.09115,1.25856.11909.11909,0,0,1,.105.13107v.65534A.11723.11723,0,0,1,177.49558,82.16813Z" transform="translate(0)"/><path d="M183.2104,82.05022H182.58c-.09229,0-.13185-.03947-.13185-.13107v-.3669c0-.14422-.144-.21-.23634-.09209a1.53071,1.53071,0,0,1-1.19541.59006,2.1387,2.1387,0,0,1-2.32588-2.1892V76.33434c0-.0916.03956-.13106.13136-.13106h.77546c.0918,0,.13135.03946.13135.13106V79.861a1.29409,1.29409,0,0,0,2.58811,0V76.33434c0-.0916.03955-.13106.13135-.13106h.76227c.09181,0,.13136.03946.13136.13106v5.58481C183.34176,82.01075,183.30221,82.05022,183.2104,82.05022Z" transform="translate(0)"/><path d="M187.32207,82.16813a2.56225,2.56225,0,0,1-1.32726-.498,2.08251,2.08251,0,0,1-.76178-1.67808V77.22552c0-.09161-.03955-.13107-.13136-.13107h-.7359c-.0918,0-.13136-.039-.13136-.13107v-.35374l1.49769-1.57332a.19743.19743,0,0,1,.0918-.03946h.31546c.09229,0,.13135.03946.13135.13155v.9438c0,.0916.03956.13107.13136.13107h.93318c.09181,0,.13136.03946.13136.13106v.629c0,.09209-.03955.13107-.13136.13107h-.93318c-.0918,0-.13136.03946-.13136.13107v2.76657a1.28553,1.28553,0,0,0,1.09043,1.25856.1191.1191,0,0,1,.10547.13107v.65534A.11723.11723,0,0,1,187.32207,82.16813Z" transform="translate(0)"/><path d="M192.64331,79.24466h-3.35038c-.0918,0-.13135.03947-.13135.13107v.61636a1.297,1.297,0,0,0,1.2877,1.28487,1.37221,1.37221,0,0,0,1.169-.74743.1191.1191,0,0,1,.17091-.05263l.69635.35423c.07911.039.0918.0916.05274.17054a2.36935,2.36935,0,0,1-.43363.58956,2.20867,2.20867,0,0,1-1.65541.59006,2.13177,2.13177,0,0,1-2.32588-2.1892V78.24824a2.33077,2.33077,0,0,1,4.65126,0v.86535C192.77466,79.20519,192.73511,79.24466,192.64331,79.24466Zm-.90682-1.06171a1.28838,1.28838,0,0,0-2.57491.06529v.14423c0,.06578.06543.07893.13135.07893h2.31221c.09229,0,.13135-.03947.13135-.13107Z" transform="translate(0)"/><path d="M179.29349,25.97163c15.30286,7.18938,26.215,15.59627,24.5361,19.27434-1.74059,3.8086-16.25832.94028-32.42356-6.41s-27.86056-16.398-26.1229-20.20664c.85128-1.86316,4.7419-2.08787,10.38284-.97323,0,0,.05222.01726.04716.04546s-.06159.028-.06159.028c-4.03581-.59708-6.52823-.22965-7.01816.84467-1.06,2.3214,9.3295,9.31907,23.20742,15.629,13.87795,6.30853,25.99063,9.54117,27.04921,7.21959.98776-2.16378-8.24921-9.00032-19.65015-15.33656,0,0-.0552-.04323-.03716-.09091S179.29349,25.97163,179.29349,25.97163Z" transform="translate(0)" style="fill:#bf3227"/><path d="M187.49785,1.679c-5.94423-2.711-12.759-2.02963-18.98633,1.25654,0,0-.04655.03932-.02754.078s.08213.02109.08213.02109c5.12366-2.28013,10.53362-2.59878,15.29066-.42854,10.71527,4.88668,14.05533,20.51862,7.46245,34.91732-6.59726,14.39862-20.62788,22.103-31.34313,17.22213-4.75648-2.1687-8.05343-6.45681-9.67915-11.81235,0,0-.02436-.05187-.06659-.03728s-.04222.06789-.04222.06789c1.58846,6.84043,5.53011,12.42016,11.46891,15.12454,11.93671,5.44086,27.39815-2.76533,34.53342-18.345S199.43312,7.12267,187.49785,1.679" transform="translate(0)" style="fill:#468ab2"/><path d="M196.2207,42.164a38.97711,38.97711,0,0,1-8.75513-1.89625l-2.24223,3.91735a69.3203,69.3203,0,0,0,9.22626,2.2982Z" transform="translate(0)" style="fill:#bf3227"/></svg>