<?xml version="1.0" encoding="UTF-8"?>
<svg id="Layer_1" xmlns="http://www.w3.org/2000/svg" version="1.1" viewBox="0 0 590.46 563.91">
  <!-- Generator: Adobe Illustrator 29.6.1, SVG Export Plug-In . SVG Version: 2.1.1 Build 9)  -->
  <defs>
    <style>
      .st0 {
        fill: #e1e9e9;
        stroke: #6a8f8f;
        stroke-miterlimit: 10;
      }

      .st1 {
        fill: #457373;
      }
    </style>
  </defs>
  <circle class="st0" cx="290.21" cy="281.96" r="281.96"/>
  <g>
    <path class="st1" d="M154.27,106.73c5.14,4.52,8.2,6.49,3.84,13.36-.73,1.14-2.61,1.38-2.86,2.31-.52,1.93.35,5.09,0,7.28,9.01-.43,18.4.71,26.48,4.84,7.42-4.15-.11-16.45,7.17-18.59,11.14-3.26,15.03,10.67,7.03,14-4.61,1.92-7.35.02-8.74,7.71,8.63,3.01,14.86,10.85,21.45,16.79,5.98-2.45,4.45-5.43,6.25-9.54,3.87-8.83,18.18-2.48,13.96,6.93-3.38,7.54-11.68.27-16.74,6.31l16.01,26.4c8.1-1.72,5.79-3.91,7.4-9.04,2.64-8.37,20.05-3.21,13.6,7.61-3.9,6.55-13.38-.62-16.57,6.45-1.22,2.7,5.14,12.89,6.7,16.25,2.19,4.72,3.99,9.73,5.9,14.57,8.09.52,5.92-4.98,8.42-7.89,7.58-8.85,20.53,6.25,9.83,11.81-6.27,3.26-9.6-3.75-15.42,1.75l11.07,32.3c8.38-.01,7.13-9.83,12.94-11.56,8.81-2.63,13.84,9.42,6.96,13.99-5.77,3.83-11.22-3.64-16.99,2.21l9.55,28.27c7.02-2.03,4.64-8.7,10.45-10.53,8.22-2.59,13.43,7.88,7.98,12.98-6.77,6.34-10.46-3.63-16.49,2.54l-.04,2.02c15.83,40.92,28.39,86.77,60,118.65,5.1-5.27,1.79-7.88,1.43-12.46-.94-11.77,17.52-11.07,14.79,1.74-1.34,6.27-10.05,2.65-10.74,12.32-.3,4.21,9.94,7,13.48,7.39,6.64.73,13.86-.49,20.03-2.95,1.26-8.11-9.81-7.6-11.35-12.73-3.55-11.83,16.65-14.92,14.74-.85-.21,1.53-1.66,3.22-1.62,4.05.04.68,3.28,5.57,4.28,6.44,1.88.55,17.93-9.85,19.84-11.9,2.39-2.56.47-6.4-1.93-8.07-3.1-2.16-6.61.81-9.32-4.65-5.48-11.07,12.62-15.75,14.56-5.5.38,2.02-2.02,12.6,3.48,12.12,3.45-.3,15.84-15.56,19.6-18.35-3.24-5.84-8.47-.32-12.99-4.94-6-6.14,1.44-16.45,9.3-12.29,6.02,3.19,1.69,12.8,7.21,12.77,2.68-.01,13.12-15.17,16.44-17.48-4.03-6.54-9.74-.01-14.5-6.42-4.58-6.16,1.77-14.33,9.28-11.28s1.24,10.78,8.76,13.14c5.31-6.69,10.73-14.93,20.39-14.94,2.04-6.54-5.45-5.38-6.02-11.41-1.11-11.68,17.86-11.21,14.85,1.77-.61,2.62-3.19,3.84-3.63,5.41-1.38,4.93,3.89,4.93,6.78,6.82,3.69,2.42,6.45,7.26,10.6,3.49,1.35-1.23,1.54-3.53,2.87-5.11,7.84-9.3,20.09,4.98,9.46,11.46-5.31,3.24-6.27-.52-9.67-1.21-6.76-1.38-3.09,5.44-3.14,9.26-.05,3.59-1.52,7.7-3.25,10.81s-10,9.4-2.17,10.35c3.19.39,5.65-2.4,9.36,1.77,6.21,6.98-1.95,16.43-9.72,11.71-5.22-3.17-1.42-8.36-5.77-11.22-1.01-.66-.78-1.57-2.02,0l-16.26,19.49c2.79,5.83,8.04.46,12.25,4.51,6.39,6.15-1.29,17.36-9.37,12.35-6.91-4.28-.02-11.76-7.36-12.27l-25.57,24.47c-.86,4.9,13.59,1.01,11.84,12.75-1.18,7.93-12.92,7.01-14.74.85-1.16-3.93,2.91-7.61-1.67-10.12-5.13,3.83-10.17,7.77-15.56,11.25-2.59,1.68-13.93,6.94-13.77,8.88.34,4.28,5.45,3.25,7.84,5.19,9.17,7.45-4.99,20.62-11.37,10.37-2.99-4.81,2.8-12.59-2.19-13.76-2.78-.65-18.38,7.89-23.35,5.85-2.35,7.43,6.73,8.1,6.88,14.44.27,11.49-19.94,9.1-14.94-3.05,1.58-3.83,4.94-4.58,2.07-10.4h-14.47c-2.31,0-13.93-4.05-14.51-3.58-3.39,3.86-.46,5.93,0,9.13,1.83,12.66-16.72,12.14-14.91.02,1.14-7.66,10.03-2.73,9.53-11.59-7.2-3.57-14.06-7.58-20.18-12.85-7.23,1.97-3.65,9.97-8.36,13.36-7.31,5.27-15.31-3.93-10.85-10.85,3.89-6.04,11.68.61,13.8-6.94l-19.39-23.56c-4.37,3.01-.64,9.95-6.51,12.42-7.49,3.15-14.32-4.85-9.52-11.5,3.97-5.5,10.04-.28,13.34-6.41l-11.26-18.34c-1.3,1.33-5.45,2.14-6.25,3.13-1.26,1.55-1.05,6.35-4.96,7.52-12.68,3.79-14.51-15.45-2.8-14.83,4.13.22,6.18,3.8,11.41-.01l-8.98-22.82c-.3-.22-6.57,1.45-7.25,1.88-1.88,1.2-.76,5.23-6.23,6.03-13.88,2.02-11.2-17.12-.15-14.75,3.23.69,7,7.14,10.57.53l-37.3-103.43c-6.12-2.74-6.44,4-8.44,6.52-7.29,9.21-20.82-5.51-10.4-11.39,6.2-3.5,9.81,3.51,16.35-1.13l-9.04-23.9c-7.03-.85-6.96,8.42-10.83,9.52-15.01,4.26-14.02-16.13-2.67-14.51,3.44.49,8.06,4.78,10.4-1.31l-9.9-21.58c-11.02.12-5.27,11.13-17.31,9.83-7.9-.85-7.23-15.04,1.93-14.95,1.55.02,10.99,4.36,11.33-.42.28-3.87-18.71-24.97-24.8-25.45-.06,2.33-2.04,5.4-1.92,7.53.1,1.85,2.25,3.17,2.72,5.15,2.72,11.62-15.4,14.3-14.88,1.76.34-8.31,10.01-5.11,8.08-14.44-4.91-1.48-26.13,10.69-25.8,14.29.49,5.34,6.16,4.69,8.74,6.21,11.19,6.57-2.33,21.27-9.91,10.94-3.37-4.6,1.68-9.3-2.99-14.48l-10,7.43-6.94,8.98c4.49,6.1,13.8-.23,16.53,8.47,3.28,10.44-12.79,14.8-15.21,2.37-.19-.97.94-2.51.56-3.16-.17-.28-4.74-3.44-5.91-2.7-5.23,3.32-8.64,27.33-2.47,32.42,6.86-1.6,5.32-8.93,10.96-11.03,10.26-3.83,15.07,13.53,3.93,15.06-2.19.3-11.28-4.17-12.37.55-.64,2.8,17.23,21.69,20.38,21.45,6.4-5.53-.88-10.11,3.53-15.55,5.02-6.2,17.11-.61,13.25,8.26-2.6,5.97-12.26,2.08-12.31,11.59l20.55,12.58c5.3-5.24-2.47-9.38,2.46-15.47s15.94-.27,13.59,7.54c-1.97,6.57-11.77,3.58-10.65,10.34.09.52,8,4.17,9.39,4.76,1.62.69,9.26,3.95,10.08,3.76,3.73-.88-.09-6.55-.38-8.49-1.64-10.74,11.9-12.5,14.48-4.48,3.24,10.08-8.39,7.67-8.54,16l23.91,6.97c2.59-4.5-2.37-5.26-2.92-9.54-1.33-10.27,12.79-12.27,14.73-3.69,2.09,9.22-5.91,7.29-6.78,15.23,3.02,1.31,9.35,1.67,11.46,4.03,1.26,1.41,8.22,21.94,7.5,22.91-41.07-6.38-78.97-22.36-109.79-50.35-36.55-33.2-55.44-66.26-12.44-106.21,85.11-79.07,116.13,62.29,136.19,118.18,14.93,41.59,48.96,131.67,89.49,151.94,37.75,18.88,87.5-24.45,112.16-50.2,3.95-4.12,25.06-27.83,25.76-31.17.94-4.49-2.24-5.33-5.53-2.96-24.22,30.24-74.25,86.14-116.6,82.51-29.46-2.53-56.44-52.5-68.19-76.48-21.86-44.57-34.18-90.24-51.29-136.25-20.81-55.98-53.98-117.16-119.41-65.97-33.16,25.94-46.21,61.99-17.59,97.16,35.44,43.55,84.69,69.86,140.55,76.75l5.68,13.99-30.93-5.97c-1.48,4.09,2.43,5.81,2.97,8.49,2.66,13-15.49,13.24-15.02,2,.3-7.08,8.05-5.8,7.01-12.44l-30.41-9.98c-5.37,5.64,2.88,7.47-.25,14.68-5.83,13.42-25.87-7.2-6.37-11.85l-.04-4.69-25.29-11.13c-3.8,4.09-.6,5.87-.41,9.48.62,11.67-18.77,10.31-14.85-2.8,1.75-5.83,11.06-2.4,9.65-9.53l-25.48-15.02c-6.45,2.5.19,9.02-3.87,13.83-5.72,6.78-17.1.34-12.92-8.93,2.49-5.52,10.52-1.52,11.21-8.51-6.42-3.64-12.78-12.88-18.17-16.5-6.52-4.37-6.16,7.09-7.28,9.79-3.39,8.17-16.2,3.54-14.81-4.79,1.66-9.91,12.64-2.29,16.48-10.56l-14.88-22.88c-8.21-.81-6.91,9.54-13.57,10.53-12.05,1.79-12.78-16.58.12-15.01,2.07.25,3.69,1.97,4.78,1.89,1.72-.13,4.36-2.94,6.65-2.85.48-.64-3.98-13.13-3.98-15.42v-15.46c-2.83-.16-5.51-1.53-8.44-1s-3.93,4.39-9.02,4.08c-3.69-.22-5.13-2.91-7.49-5.07v-4.99c3.18-3.27,4.23-5.55,9.5-5.07,4.98.45,4.84,5.13,7.13,5.91,1.12.38,8.54.44,9.18.03l9.2-26.16c-1.89-.97-4.31-3.71-6.05-4.24-3.21-.98-5.6,2.26-9.98-.91-7.33-5.31-1.03-17.35,7.96-12.97,5.96,2.9,2.69,6.54,4.22,9.3.2.37,6.2,4.26,7.13,4.07l16.13-17.84c.29-11.73-17.43-4.09-15.45-17.36,1.2-8.04,13.11-7.77,14.71-.86,1,4.29-.51,8.3,4.19,11.81l2.31.34,20.51-16.48c-1.17-10.3-12.92-4.7-11.92-15.84.79-8.79,15.92-8.77,15.13,2-.34,4.6-3.17,5.16,1.52,10.56,6.57-2.06,12.32-5.86,18.84-8.09,7.13-2.44,14.26.04,10.49-10.17-.45-1.22-2.4-1.27-3.42-2.78-3.72-5.51-.1-9.77,4.44-12.94h3.99Z"/>
    <path class="st1" d="M317.95,323.17c.86-6.09-6.56-5.59-7.77-9.68-3.97-13.32,15.37-15.01,14.83-2.81-.19,4.33-8.26,12.93,3.16,11.22,9.87-1.47,18.38-6.65,24.7-14.2-4.27-6.12-10.34-.18-14.92-4.03-7.11-5.97-.2-17.02,8.93-12.91,4.92,2.22,2.46,10.39,8.5,12.43,6.26-8.95,7.49-20.45,9.48-30.89-7.35-2.19-12.02,8.2-18.54,1.07-5.96-6.52,2.45-16.29,9.95-11.93,3.12,1.82,4.05,8.62,9.14,4.92l1.45-23.99c-7.16-1.87-6.09,4.9-13.39,3.97-12.22-1.56-5.29-20.98,5.8-13.85,3.19,2.05,1.01,6.57,7.59,4.89l1.96-26.87c-6.56-3.66-7.55,4.12-14.2,2.76-8.36-1.71-7.43-15.46,1.74-15.67,7.16-.17,5.58,7.97,12.49,7.88l4.01-25.94c-4.95-1.88-6.61,1.09-9.69,1.79-13.74,3.13-13.47-17.18-.82-14.75,4.55.87,4.92,6.19,6.16,7.06s4.69.76,6.33,1.91c2.38-10.97,8.96-19.9,15.78-28.44-1.99-6.23-9.98-3.48-12.25-8.48-5.28-11.6,13.15-15.41,14.42-5.39.49,3.85-2.05,7.29,1.54,10.41,7.54-4.99,15.25-10.46,24.44-11.99-.09-8.21-10.91-5.67-8.78-15.23,1.96-8.82,16.44-7.1,14.73,3.7-.54,3.39-6.51,9.44,2.53,9.63,6.41.14,14.54-2.28,21.47-1.09,1.39-4.66-3.39-6.69-3.79-10.71-.86-8.75,11.88-11.7,15-3.99,3.33,8.22-4.75,8.15-6.23,14.69,6.8,1.11,13.53,2.47,20.18,4.28,2.44.67,5.32,2.45,7.3,2.71,4.46.58.66-7.68.49-8.53-2.36-12.2,17.99-13.65,14.73.84-1.43,6.35-9.8,2.38-9.72,10.61,8.58,3.76,15.01,10.42,21.41,17,5.11-2.7,2-10.09,7.51-12.41,11.71-4.93,14.69,11.81,6.25,14.26-2.38.69-11.61-2.38-10.11,3.44.64,2.48,5.8,10.1,7.32,13.71.95,2.28,3.8,13.05,4.45,13.53,4.53,3.4,10.72-12.86,18.58-3.64,4.14,4.86,1.49,11.78-4.29,12.88s-7.32-5.91-13.24-3.84c-.59.58,1.78,14.03,1.99,16.47.29,3.34-1.23,14.46,1.63,15.38,3.19,1.04,12.7-9.06,16.83.08,5.04,11.17-11.57,17.29-14.61,5.13l-4.84-.16c1.98,5.44-4.69,22.97-3.86,26.36,1.08,4.43,8.5-.95,10.62-1.25,10.5-1.47,10.99,16.09.84,15.74-7.72-.26-6.7-9.64-11.96-7.85-2.75,5.88-5.46,10.45-9.55,15.26.74,4.59,12.81-.74,11.98,11.07-.61,8.65-12.43,8.73-14.61,1.56-1.04-3.42,1.94-8.38-2.42-10.57-1.7-.85-16.8,2.47-20.46-4.33-5.45,3.79.67,10.45-5.57,14.26-9.37,5.72-17.23-9.54-7.48-13.45,2.64-1.06,7.52-.33,8.42-3.62.73-2.67-3.86-13.78-1.85-18.24-5.98-1.47-8.17,4.41-14.02,2.57-8.13-2.57-5.81-16.11,3.28-15.34,7.33.62,4.97,9.66,12.69,7.75l3.03-24.9c-7.25-1.47-12.4,9.19-18.42-.03-5.02-7.69,4.42-15.27,10.96-9.95,3.02,2.46,2.71,6.37,8.46,5.01l-3.01-25.94c-7.17-.76-5.88,6.12-11.55,6.97-8.93,1.33-13.07-9.65-5.32-14.36,7.92-4.82,9.04,5.93,14.91,1.9-4.78-10.99-15.72-18.72-27.97-18.44-1.87,5.16,3.12,7.36,3.83,10.71,2.13,10.1-13.5,13.13-15.41,3.29-1.54-7.94,7.77-7.41,6.6-14.99h-14.47c-2.16,0-11.97,4-12.4,6.62-.61,3.75,6.07,3.91,7.9,4.79,9.12,4.4,1.71,19.25-7.93,12.97-7-4.56,1.29-11.08-5.02-12.41-3.07,7.87-5.08,16.3-5.79,24.74-.6,7.12,7.77.81,10.26.09,11.06-3.21,13.01,15.11,2,15.11-7.01,0-6.42-8.74-12.55-6.61l-1.81,23.4c6.61,3.72,7.88-4.46,13.91-3.46,9.2,1.52,8.4,15.21-.57,15.65-7.01.34-6.53-7.73-13.46-6.09l-1.56,24.96c5.47,3.79,7.08-3.72,12.78-2.84,9.2,1.43,8.38,15.24-.82,15.77-6.7.38-6.64-9.12-12.5-6.39l-4.94,27.67c2.91,3.36,6.23,1.36,9.5,1.61,10.81.83,8.44,18.38-3.51,14.58-6.78-2.15-2.55-10.01-8.92-11.53,1.46,5.69-13.04,23.52-13.04,25.45,0,4.94,6.37,1.82,8.16,1.98,11.32,1.04,7.63,18.45-3.16,15.03-7.45-2.35-2.83-12.23-9.39-11.59-6.8,4.66-12.17,11.73-20.44,14.1-.82,7.85,9.06,3.13,10.5,11.83,1.37,8.29-11.12,12.36-14.79,3.78-2.4-5.61,3.5-8.07-1.44-11.61l-24.2,5.97c-1.17,6.31,2.79,5.16,5.48,7.82,9.68,9.61-9.98,20.07-13.12,7.05-1.21-5.03,2.93-6.54,3.35-8.6,1.59-7.71-10.36-4.84-14.62-5.49l-6.12-14.82c22.31-1.23,47.44-6.25,63.77-22.55,41.9-41.83,6.5-129.91,41.49-163,20.58-19.46,60.45-16.09,78.35,5.54,17.61,21.29,15.19,53.9,10.71,79.47-.84,4.82-4.9,11.61-.72,15.31,4.7,2.43,7.1-14.22,7.68-17.33,4.3-22.99,4.89-53.19-7.25-73.91-16.19-27.63-55.2-36.21-82.94-21.21-61.97,33.51,7.58,161.18-80.94,186.41-10.44,2.98-22.36,5.2-33.19,3.82l-6.95-18.49h22.96Z"/>
  </g>
</svg>