<?xml version="1.0" encoding="UTF-8"?>
<svg id="Layer_1" xmlns="http://www.w3.org/2000/svg" version="1.1" viewBox="0 0 597.21 567.94">
  <!-- Generator: Adobe Illustrator 29.6.1, SVG Export Plug-In . SVG Version: 2.1.1 Build 9)  -->
  <defs>
    <style>
      .st0 {
        fill: #e1e9e9;
        stroke: #6a8f8f;
        stroke-miterlimit: 10;
      }

      .st1 {
        fill: #9dc2c2;
      }

      .st2 {
        fill: #172626;
      }
    </style>
  </defs>
  <circle class="st0" cx="300.36" cy="285.99" r="281.96"/>
  <path class="st2" d="M259.41,71.93c16.09,6.69,6.61,44.69,14.8,50.49l41,1.66,11.21-52.15h7.44c9.73,17.92-.78,37.05.27,55.58l29.48,6.07c11.91-6.03,14.14-41.15,27.91-35.56,15.5,6.3-10.28,38.37-12.99,48.28l35.36,26.08c9.25-6.5,23.46-28.69,33.63-29.83,36.46-4.1-21.31,38.95-20.14,45.96l12.91,21.45c11.15,1.86,45.83-28.88,49.89-13.27,2.61,17.93-40.82,22.14-40.27,36.35l10.26,38.31c8.27,5.95,41.25-4.34,44.88,7.23,7.7,24.49-43.14,3.91-48.38,9.25l-3.71,33.43c10.62,5.12,49.26,7.06,44.66,24.24-7.69,13.51-43.15-12.02-48.51-7.72l-18.14,40.58c2.77,10.82,34.32,17.93,29.42,30.43-12.29,17.92-33.19-16.56-42.82-15.82l-29.97,25.15c-6.48,10.1,28.89,39.29,17.02,46.57-15.71,10.79-31.43-35.34-35.63-35.61l-31.4,11.45c2.21,8.57,22.9,49.11,9.26,52.04-14.89,3.2-20.27-47.75-26.43-48.64l-26.85,4.6-13.73,47.77c-23.83-1.68.54-46.29-5.5-52.11l-33.07-3.29c-5.52,8.19-10.4,41-24.61,36.77-17.65-5.25,14.92-39.71,9.02-48.07l-35.11-19.04c-11.21-.04-21.86,29.21-39.07,22.46-3.57-17.95,13.74-23.25,21.74-35.88l-19.93-34.9-6.72-3.2c-6.94,3.57-40.14,24.24-43.48,8.8-2.86-13.26,31.21-17.17,35.54-24.09l-2.07-33.58c-4.11-4.33-39.46,12.68-48.38,3.75v-11.17l44.83-13.63-.32-34.62c-10.04-1.02-45.06-5.08-40.75-20.59,7.81-13.37,42.86,10.38,48.3,5.52l14.54-44.23c-11.25-6.51-37.6-16.41-32.89-31.84,4.87-7,3.96-5.11,9.67-2.74,7.8,3.23,31.97,23.96,36.39,22.93l30.47-33.65c-1.72-6.35-36.58-39.97-18.98-44.46,12.91-3.29,27.22,27.05,31.89,37.02l44.26-14.82c-.96-18.34-8.87-37.87.1-55.72h3.72ZM273.49,139.99c-179.35,23.04-156.06,308.88,39.43,288.87,186.43-19.08,160.84-314.59-39.43-288.87Z"/>
  <path class="st1" d="M273.49,139.99c200.27-25.72,225.87,269.79,39.43,288.87-195.5,20.01-218.79-265.83-39.43-288.87ZM306.85,169.6c-7.7-8.21-24.98.07-20.82,15.1,5.67,20.49,37.34,2.51,20.82-15.1ZM273.77,176.7c-5.51-8.72-32.37-2.18-23.83,14.36,9.5,18.4,33.92,1.61,23.83-14.36ZM348.21,180.42c-6.52-10.34-30.83.23-23.89,14.31,9.01,18.28,34.17,2,23.89-14.31ZM207.28,194.8c-10.43-11.88-34.93,52.34-36.26,58.63-25.44,119.94,111.71,207.18,205.56,131.12,7.12-5.77,28.33-22.06,15-29.6-16.11,10.16-27.25,24.86-45.17,32.94-91.45,41.24-182.46-36.42-162.76-132.99,4.67-22.89,22.22-37.87,23.63-60.1ZM220.86,333c-13.17,4.39-4.36,28.76,9.92,25.18,15.48-3.87,14.45-33.32-9.92-25.18ZM262.6,376.66c6.27-9.86-3.05-29.19-18.16-20.04-18.47,11.19,8.62,35.04,18.16,20.04Z"/>
  <path class="st2" d="M207.28,194.8c-1.41,22.22-18.96,37.21-23.63,60.1-19.7,96.58,71.31,174.23,162.76,132.99,17.92-8.08,29.06-22.78,45.17-32.94,13.33,7.54-7.88,23.83-15,29.6-93.85,76.06-231-11.18-205.56-131.12,1.34-6.29,25.83-70.51,36.26-58.63Z"/>
  <path class="st2" d="M220.86,333c24.37-8.13,25.4,21.31,9.92,25.18-14.28,3.57-23.08-20.79-9.92-25.18Z"/>
  <path class="st2" d="M306.85,169.6c16.52,17.6-15.15,35.58-20.82,15.1-4.16-15.03,13.12-23.3,20.82-15.1Z"/>
  <path class="st2" d="M273.77,176.7c10.09,15.97-14.33,32.76-23.83,14.36-8.54-16.54,18.32-23.08,23.83-14.36Z"/>
  <path class="st2" d="M348.21,180.42c10.28,16.31-14.87,32.59-23.89,14.31-6.94-14.08,17.37-24.65,23.89-14.31Z"/>
  <path class="st2" d="M262.6,376.66c-9.54,15-36.63-8.85-18.16-20.04,15.11-9.15,24.43,10.18,18.16,20.04Z"/>
</svg>