<?xml version="1.0" encoding="UTF-8"?>
<svg id="Layer_1" xmlns="http://www.w3.org/2000/svg" version="1.1" viewBox="0 0 588.45 592.34">
  <!-- Generator: Adobe Illustrator 29.6.1, SVG Export Plug-In . SVG Version: 2.1.1 Build 9)  -->
  <defs>
    <style>
      .st0 {
        fill: #e1e9e9;
        stroke: #6a8f8f;
        stroke-miterlimit: 10;
      }

      .st1 {
        fill: #2e4c4c;
      }

      .st2 {
        fill: #7cadad;
      }
    </style>
  </defs>
  <circle class="st0" cx="298.22" cy="293.11" r="281.96"/>
  <path class="st1" d="M94.26,188.34c6.36,4.11,11.81,7.36,15.64,14.38,2.08-2.68,15.37-13.08,15.52-14.12.25-1.71-14.36-15.4-6.86-23.38,13.93-14.83,19.38,12.98,23.14,13.46,3.94-6.06,17.74-7.52,21.15-11.05,1.33-1.37-6.07-18.92,2.14-25.76,15.88-13.23,12.99,18.8,14.93,19.84,5.55.46,18.76-.74,22.28-4.8,1.48-1.71-4.97-14.11,5.68-21.37,14.66-10.01,13.72,14.62,9.18,23.07,4.35.24,25.17,4.52,27.01,1.08,1.87-3.5-.02-11.92,3.56-17.18,2.16-3.18,5.03-4.24,7.11-6.43,16.91,7.33,6.36,13.31,3.99,25.35-1.13,5.77,4.05,2.17,7.66,2.59,6.67.78,13.28,2.21,19.97,2.86,1.91-7.91.05-23.35,10.3-25.63,18.48-4.11,3.48,26.3,6.42,27.27,4.88-2.79,25-.03,27.86-2.54,1.72-1.52.05-15.97,3.78-20.92,13.11-17.36,18.34,8.63,13.03,19.5l28.23,1.18c-3.25-13.02,15.45-37.6,20.04-17.49,1.47,6.42-7.17,16.26-1.48,20.1,1.27.85,17.57,5.32,18.5,4.97,5.62-2.08,6.98-20.54,17.82-21.62,17.28-1.73-1.71,25.78-1,27.29,1.54,3.26,17.49,13.75,20.98,10.81,5-4.21,6.02-17.15,16.41-17,14.74.21,2.73,22.68-5.64,25.9l19.09,18.92c8.04-5.37,9.69-15.88,20.05-17.56.53-.09,1.77.72,2.66.37,0,.73,3.93,4.22,4.68,6.71,2.51,8.35-16.52,20.05-16.74,21.44-.16,1.03,11.58,16.53,12.61,16.68,2.67.37,16.73-18.41,24.64-7.91,9.33,12.39-18.22,20.65-18.5,22.29-.21,1.27,8.79,19.8,8.81,24.28,7.4-4.05,25.17-10.59,24.63,2.75-.59,14.54-18.12,9.08-23.59,15.37-.84.97,1.14,22.05-4.26,24.85,33.98,1.35,21.46,35.43-4.93,15.58l-13.93,22.47c30.47,13.09,12.3,39.88-10.22,14.84-1.88,5.35-14.16,11.5-15.15,14.16-1.05,2.8,11.88,16.1,3.01,25.57-10.14,10.82-17.07-8.35-18.11-16.8-4.43,2.89-16.08,2.33-18.07,7.56-2.41,6.33,6.91,23.26-10.06,25.83-11.03-3.44-2.7-22.57-10.35-24.66-1.22-.33-17.07.38-17.86.81-4.7,2.53,1.69,17.23-11.08,21.89-16.3,5.95-4.19-22.09-4.92-23.42-1.82-3.29-23.05-10.46-25.77-7.49-1.42,1.55-1.28,13.49-6.09,18.32-3.5,3.52-7.86,1.88-10.07,3.25-.75-1.52-3.04-3.24-3.44-4.54-2.07-6.8,6.25-23.1,5.39-24.31-3.63-.06-20.78-6.89-22.2-5.8-1.02.78-.49,19.12-11.14,21.53-2.24.51-5.6-1.64-5.89-1.55l-2.29-3.03c-2.97-5.08,6.65-20.95,3.88-22.84-2.54-1.74-21.81-5.79-23.86-4.73-3.61,1.86-.39,22.73-13.87,22.44-13.55-.3-1.89-22.08-6.88-23.55-5.55,3.77-23.37,2.03-27.22,6.07-.96,1,3.54,21.7-6.86,24.43l-1.51,1.15c-.97-1.33-5.8-1.6-7.65-4.52-2.37-3.73-.97-9.69-1.38-13.7-.2-1.92,1.72-3.27-2.25-3.02-1.43.09-18.8,3.99-19.65,4.52-3.3,2.06-1.53,17.59-11.06,21.82-1.78.79-5.13-.2-6.22.4-.82-1.56-2.88-3.11-3.44-4.54-.15-.4-1.6-7.93-1.55-8.35.11-.89,4.34-5.17,3.17-8.35-2.6-1.98-8.25.91-8.89.77-2.56-.53-10.93-7.26-14.94-5.2-2.81,1.45-6.06,22.77-16.33,20.57-13.01-2.79-3.43-18.84,2.71-24.77.28-3.08-16.93-10.65-19.56-10.23-7.56,1.22-16.63,17.15-25.22,10.8-.38-.28-.8-1.01-1.15-1.51-6.41-9.32,15.55-21.87,13.64-26.18l-13.81-21.3-20.48,10.71c.02-.39-5.5-4.68-6.1-4.91-7.16-13.71,18.35-16.68,19.95-20.87,1.61-4.22-5.54-20.11-3.26-26.31l-20.75,2.61c-5.89-2.08-2.64-10.54-4.14-13.51,1.06-.67,1.96-1.67,3.03-2.29,6.45-3.75,14.14-2.22,17.65-4.12,4.54-2.45,3.56-16.31,5.34-21.93-2.31-4.47-20.77.97-19.92-12.15,1.13-17.39,22.51-3.26,26.61-8.41.62-.78,8.62-16.97,8.6-17.97-.1-3.56-24.26-18.25-6.36-28.61.54-.31.98-.81,1.51-1.15ZM400.27,405.94c42.25,3.28,76.39-15.76,97.4-52.43,38.5-67.21-4.09-130.51-65.26-164.39-49.08-27.18-87.95-13.82-138.79-15.87-56.94-2.29-104.43-22.96-157.99,14.77-59.71,42.06-65.45,144.52-1.25,184.92,53.49,33.66,98.03-8.1,155.29-.41,35.6,4.79,73.39,30.52,110.61,33.41Z"/>
  <path class="st2" d="M400.27,405.94c-37.22-2.89-75-28.62-110.61-33.41-57.26-7.7-101.8,34.06-155.29.41-64.2-40.4-58.45-142.86,1.25-184.92,53.56-37.73,101.05-17.06,157.99-14.77,50.84,2.05,89.71-11.31,138.79,15.87,61.17,33.87,103.75,97.18,65.26,164.39-21.01,36.68-55.15,55.71-97.4,52.43ZM285.7,235.45c-45.88-7.69-78.84-47.89-124.53-4.6-41.67,39.49-25.39,106.11,37.4,99.61,30.73-3.18,52.97-17.96,87.25-13.26,43.46,5.95,72.52,51.07,116.56,39.33,68.88-18.37,62.89-115.43-6.75-127.11-35.94-6.03-74.25,12.01-109.93,6.03Z"/>
  <path class="st1" d="M285.7,235.45c35.68,5.98,73.99-12.06,109.93-6.03,69.64,11.67,75.63,108.74,6.75,127.11-44.04,11.74-73.09-33.38-116.56-39.33-34.29-4.69-56.52,10.08-87.25,13.26-62.79,6.5-79.07-60.12-37.4-99.61,45.68-43.29,78.64-3.09,124.53,4.6ZM396.62,246.81c-34.13-8.98-67.33,7.18-101.75,5.35-34.22-1.82-70.26-28.59-98.2-25.06-24.64,3.11-50.32,35.79-43,61,13.65,47.07,66.46,18.85,97.6,14.45,20.11-2.85,49.36-.49,68.15,7.18,26.56,10.85,48.07,39.03,79.63,31.9,24.51-5.54,37.31-20.63,37.26-45.46-.05-26.21-15.12-42.9-39.68-49.36Z"/>
  <path class="st2" d="M396.62,246.81c24.56,6.46,39.63,23.16,39.68,49.36.05,24.83-12.75,39.92-37.26,45.46-31.56,7.13-53.07-21.05-79.63-31.9-18.79-7.68-48.04-10.03-68.15-7.18-31.14,4.41-83.95,32.62-97.6-14.45-7.31-25.21,18.36-57.89,43-61,27.95-3.53,63.98,23.24,98.2,25.06,34.42,1.83,67.62-14.33,101.75-5.35Z"/>
</svg>