<?xml version="1.0" encoding="UTF-8"?>
<svg id="Layer_1" xmlns="http://www.w3.org/2000/svg" version="1.1" viewBox="0 0 597.89 579.87">
  <!-- Generator: Adobe Illustrator 29.6.1, SVG Export Plug-In . SVG Version: 2.1.1 Build 9)  -->
  <defs>
    <style>
      .st0 {
        fill: #e1e9e9;
        stroke: #6a8f8f;
      }

      .st0, .st1 {
        stroke-miterlimit: 10;
      }

      .st1 {
        fill: #457373;
        stroke: #1b2424;
        stroke-width: 3px;
      }
    </style>
  </defs>
  <circle class="st0" cx="298.94" cy="289.94" r="281.96"/>
  <path class="st1" d="M296.18,59.94c9.44-1.33,17.93,4.86,18.48,14.56.58,10.11-9.93,25.06-11.69,37.34-1.14,7.95-2.94,26.12,7.58,28.21,11.64,2.31,21.59,2.68,33.53,6.36,4.84,1.5,14.17,6.28,18.03,6.83,6.32.9,11.49-5.11,15.3-9.46,9.22-10.54,16.29-24.7,18.25-38.64,1.17-8.33.21-15.4,4.08-23.38,7.42-15.3,30.43-11.35,31.95,5.16,1.48,15.97-15.17,21.35-24.85,30.07s-17.27,21.48-21.09,33.84c-1.49,4.83-3.66,10.19-.78,14.86,1.8,2.92,12.34,10.79,15.83,10.98,7.14.4,17.59-10.95,20.77-16.83,3.09-5.72,4.33-15.61,10.8-17.97,8.56-3.14,15.88,6.05,10.45,13.71-3.26,4.61-12.05,6.18-17.03,9.13-7.28,4.32-19.41,16.45-14.26,25.42,1.12,1.95,11.93,15.17,13.39,16.03,4.69,2.74,8.97.57,13.54-1.3,7.76-3.18,17.21-9.51,22.99-15.59,6.49-6.84,12.52-20.19,21.24-23.88,20.79-8.77,34.73,24.5,7.6,31.15-18.63,4.56-27.55,1.1-45.47,13.38-4.12,2.82-10.32,6.99-10.46,12.43-.05,2.1,5.83,16.81,7.24,18.79,5.5,7.75,18.23,2.18,24.56-2.03,5.46-3.63,11.71-12.16,19.12-6.99,4.4,3.08,4.41,9.97.36,13.39-4.87,4.11-11.63,1-17.02.66-7.89-.5-22.56,1.84-22.6,12.08-.01,2.66,2.19,16.6,2.95,19.34,1.93,7.01,9.02,7.59,15.17,8.37,12.32,1.58,24.72-.16,36.19-4.84,8.76-3.58,17.16-10.03,27.28-6.31,14.02,5.15,14.03,25.17,0,30.32-11.27,4.14-21.42-4.58-31.49-7.99-11.8-4-24.21-4.65-36.43-2.38-13.65,2.53-10.32,9.66-12.51,20.84-1.08,5.52-2.23,11.1-3.77,16.5s-7.93,19.29-7.83,22.92c.21,7.1,15.75,18.64,21.66,22.2,7.07,4.26,15.96,7.8,24.13,9.22,9.3,1.62,20.08.51,28.34,5.66,13.61,8.48,8.61,30.18-7.7,31.3-14.28.98-20.23-14.31-27.84-23.22s-17.17-15.6-27.66-20.07c-5.69-2.42-16.5-6.72-22.28-4.4-3.6,1.45-12.05,12.66-12.04,16.61,0,6.93,11.1,17.16,16.87,20.28,5.22,2.82,16.86,4.9,18.17,11.25,2.35,11.38-10.35,16.28-16.74,6.94-3.9-5.7-4.39-12.26-9.58-18.54s-14.39-14.31-22.52-9.43c-1.88,1.13-14.44,11.27-15.44,12.68-3.46,4.91-1.09,9.85,1.1,14.65,3.86,8.45,10.8,17.33,17.91,23.29,6.17,5.16,14.55,8.59,18.74,15.92,12.4,21.64-23.47,37.55-29.9,8.32-1.24-5.65-.85-11.5-1.78-17.18-1.56-9.53-8.39-24.98-15.19-31.89-7.06-7.18-16.84.51-24.85,3.29s-16.22,4.79-24.41,6.32c-7.39,1.38-19.03-.12-21.4,8.68-2.31,8.6-.58,22.22,1.98,30.76,2.7,9,10.32,18.8,9.43,28.36-2.02,21.59-38.88,18.69-29.55-10.57,3.12-9.78,8.26-15.97,9.9-27.37,1.16-8.09,2.94-25.93-7.58-28.21-2.73-.59-9.38-1.3-12.29-1.44-9.13-.46-11.54,3.54-14.55,11.59-4.95,13.22-.96,16.43-.76,27.97.3,17.25-24.39,12.16-16.52-3.39,2.83-5.59,7.78-8.85,10.43-15.73,2.91-7.56,5.96-21.29-2.42-26.04-1.89-1.07-13.03-5.66-14.9-6.02-6.7-1.28-11.84,4.75-15.85,9.34-9.13,10.44-16.13,24.29-18.15,38.09-1.33,9.06-.14,17.22-5.14,25.6-7.82,13.1-29.1,9.17-30.93-6.23-1.95-16.41,14.94-21.79,24.78-30.65,9.78-8.81,17.43-21.76,21.24-34.34,2.26-7.48,4.11-11.5-2.28-17.33-6.66-6.08-13.87-10.85-20.3-17.63-4.6-4.86-11.33-15.6-15.66-19-6.31-4.94-15.89.7-22.03,4.15-17.25,9.69-18.12,19.26-30.04,30.78-22.64,21.89-45.31-18.6-14.4-26.17,11.93-2.92,21.33-1.39,33.74-6.8,6.56-2.86,22.84-11.78,22.12-20.06-5.72-13.53-9.9-26.48-12.74-40.94-2.93-14.95,1.15-19.3-16.96-21.62-12.32-1.58-24.72.16-36.19,4.84-8.74,3.57-17.16,10.03-27.28,6.31-14.11-5.18-14-25.18,0-30.32,11.27-4.14,21.43,4.58,31.49,7.99,11.81,4,24.21,4.65,36.43,2.38,3.96-.73,6.83-.92,9.19-4.54s4.01-17.31,2.51-21.13c-2.25-5.71-15.69-10.13-21.39-10.66-7.21-.66-15.85,2.84-21.83.9-6.55-2.12-7.74-11.16-1.92-15.01,7.67-5.08,13.84,3.5,19.64,7.11,7.81,4.86,26.14,10.22,31.7.42,1.23-2.18,5.48-12.77,5.88-15.05,1.27-7.26-6.69-13.51-11.82-17.66-9.61-7.78-21.33-13.91-33.64-16.05-9.3-1.62-20.08-.51-28.34-5.66-13.61-8.48-8.61-30.18,7.7-31.3,14.28-.98,20.23,14.31,27.84,23.22,9.28,10.87,23.42,19.82,37.26,23.56,16.2,4.38,14.71-1.23,23.86-11.45,3.38-3.78,6.77-7.64,10.45-11.12,4.92-4.66,16.34-11.88,19.65-16.32,3.52-4.73,1.17-9.5-.88-14.19-3.73-8.52-11-17.77-18.12-23.73-6.17-5.16-14.55-8.59-18.74-15.92-12.4-21.64,23.47-37.55,29.9-8.32,1.25,5.68.82,11.41,1.79,17.17,1.38,8.24,5.42,17.73,9.87,24.78,2.45,3.88,6.43,9.83,11.27,10.34,3.2.34,13.7-4.08,17.05-5.72,11.51-5.62,4.87-25.23-.82-33.43-2.68-3.86-7.99-7.89-8.75-12.84-1.13-7.41,6.54-13.07,13.28-9.35,7.84,4.33,2.99,15.65,2.99,22.47,0,7.89,4.59,25.79,14.07,26.52,3.24.25,16.05-1.39,19.51-2.14,8.98-1.94,8.77-15.11,8.31-22.41-.9-14.4-6.43-20.57-10.48-32.68-3.46-10.36-1.72-23.24,10.98-25.03ZM311.88,173.68c-9.98,1.2-13.86,15-5.11,21.15,9.96,7.01,22.63-4.86,16.66-15.35-1.95-3.42-7.58-6.28-11.55-5.81ZM227.53,183.54c-28.99,2.82-25.95,46.05,2.43,45.64,30.89-.45,28.54-48.66-2.43-45.64ZM374.01,184.8c-18.86,1.45-11.96,31.44,6.18,23.24,11.99-5.42,6.88-24.24-6.18-23.24ZM351.78,231.93c-25.26,2.43-22.97,40.78,2.43,40.41,27.24-.39,25.6-43.11-2.43-40.41ZM283.12,247.58c-3.79.33-7.63,2.85-10,5.74-11.24,13.72,7.38,31.99,20.94,20.29,11.27-9.73,2.88-27.25-10.94-26.03ZM198.08,275.72c-15.76,2.69-12.92,28.99,5.58,25.84,15.76-2.69,12.92-28.99-5.58-25.84ZM406.68,280.29c-14.08,2.42-13.89,25.69,1.15,27.31,22.15,2.38,21.25-31.16-1.15-27.31ZM316.37,307.84c-10.8-10.8-27.33,5.72-16.53,16.53s27.33-5.72,16.53-16.53ZM244.51,314.3c-15.47,2.51-12.23,26.58,3.71,24.64,16.21-1.97,12.95-27.34-3.71-24.64ZM360.92,317.58c-21.4,2.6-18.31,35.08,3.08,33.84,22.77-1.32,19.95-36.64-3.08-33.84ZM204.57,354.25c-11.68.35-11.11,18.2.45,17.86,11.68-.35,11.11-18.2-.45-17.86ZM283.1,373.82c-26.45,3.47-22.18,43.75,4.4,41.67,27.92-2.18,23.66-45.35-4.4-41.67ZM365.47,383.61c-8.13,1.68-8.39,16.17,1.78,16.89,13.91.98,12.79-19.89-1.78-16.89Z"/>
</svg>