<?xml version="1.0" encoding="UTF-8"?>
<svg id="Layer_1" xmlns="http://www.w3.org/2000/svg" version="1.1" viewBox="0 0 563.91 563.91">
  <!-- Generator: Adobe Illustrator 29.6.1, SVG Export Plug-In . SVG Version: 2.1.1 Build 9)  -->
  <defs>
    <style>
      .st0 {
        fill: #e1e9e9;
        stroke: #6a8f8f;
      }

      .st0, .st1, .st2 {
        stroke-miterlimit: 10;
      }

      .st1 {
        fill: #457373;
        stroke: #1b2424;
        stroke-width: 2px;
      }

      .st2 {
        fill: none;
        stroke: #4f4f4f;
        stroke-width: 6px;
      }
    </style>
  </defs>
  <circle class="st0" cx="281.96" cy="281.96" r="281.96"/>
  <g>
    <text/>
    <g>
      <rect class="st1" x="24.58" y="302.95" width="514.75" height="21.36"/>
      <line class="st2" x1="26.72" y1="347.81" x2="150.6" y2="347.81"/>
      <line class="st2" x1="236.03" y1="347.81" x2="359.92" y2="347.81"/>
      <line class="st2" x1="415.45" y1="347.81" x2="539.33" y2="347.81"/>
      <line class="st2" x1="129.24" y1="373.44" x2="253.12" y2="373.44"/>
      <line class="st2" x1="330.01" y1="373.44" x2="453.89" y2="373.44"/>
    </g>
  </g>
  <path class="st1" d="M333.93,63.24c4.42,1.63,6.66,6.31,4.63,10.66s-10.18,8.58-13.82,13.51c-2.36,3.19-7.39,10.68-3.3,14.04,4.52,3.73,8.77,6.21,13.1,10.61,1.76,1.78,4.7,6.04,6.25,7.19,2.54,1.87,6.19.47,8.87-.54,6.48-2.43,12.86-6.93,16.98-12.54,2.46-3.35,3.69-6.65,7.24-9.22,6.81-4.92,15.89,2.18,12.69,9.72s-11.59,5.74-17.84,7.27-12.54,5.3-17.09,9.79c-1.78,1.75-3.97,3.58-3.82,6.28.1,1.69,2.85,7.58,4.32,8.48,3.01,1.85,10.22-.65,12.97-2.46s5.53-5.78,8.9-5.29c4.46.64,5.49,6.34,1.34,8.41-2.5,1.24-6.69-.13-9.54-.01-4.18.17-12.29,2.61-12.15,7.72.03,1.11,1.64,9.39,2.08,10.11,1.4,2.29,3.77,2.35,6.2,2.6,4.12.43,9.71-.11,13.65-1.41,4.42-1.46,10.17-5.86,14.83-5.42,11.09,1.05,9.38,18.78-3.98,15.33-9.17-2.37-12.24-5.96-22.91-4.81-2.45.26-6.13.63-7.46,2.96-.51.9-1.39,8.68-1.24,9.87.58,4.66,7.42,5.21,11.16,4.86,3.22-.3,7.94-2.55,9.95,1.43,1.2,2.37-.41,5.37-2.97,5.91-3.08.65-5.29-2.28-7.56-3.69-3.32-2.06-10.25-4.48-12.66-.03-.63,1.16-2.93,7.74-3.24,9.1-.8,3.5,2.15,5.41,4.64,7.19,4.99,3.57,10.79,5.71,16.88,6.36,4.65.49,9.81-.35,13.34,3.63,4.89,5.52.22,14.23-7.09,13.19-5.87-.83-8.25-7-11.83-10.84-4.2-4.5-9.44-7.68-15.29-9.56-6.53-2.09-6.75,1.79-10.32,6.14-1.76,2.15-3.57,4.31-5.5,6.3-1.84,1.89-7.96,6.53-8.76,8.14-1.57,3.14,2.49,11.79,4.23,14.73,2.08,3.51,5.12,7.13,8.34,9.66,3.67,2.88,8.61,4.92,11,9.09,3.94,6.87-3.31,15.14-10.67,11.81-6.44-2.91-5.45-10.96-6.68-16.61s-3.82-10.8-7.34-15.2c-1.91-2.39-5.61-6.78-8.66-7.13-1.91-.21-8.2,2.69-9.12,4.41-1.62,3.02.82,10.06,2.59,12.77,1.61,2.45,6.19,6.07,5.27,9.15-1.64,5.5-8.31,4.66-8.91-.9-.36-3.39.96-6.36.17-10.31s-2.91-9.59-7.59-9.37c-1.08.05-8.92,1.52-9.68,1.91-2.65,1.33-2.78,4.03-2.95,6.63-.3,4.58.64,10.07,2.34,14.32,1.47,3.69,4.32,7.14,4.43,11.31.33,12.32-18.99,10.85-14.95-3.37.78-2.75,2.32-5.2,3.24-7.89,1.55-4.51,2.19-12.83.85-17.43s-7.45-3.71-11.58-4.38c-4.06-.65-8.17-1.71-12.1-2.96-3.54-1.13-8.25-4.51-11.34-1.23s-5.45,9.53-6.34,13.85c-.93,4.54.09,10.59-2.53,14.54-5.93,8.92-21.29-.96-10.38-11.51,3.65-3.53,7.33-5.01,10.71-9.59,2.4-3.25,7.35-10.59,3.3-14.05-1.05-.9-3.78-2.76-5.01-3.5-3.86-2.34-5.85-1.16-9.04,1.64-5.24,4.59-4.26,6.93-6.87,11.99-3.91,7.57-13.46-.41-6.39-5.34,2.54-1.77,5.46-2.03,8.22-4.4,3.03-2.61,7.57-7.87,5.04-11.89-.57-.91-4.34-5.51-5.07-6.1-2.61-2.13-6.26-.7-9.08.36-6.41,2.41-12.7,6.8-16.8,12.32-2.7,3.63-4.09,7.46-8.22,9.94-6.46,3.87-14.81-2.82-12-9.95,2.99-7.6,11.6-5.98,17.95-7.54s12.67-5.39,17.27-9.97c2.73-2.72,4.48-4.04,3.06-8.07s-3.5-7.96-4.71-12.42c-.86-3.19-1.28-9.44-2.37-11.93-1.59-3.63-7.08-3.41-10.56-3.35-9.77.18-12.39,4.14-20.27,6.37-14.97,4.23-15.36-18.69-.14-14.76,5.87,1.52,9.61,4.38,16.27,4.93,3.52.29,12.69.22,14.32-3.55.68-7.22,1.88-13.84,4.03-20.79,2.22-7.19,5.01-8.13-2.32-13.37-4.99-3.57-10.79-5.71-16.88-6.36-4.64-.49-9.81.35-13.34-3.63-4.92-5.55-.2-14.23,7.09-13.19,5.87.83,8.25,7.01,11.83,10.84,4.2,4.5,9.44,7.68,15.29,9.56,1.9.61,3.19,1.2,5.06.18s5.79-6.59,6.03-8.61c.36-3.01-4.45-8.08-6.81-9.64-2.98-1.97-7.56-2.47-9.71-4.71-2.35-2.46-.76-6.67,2.68-6.98,4.53-.41,5.2,4.76,6.88,7.69,2.26,3.94,8.98,10.56,13.69,7.59,1.05-.66,5.37-4.27,6.08-5.17,2.25-2.86.25-7.44-1.01-10.45-2.36-5.63-6.03-11.04-10.88-14.85-3.67-2.88-8.61-4.92-11-9.09-3.94-6.87,3.31-15.14,10.67-11.81,6.44,2.91,5.45,10.96,6.68,16.61,1.5,6.9,5.55,14.1,10.7,18.96,6.03,5.7,6.69,2.91,13.06.6,2.35-.85,4.73-1.74,7.15-2.39,3.23-.88,9.89-1.34,12.36-2.5,2.64-1.24,2.73-3.86,2.94-6.38.37-4.58-.63-10.31-2.33-14.56-1.47-3.69-4.32-7.14-4.43-11.31-.33-12.31,18.99-10.85,14.95,3.37-.78,2.76-2.31,5.16-3.24,7.89-1.33,3.91-1.79,8.98-1.5,13.09.16,2.26.5,5.78,2.49,7.13,1.31.89,6.91,1.43,8.76,1.5,6.32.25,8.02-9.84,7.46-14.74-.26-2.31-1.63-5.3-.8-7.63,1.24-3.49,5.91-4.16,7.97-.96,2.4,3.72-2.36,7.51-3.96,10.48-1.85,3.43-4.03,12.29-.08,14.83,1.35.87,7.31,3.15,8.99,3.63,4.36,1.26,7.35-4.52,8.86-7.81,2.98-6.48,2.01-10.45,3.08-16.67.92-5.32,4.69-10.51,10.63-8.32ZM314.16,116.39c-4.62-1.81-9.54,3.28-7.17,8.01,2.69,5.38,10.98,3.18,10.84-2.78-.05-1.95-1.83-4.51-3.67-5.23ZM275.16,100.95c-13.27-5.55-22.06,13.97-9.62,20.42,13.54,7.03,23.8-14.49,9.62-20.42ZM338.59,135.76c-8.54-3.78-12.56,10.88-2.75,11.56,6.48.45,8.66-8.94,2.75-11.56ZM317.89,151.06c-11.56-4.85-19.53,12.37-8.4,18.15,11.94,6.2,21.22-12.77,8.4-18.15ZM284.36,141.82c-1.72-.74-3.99-.55-5.7.16-8.1,3.34-4.27,15.65,4.37,13.73,7.18-1.6,7.62-11.18,1.33-13.88ZM240.78,134.17c-7.49-2.52-12.4,9.59-3.62,12.55,7.49,2.52,12.4-9.59,3.62-12.55ZM330.47,184.95c-6.69-2.24-12.05,7.93-5.89,12.15,9.08,6.22,16.53-8.59,5.89-12.15ZM284.74,175.81c-2.17-7.23-13.23-3.9-11.06,3.32s13.23,3.9,11.06-3.32ZM251.96,161.81c-7.32-2.53-11.53,8.7-4.15,11.59s12.03-8.87,4.15-11.59ZM301.84,190.46c-9.92-3.87-16.17,10.98-6.58,15.44,10.21,4.75,17.25-11.28,6.58-15.44ZM225.24,169.85c-5.16-2.58-9.09,5.32-3.98,7.87,5.16,2.58,9.09-5.32,3.98-7.87ZM254.83,196.73c-12.32-4.68-19.88,13.84-7.83,19.16,12.66,5.58,20.9-14.2,7.83-19.16ZM288.38,220.26c-3.93-1.17-7.43,5.07-3.17,7.76,5.82,3.68,10.21-5.66,3.17-7.76Z"/>
</svg>