<?xml version="1.0" encoding="UTF-8"?>
<svg id="Layer_1" xmlns="http://www.w3.org/2000/svg" version="1.1" viewBox="0 0 563.91 568.59">
  <!-- Generator: Adobe Illustrator 29.6.1, SVG Export Plug-In . SVG Version: 2.1.1 Build 9)  -->
  <defs>
    <style>
      .st0 {
        fill: #e1e9e9;
        stroke: #6a8f8f;
        stroke-miterlimit: 10;
      }

      .st1 {
        fill: #31afaf;
      }

      .st2 {
        fill: #57c3db;
      }

      .st3 {
        fill: #00b3a9;
      }

      .st4 {
        fill: #005264;
      }

      .st5 {
        fill: #f6e6d2;
      }

      .st6 {
        fill: #005e67;
      }

      .st7 {
        fill: none;
        stroke: #000;
        stroke-linecap: round;
        stroke-linejoin: round;
        stroke-width: 2px;
      }

      .st8 {
        fill: #f16763;
      }

      .st9 {
        fill: #05223e;
      }

      .st10 {
        fill: #f1e8c2;
      }

      .st11 {
        fill: #f5e5d0;
      }

      .st12 {
        fill: #005368;
      }

      .st13 {
        fill: #004c58;
      }
    </style>
  </defs>
  <circle class="st0" cx="281.96" cy="281.96" r="281.96"/>
  <path class="st9" d="M122.11,313.92c-1.14-.08-1.38-.03-1.42-.11-6.66-11.12-17.61-14.81-29.43-16.96-4.3-.78-8.38-2.05-11.9-4.68-3.59,1.91-2.38,4.37-.88,6.64,3.47,5.28,8.46,9.06,13.67,12.32,9.48,5.93,12.81,14.88,13.8,25.39-1.42-.16-1.34-1.25-1.44-2.01-1.28-9.05-6.17-15.47-13.78-20.36-6.48-4.17-12.88-8.64-15.62-16.49-.85-2.43-2.82-1.1-4.37-.99-2.03.14-3.57.81-3.8,3.19-.47,4.87.96,9.21,3.76,13.06,2.45,3.37,5.04,6.66,7.87,9.71,7.16,7.71,7.67,17.01,6.99,27.65-.49-1.32-.8-1.74-.77-2.14.77-12.15-5.51-21.07-13.16-29.53-4.48-4.95-6.82-10.99-6.74-17.79.02-1.76.14-3.54-2.09-4.03-11.6-2.53-18.12-11.23-24.26-20.21-5.77-8.44-10.57-17.43-13.11-27.45-1.23-4.85-1.65-9.74-.64-14.67,1.33-6.47,5.08-10.98,11.48-12.64,6.43-1.68,10.54,2.31,13.95,6.95,2.94,4,5.09,8.51,6.55,13.24,3.59,11.68,11.7,20.58,18.33,30.39,3.19,4.71,7.1,9.04,6.45,15.39-.2,1.93,1.71,2.39,3.03,3.07,4.57,2.37,9.52,3.61,14.5,4.67,10.52,2.24,17.88,8.35,23.05,18.36Z"/>
  <path class="st9" d="M397.08,361.08c-3.96-2.54-6.98-.4-10.26,1.23-3.41,1.69-7.71-.05-10.1-3.71-1.07-1.63-1.84-3.45-2.86-5.12-1.88-3.07-4.18-3.45-6.42-.81-2.92,3.46-3.71,7.6-2.97,12.05.27,1.64,1.53,1.95,2.89,2.33,4.94,1.4,9.86,2.92,14.12,5.93,8.02,5.66,9.79,16.33,4.08,24.3-2.4,3.35-5.92,4.61-9.98,3.58-8.89-2.26-14.51-12.21-12.82-22.72.34-2.11,1.7-4.67-.46-6.14-2.3-1.57-5.03-.44-7.29.85-3,1.7-5.15,4.16-5.23,7.85-.08,3.64,2.51,5.33,5.26,6.84,1.07.59,2.21,1.05,3.24,1.7,4.65,2.93,6,8.09,3.01,12.66-1.72,2.63-3.93,4.98-6.1,7.29-3.23,3.44-5.08,7.16-3.33,11.95.14.39-.05.9-.1,1.64-2.15-.73-2.15-2.4-2.3-3.86-.41-4.03,1.26-7.4,3.64-10.46,1.8-2.31,3.83-4.45,5.57-6.8,3.13-4.24,2.43-7.93-1.92-10.94-.8-.55-1.67-1.03-2.54-1.46-3.98-1.95-7.07-4.54-6.55-9.52.45-4.34,4.55-8.76,9.1-10.07,1.24-.36,2.66-.12,3.73-1.12-7.16-6.79-14.02-6.17-19.08,1.89-2.14,3.41-3.7,7.16-5.76,10.62-2.01,3.38-4.21,7.07-8.76,6.86-4.75-.22-7.09-3.96-8.85-7.83-1.17-2.57-2.62-5.2-1.84-8.46,1.88.6,1.67,2.18,1.97,3.33.76,2.89,1.99,5.51,3.93,7.78,3.15,3.67,6.33,3.79,9.57.15,1.36-1.53,2.39-3.38,3.44-5.16,2.15-3.69,3.84-7.64,6.44-11.08,4.06-5.37,6.12-6.12,12.56-4.42.68.18,1.37.32,2.6.6-.95-1.95-1.74-3.4-2.38-4.92-2.45-5.84-1.52-9.93,3.13-14.15,1.63-1.47,3.41-2.82,4.82-4.48,4.4-5.19,3.58-11.48-1.87-15.53-.49-.37-1.01-.69-.98-1.68,1.44-1.25,2.58-.02,3.63.79,4.49,3.47,5.34,11.01,1.89,16.34-1.21,1.88-2.88,3.3-4.55,4.74-5.66,4.85-6.42,9.34-2.69,15.82,1.14,1.99,2.43,3.87,4.54,5.83-.46-4.88.39-8.97,2.51-12.76,1.5-2.68,3.72-4.1,6.92-3.81,2.96.26,4.14,2.22,4.87,4.73.2.7.51,1.38.84,2.03,2.43,4.67,5.87,5.69,10.47,3.13,4.43-2.47,7.03-2.04,9.23,2.19Z"/>
  <path class="st7" d="M396.94,360.22c-2.93-1.73-5.65-2.38-8.86-.07-4.03,2.91-8.33,1.77-10.91-2.51-.95-1.58-1.36-3.48-2.27-5.1-1.86-3.33-5.4-3.6-8.04-.75-2.69,2.9-3.57,6.48-3.63,10.27-.04,2.21.31,4.42.5,6.82-.88,1.02-2.28,1.19-3.84,1.29-2.35.14-4.71.88-6.56,2.22-7.13,5.12-6.36,12.62,1.82,16.39,7.2,3.33,8.89,9.46,2.94,15.49-2.13,2.15-4.14,4.48-5.85,6.97-2.5,3.66-2.52,7.67-.78,11.7"/>
  <path class="st7" d="M358.07,364.26c-.49,0-1.01.12-1.46-.02-10.32-3.15-10.81-1.86-16.92,7.32-2.71,4.08-4.19,8.87-7.63,12.52-3.57,3.79-6.38,3.73-9.89.31-3.53-3.45-5.14-7.9-5.54-12.8"/>
  <path class="st7" d="M360.27,322.45c6.52,3.82,7.88,11.64,2.89,17.57-1.32,1.57-3.17,2.69-4.72,4.07-4.06,3.61-5.46,8.25-3.21,13.15,1.85,4.04,3.13,8.77,7.98,10.68"/>
  <path class="st7" d="M364.31,369.39c6.76,3.99,9.24,10.99,12,17.65,1.31,3.16,2.68,6.56,1.94,10.23"/>
  <path class="st9" d="M289.59,450.09c-2.1,2.84-2.19,5.91-4.22,7.96-.68.69-1.29,1.74-2.43,1.24-1.22-.54-1.33-1.73-1.13-2.92.38-2.3,2.24-6-.63-6.32-2.23-.25-.55,4.02-1.12,6.19-.28,1.08-.44,2.19-.8,3.24-.27.8-.78,1.56-1.78,1.56-1,0-1.36-.82-1.77-1.58-1.2-2.25-.67-4.7-.81-7.07-.05-.87-.07-1.85-1.17-1.9-1.12-.05-1.15.94-1.29,1.8-.28,1.8-.55,3.61-.99,5.36-.36,1.42-1.21,2.89-2.85,2.45-1.61-.43-2.46-1.97-2.02-3.71.48-1.89,1.08-3.71.16-6.12-2.52,2.07-1.72,5.27-3.43,7.27-.89,1.04-1.34,2.82-2.98,2.53-1.84-.32-1.45-2.13-1.48-3.5-.04-1.82,0-3.64,0-6.43-2.4,2.62-4.21,4.64-6.06,6.6-.87.92-1.94,2.08-3.23,1.21-1.42-.97-.76-2.43-.28-3.83.74-2.12,4.14-3.83,2.13-6.23-1.67-1.99-4.06.8-6.24.7-.85-.04-1.7.03-2.54,0-.68-.03-1.51.12-1.88-.63-.49-.98.34-1.54.88-2.15,2.04-2.28,5.3-2.58,7.71-4.73-1.22-1.56-3.24-1.55-4.69-2.52-1.06-.71-2.58-1.33-2.28-2.69.35-1.56,2.07-1.78,3.47-1.68,1.67.12,3.31.6,4.97.78,1.08.11,2.4.41,3.09-.77.7-1.19-.66-1.65-1.15-2.41-.54-.82-1.1-1.63-1.69-2.42-.64-.85-1.97-1.55-.96-2.84,1-1.28,2.32-.89,3.4-.1,1.47,1.07,2.81,2.32,4.21,3.48.67.55,1.45,1.1,2.24.37.71-.67-.12-1.22-.39-1.82-.57-1.28-1.19-2.56-1.54-3.9-.22-.86-1.17-1.95-.13-2.72,1.22-.91,2.59-.23,3.47.61,1.78,1.72,3.34,3.67,5.23,5.81,1.35-2.81,1.51-5.41,1.59-8.03.05-1.53.44-2.97,2.33-2.82,1.6.13,1.87,1.47,1.88,2.84,0,.99-.11,2,.06,2.96.18,1.06-.77,2.91,1.28,2.87,1.4-.02,2.62-.88,2.94-2.57.36-1.93.82-3.84,1.34-5.74.24-.9.37-2.14,1.7-2.08,1.36.06,1.91,1.08,1.97,2.32.07,1.27,0,2.54.06,3.81.06,1.19-.41,2.79,1.53,2.89,1.92.1,1.71-1.44,1.8-2.69.1-1.39-.17-2.83.6-4.14.81-1.38.98-3.54,3.35-3.1,2.35.44,1.97,2.43,1.93,4.08-.02.97-.37,1.92-.5,2.89-.18,1.33-.99,3.1.8,3.67,1.91.61,2.08-1.29,2.58-2.58.65-1.69.81-3.63,2.16-5,1.04-1.06,1.91-2.89,3.75-2.05,1.99.91,1.59,2.68.93,4.39-.66,1.7-1.23,3.45-1.79,5.19-.35,1.07-.12,2.11,1.04,2.39,1.27.3,1.08-.9,1.31-1.65.62-2.04,1.53-3.94,2.93-5.56.99-1.14,2.05-1.97,3.62-.89,1.36.93,1.19,2.15.67,3.37-.66,1.56-1.43,3.07-2.21,4.57-.58,1.13-.83,2.21.6,2.81,1.33.56,2.5.41,2.92-1.3.53-2.14,2.3-3.52,3.36-5.33.72-1.23,1.85-1.88,3.21-1.29,1.52.67.58,1.84.39,2.9-.3,1.68-.83,3.24-1.57,4.78-.54,1.12-2.06,2.71.04,3.52,1.9.74,2.29-1.36,2.63-2.54.55-1.91,1.8-3.15,3.14-4.4.87-.81,1.87-1.36,3.06-.8,1.32.63.81,1.92.97,2.99.38,2.49-1.84,3.67-2.72,5.53-.57,1.21-1.29,2.5.2,3.32,1.72.96,2.02-.62,2.55-1.79.82-1.79,1.86-3.49,3.46-4.72.96-.74,2.18-.85,3.21-.3,1.28.69.92,1.91.49,2.99-.73,1.83-1.47,3.66-2.29,5.45-.43.95-.92,1.9.2,2.6,1.42.89,2.13-.23,2.54-1.28.75-1.98,2.36-3.07,3.9-4.31,1.15-.93,2.43-2,3.76-1.08,1.5,1.03.51,2.54-.09,3.79-.85,1.78-1.7,3.57-2.65,5.3-.73,1.33-.74,2.33.72,3.17,1.48.86,2.28.34,2.97-1.06.8-1.63,1.69-3.22,2.67-4.74.43-.66,1.08-1.47,2.05-1.11.92.34,1.03,1.27,1.03,2.14-.02,2.04-.75,3.84-1.86,5.51-.82,1.23-1.03,2.53.51,3.17,1.5.62,1.78-.73,2.17-1.83.93-2.58,1.98-6.68,4.84-5.67,2.88,1.02.35,4.63-.17,7.08-.12.55-.28,1.1-.51,1.61-.61,1.33-.73,2.47.99,2.98,2.13.63,2.21-.86,2.51-2.33.33-1.64.75-3.29,1.45-4.8.44-.96,1.33-2.22,2.5-1.98,1.35.27,1.12,1.76,1.1,2.87-.03,1.83.09,3.65-.5,5.45-.51,1.57-.55,3.25,1.59,3.65,2.49.47,2.33-1.41,2.28-2.96-.07-2.32.41-4.49,1.65-6.44.44-.7,1.11-1.38,2.09-1.11.92.25,1.31,1.03,1.35,1.93.06,1.41-.11,2.85.11,4.23.26,1.55-1.31,4.3,1.71,4.28,2.65-.02,1.31-2.6,1.54-4.05.23-1.52-.05-3.1.68-4.56.59-1.19,1.23-2.34,2.82-1.97,1.33.31,1.65,1.39,1.66,2.61,0,.99.03,1.98.02,2.97-.02,1.57.21,2.98,2.29,2.54,1.38-.29,2.93-.65,2.21-2.73-.65-1.89.61-3.58.53-5.41-.06-1.35.14-2.7,1.72-2.96,1.76-.29,2.38,1.31,3,2.46.43.8.18,1.94.39,2.89.23,1.06-.72,2.95,1.27,2.89,1.56-.04,2.83-1.04,2.93-3.01.1-1.95-.3-3.97.54-5.85.45-1.02.8-2.23,2.18-2.32,1.73-.1,1.48,1.38,1.69,2.39.29,1.37.37,2.79.71,4.14.27,1.06-.99,3.06,1.79,2.77,2.07-.22,2.7-1.15,2.51-3-.2-1.92.56-3.58,1.36-5.25.41-.86.46-2.07,1.86-1.85,1.39.22,1.73,1.29,1.77,2.5.04,1.41,0,2.83.08,4.23.07,1.34-.28,2.92,1.85,3.17,1.96.23,3.27-.33,3.91-2.29.61-1.87,1.29-3.73,2.04-5.55.49-1.19,1.54-1.68,2.77-1.38,1.56.38,1.32,1.67,1.07,2.75-.34,1.51-.87,2.97-1.28,4.46-.45,1.62.01,2.58,1.79,3.13,1.76.54,2.59.2,3.13-1.58.44-1.47,1.13-2.9,1.9-4.23.63-1.08,1.56-2.41,2.98-1.8,1.71.74,1.04,2.39.65,3.69-.32,1.07-.93,2.06-1.29,3.12-.43,1.26-1.35,2.72.78,3.43,1.65.55,3.36,1.13,4.4-.91.92-1.8,2.19-3.29,3.71-4.56,1.06-.88,2.4-1.32,3.39-.18.81.92.4,2.13-.43,3.07-.19.21-.4.4-.57.62-1.22,1.55-3.83,3.11-1.85,5.19,1.94,2.05,3.75-.6,5.55-1.43.37-.17.65-.54,1.01-.76,1.7-1.03,3.9-2.54,5.26-.5,1.51,2.26-1.57,3.07-2.68,4.46-.85,1.05-3.92.37-2.43,3.24,1.29,2.49,3,2.34,5.24,1.2,1.46-.74,3.22-1.03,4.87-1.23,1.13-.13,2.75-.63,3.18,1.14.41,1.66-.62,2.68-2.08,3.21-.91.33-1.88.53-2.85.69-1.2.2-2.39.55-2.16,2.01.21,1.3,1,2.2,2.61,2.24,2.23.06,4.53-.49,6.68.58,1.13.56,2.62,1.1,2.37,2.55-.22,1.3-1.52,1.94-2.94,1.94-1.41,0-2.83.08-4.24.01-1.28-.06-2.12.37-2.64,1.6-.63,1.48.39,1.99,1.33,2.66,1.83,1.31,3.59,2.73,5.44,4,1.22.83,2.66,1.61,1.38,3.26-1.04,1.35-2.54.97-3.82.17-1.66-1.04-3.24-2.22-4.91-3.23-.54-.33-1.51-.64-1.9-.39-.87.56-.39,1.46-.02,2.25.94,2.03,2.31,3.9,2.04,6.34-.12,1.04-.26,2.08-1.33,2.43-1.11.37-1.93-.48-2.44-1.3-1.19-1.91-2.25-3.9-3.3-5.89-.88-1.67-2.33-1.78-3.97-1.7-1.9.09-1.53,1.64-1.97,2.73-.84,2.07-.55,5.97-3.57,5.3-3.35-.74-2.06-4.24-1.53-6.82.26-1.26.52-2.43-1.24-3.05-1.61-.56-2.38-.05-2.91,1.37-.15.39-.34.79-.59,1.12-1.31,1.74-1.5,5.59-4.71,4.09-2.99-1.4,0-4.18-.09-6.36-.05-1.1,1.98-2.33.39-3.27-1.9-1.13-2.55.94-3.49,2.09-1.32,1.62-1.62,5.24-4.45,4.1-2.67-1.07-1.14-4.15-.9-6.39.11-1.06,1.06-2.48-.35-2.92-1.52-.48-1.47,1.24-1.86,2.22-.46,1.17-.81,2.46-1.56,3.43-.78,1.02-1.61,2.64-3.37,1.7-1.35-.72-1.97-1.99-1.64-3.58.2-.96.58-1.9.62-2.87.06-1.3-.7-2.1-2.03-2.24-1.48-.16-2.03.65-2.03,2.02,0,.56.09,1.19-.11,1.68-.69,1.72-.41,4.54-2.99,4.47-2.55-.07-2-2.62-2.09-4.36-.09-1.68-.53-3.45-2.34-3.45-2.22,0-1.75,2.11-1.82,3.59-.06,1.27.11,2.56-.09,3.8-.21,1.34-.38,3.06-2.28,3-1.64-.05-2.42-1.38-2.65-2.86-.19-1.25-.11-2.53-.19-3.8-.07-1.04-.34-2.1-1.6-2.1-1.15,0-2.24.45-2.45,1.84-.09.55-.06,1.13-.09,1.69-.12,2.12-.07,4.89-2.56,5.15-2.71.28-2.35-2.52-2.53-4.41-.1-1.05-.24-2-1.59-2.03-1.64-.04-1.65,1.14-1.75,2.31-.21,2.4.92,6.28-2.28,6.37-3.47.09-2.68-3.84-2.84-6.39-.08-1.24-.28-2.24-1.85-2.25-1.25,0-2.22.22-2.41,1.72-.23,1.81-.54,3.61-.84,5.41-.2,1.22-.89,2.24-2.07,2.38-1.09.13-1.52-1.04-2.06-1.87-1.07-1.67-.82-3.52-.92-5.34-.05-.89-.39-1.75-1.32-1.94-1.1-.23-1.38.81-1.69,1.54-.72,1.67-1.22,3.44-2.03,5.06-.53,1.05-1.62,1.59-2.87,1.35-1.55-.31-1.34-1.59-1.36-2.69-.02-.99-.17-2.04.11-2.95.52-1.64.35-2.54-1.52-3.09-1.93-.57-2.56.47-3.18,1.83-.18.38-.3.81-.56,1.14-1.16,1.51-1.08,5-3.98,3.8-2.26-.94-.96-3.74-.82-5.72.1-1.42,1.58-3.19-.72-3.88-2.09-.63-2.3,1.56-3.12,2.76-1.35,1.99-2.31,5.57-5.29,4.14-3.07-1.48-.3-4.54.03-6.82.18-1.27,1.71-2.42-.08-3.57-2.04-1.31-2.52.73-3.59,1.69-1.85,1.66-3.43,5.62-6.2,3.54-2.28-1.72.02-4.85,1.33-7.17.64-1.14,1.85-2.33.19-3.69-1.67-1.37-2.77-.51-3.9.76-.75.85-1.54,1.67-2.41,2.37-1.13.91-2.28,2.83-3.84,1.44-1.33-1.18-.77-3.18-.15-4.77.24-.62.96-1.05,1.29-1.66.67-1.25,2.53-2.64.63-3.95-1.59-1.1-2.84.51-3.84,1.65-1.48,1.69-3.38,4.4-5.25,3.25-2.53-1.55.36-3.87.95-5.85.2-.67.59-1.28.93-1.9.6-1.09.81-2.21-.33-3.02-1.35-.95-2.05.3-2.75,1.1-1.21,1.36-2.29,2.84-3.5,4.2-.83.93-1.96,1.21-3.08.61-1.09-.58-.69-1.73-.75-2.67-.12-1.96,1.1-3.46,1.85-5.11.64-1.43,1.04-2.82-.74-3.55-1.74-.71-2.09.93-2.63,2-.63,1.25-1.04,2.62-1.76,3.81-.69,1.12-1.77,1.96-3.2,1.2-1.2-.64-1.06-1.72-.88-2.94.32-2.12,1.87-4.1.79-7.08Z"/>
  <path class="st6" d="M278.93,432.42c12.58.54,24.52,3.5,35.93,8.97,12.4,5.94,23.61,14.08,36.46,19.18,10.18,4.04,20.3,5.32,30.99,1.96,4.35-1.36,9.1-1.46,13.68-2.02,12.64-1.54,24.94-.07,36.6,5.04,4.16,1.82,8.28,4.15,10.67,8.49,1.72,3.12-.46,7.55-4.07,7.53-5.44-.02-10.41-2.14-15.29-4.28-8.32-3.64-16.74-6.58-26.04-5.83-5.65.45-11.04,2.16-16.39,3.7-7.66,2.21-15.38,1.73-23.01,1.17-7.35-.54-14.46-2.67-21.45-5.35-6.41-2.46-11.83-6.36-17.63-9.73-8.2-4.77-15.01-11.7-24.24-14.94-9.63-3.38-19.32-4.62-29.31-2.4-2.55.57-5.01.61-7.51.02-2.97-.7-3.72-2.86-1.79-5.24,1.81-2.23,3.98-3.92,6.93-4.47,5.11-.94,10.2-1.96,15.46-1.81Z"/>
  <path class="st8" d="M349.61,220.25c-.15,6.91-6.72,12.86-14.06,12.74-5.75-.1-9.87-3.52-9.74-8.08.16-5.58,9.03-13.22,15.28-13.17,5.07.04,8.62,3.6,8.51,8.52Z"/>
  <path class="st8" d="M207.51,274.01c3.55-16.34,10.86-22.85,27.27-21.97,20.22,1.09,39.3-3.15,58.14-9.68,5.35-1.86,10.9-2.66,16.61-2.32,10.69.64,15.39,6.36,12.66,16.54-4.32,16.08-13.41,28.59-27.68,37.78-12.12,7.8-24.78,13.27-39.02,15.56-10.01,1.61-19.37-.15-28.64-3.56-17.34-5.97-22.18-15.41-19.33-32.36Z"/>
  <path class="st10" d="M299.27,248.8c2.96,1.26,6.93.78,8.2,4.29,2.05,5.68,2.11,11.38-1.87,16.54-13.47,17.45-30.78,28.13-52.88,31.09-9.94,1.33-18.61-.36-26.69-6.44-6.19-4.65-7.85-11.16-6.21-17.59,1.42-5.54,5.57-9.81,12.3-11.45,20.99-5.11,42.46-8.25,63-15.18,1.38-.46,2.78-.85,4.14-1.26Z"/>
  <path class="st8" d="M237.81,276.8c6.25.24,11.33,4.09,11.01,8.35-.32,4.16-7.56,9.38-12.75,9.18-6.32-.24-11-4.38-10.88-9.63.12-5.21,4.88-8.19,12.63-7.9Z"/>
  <path class="st8" d="M303.54,259.81c-1.35,3.38-1.25,8.26-7.03,8.27-4.17.01-6.27-2.49-6.28-6.36,0-4.68,2.41-8.04,7.32-8.19,3.55-.11,5.76,2.16,5.98,6.28Z"/>
  <path class="st8" d="M262.22,286.75c-.5,3.49-1.88,6.05-5.4,5.97-2.61-.06-4.81-1.84-4.59-4.61.25-3.06,2.08-5.42,5.55-5.6,3.1-.16,4.1,1.88,4.44,4.24Z"/>
  <path class="st8" d="M288.32,268.56c2.35.09,3.42,1.47,3.56,3.66.17,2.49-.82,4.31-3.46,4.56-2.62.25-3.98-1.09-4.02-3.82-.04-2.74,1.68-3.75,3.91-4.4Z"/>
  <path class="st8" d="M250.15,270.48c-.24,2.72-1.48,4.31-3.62,4.51-2.25.22-3.68-1.12-3.67-3.54.01-2.45,1.43-3.42,3.76-3.5,2.14-.07,2.95,1.27,3.53,2.52Z"/>
  <path class="st9" d="M282.63,368.26c.12.3.25.61.37.91.34,2.92,2.69,5.5,1.44,8.68,0,.72.02,1.45.02,2.17l.02.83c0,.47-.02.94-.02,1.41-.51,1.64-1.01,3.29-1.52,4.93-1.18.48-.72,1.54-.85,2.39-.31.47-.62.93-.93,1.4-.47.13-1.13-.03-1.12.78-.22.45-.44.91-.67,1.36-.36.31-.72.61-1.08.92-.58-.05-1.18-.11-1.4.64-.53.12-1.2-.05-1.44.68-1.31.31-2.96-.18-3.64,1.58-.92-.48-1.84-1.01-2.94-.6-.24,0-.48,0-.72,0-.45-.04-.91-.08-1.36-.11-.21-.88-.94-.72-1.56-.76-.33-.59-.83-.76-1.47-.59-.47-.29-.95-.57-1.42-.86-.47-.3-.94-.6-1.42-.9-.24-.21-.48-.43-.72-.64-.53-.48-1.05-.96-1.58-1.45-.45-.48-.91-.96-1.36-1.44-.52-.5-1.04-.99-1.56-1.49-.06-.54.11-1.18-.63-1.43-.1-.25-.2-.51-.31-.76-.36-.74-.72-1.47-1.09-2.21-.35-.46-.69-.92-1.04-1.39,0-.5,0-1.01,0-1.51-.04-.49-.08-.97-.12-1.46.05-.95.11-1.9.16-2.85-.03-.54-.06-1.08-.08-1.62.24-.43.49-.87.73-1.3.09-.29.19-.58.28-.87.95-.46.54-1.37.69-2.09.96-.45,1.44-1.22,1.53-2.26.42-.47.83-.94,1.25-1.4l.2-.16c.7-.68,1.41-1.35,2.11-2.03,0,0,.07-.06.07-.06.7-.49,1.4-.97,2.1-1.46.29-.07.58-.13.87-.2.55.13,1.09.24,1.28-.51.5-.07,1.01-.13,1.51-.2.71,0,1.42,0,2.12.01.77,0,1.53-.02,2.3-.02.5,0,.99,0,1.49,0,.83.03,1.81.55,2.29-.65.45.22.9.44,1.36.66l1.44.76c.52.21,1.04.43,1.57.64.14.19.33.3.57.31.72.7,1.44,1.39,2.16,2.09.27.25.54.51.81.76.43.46.86.91,1.3,1.37ZM279.03,389.59c1.35-2.29,3.24-4.36,2.95-7.31,2.09-5.26.42-13.06-3.68-15.88-5.01-3.44-10.8-3.42-15.92-1.17-5.17,2.26-7.76,7.39-8.09,13.01-.38,6.43,7.52,15.87,15.67,16.44,3.57.25,7.81-2.25,9.07-5.1Z"/>
  <path class="st3" d="M284.44,377.85c1.25-3.18-1.1-5.76-1.44-8.68,1.9-.54,3.8-1.08,5.7-1.61.6.02,1.16-.07,1.49-.66.97-.02,1.95-.03,2.92-.05.11,1.17-.97,1.47-1.56,2.13-1.15.09-2.11.62-3,1.31-1.38.5-3.43-.51-4.21,1.68,1.64,1.69,2.99.11,4.4-.09.46-.04.92-.08,1.39-.12.82.17,1.63.29,2.27-.46.9.09,2.06-.27,2.11,1.42-1.83,1.86-4.97.64-6.92,2.66,2.07,2.47,5.71-.49,7.88,2.31-1.73,1.48-3.61.63-5.29.86-1.79-1.22-3.84-.4-5.74-.71Z"/>
  <path class="st3" d="M271.82,396.94c.68-1.76,2.33-1.27,3.64-1.58.99,2.89,2.6,5.62,2.18,8.85-.59.02-1.15-.02-1.46-.65-.08-2.53-1.21-4.71-2.27-6.99.09,3.08.35,6.11.09,9.14-1.85-.15-1.32-1.63-1.49-2.7-.19-1.17-.08-2.66-2.02-1.61-.49-.75-.99-1.49-1.48-2.24,0-.25-.01-.5-.02-.75,1.12-.15,2.65.47,2.84-1.48Z"/>
  <path class="st3" d="M282.94,387.19c.51-1.64,1.01-3.29,1.52-4.93.72.4,1.43.8,2.15,1.2-.03.51-.06,1.02-.09,1.54-.63.09-1.29-.78-2.08.25,1.91,1.25,3.48,2.93,5.71,3.66.49.28.98.56,1.47.83.68,1.07,1.56,1.89,2.83,2.21-.04,1.49-1.01,1.38-2.03,1.19-2.96-2.29-6.04-4.39-9.47-5.94Z"/>
  <path class="st3" d="M258.62,391.01c.53.48,1.05.96,1.58,1.45-1.79,2.45-3.57,4.9-5.36,7.35-1.42.67-2.58.73-1.63-1.29.69-1.47,2-2.67,1.73-4.5,1.88-.2,2.05-2.49,3.68-3Z"/>
  <path class="st3" d="M260.83,405.73c-1.42-1.69.1-3.12.52-4.57.63-2.15,1.59-4.2,2.41-6.29.64-.17,1.14,0,1.47.59,0,.99,0,1.97,0,2.96v-.02c-2.61,1.7-2.11,5.02-3.76,7.23-.21.03-.43.07-.64.11Z"/>
  <path class="st3" d="M261,352.89c.59,3.3,2.88,6.13,2.71,9.64-.19.76-.73.65-1.28.51-.91-3.61-2.81-6.94-2.94-10.76.61-.06,1.12.12,1.51.61Z"/>
  <path class="st3" d="M265.22,362.33c.41-3.2-.89-6.26-.82-9.43.27-.28.54-.55.82-.83,1.7.97,1.57,2.68,1.45,4.19-.16,2.1.59,4.05.68,6.09-.71,0-1.42,0-2.13-.01Z"/>
  <path class="st3" d="M256.41,355.28c1.72,2.65,3.43,5.3,5.14,7.96-.7.49-1.4.97-2.1,1.46-.62-2.57-2.09-4.68-3.72-6.7-.41-1.06-1.64-2.33.67-2.72Z"/>
  <path class="st3" d="M278.29,394.04c1.53,3.21,2.67,6.53,2.91,10.1-.84.09-1.35-.5-1.93-.93-.08-3.04-1.74-5.64-2.37-8.54.22-.75.81-.69,1.4-.64Z"/>
  <path class="st3" d="M258.62,391.01c-1.63.51-1.8,2.8-3.68,3-1.39.5-2.78,3.28-4.19.02,2.17-1.49,4.34-2.97,6.5-4.46.45.48.91.96,1.36,1.44Z"/>
  <path class="st3" d="M268.15,396.33c-.71,2.7-1.44,5.4-2.13,8.1-.3,1.17-.78,2.07-2.19,1.95-.04-.21-.08-.41-.11-.62.93-2.37,1.72-4.76,1.52-7.36,0,0-.01.02-.01.02.52-.73,1.04-1.46,1.56-2.2.45.04.91.08,1.36.11Z"/>
  <path class="st3" d="M252.64,380.79c0,.5,0,1.01,0,1.51-.95.26-1.89.51-2.84.77-.48.02-.97.04-1.45.06-.84-.19-1.65-.21-2.3.49-.94-.11-2.34.63-2.6-.87-.23-1.36,1.13-1.13,1.96-1.34,2.41-.21,4.82-.41,7.24-.62Z"/>
  <path class="st3" d="M252.69,376.48c-.05.95-.11,1.9-.16,2.85-2.27-1.3-4.73-.56-7.1-.68-.81-.2-1.77-.31-1.95-1.3-.14-.8.64-.86,1.2-1.02,2.68-.46,5.31,1.62,8.01.15Z"/>
  <path class="st3" d="M284.33,401.32c-1.65-2.73-3.31-5.46-4.96-8.19.22-.46.45-.91.67-1.36,1.87,2.46,3.74,4.92,5.61,7.39.12,1.07.42,2.24-1.32,2.17Z"/>
  <path class="st3" d="M269.65,362.32c-1.14-2.74-.7-5.61-.72-8.44,0-.96.32-1.62,1.4-1.63.05,3.38,1.39,6.65.8,10.07-.5,0-.99,0-1.49,0Z"/>
  <path class="st3" d="M276.24,352.93c-.49,3.13-.97,6.26-1.46,9.4-.45-.22-.91-.44-1.36-.66-.31-3.36,0-6.59,2.01-9.45.27.24.53.47.8.71h0Z"/>
  <path class="st3" d="M262.34,394.01c-1.87,2.91-1.82,6.94-5.21,8.97,0,0-.13-.15-.12-.15-.03-.25-.07-.5-.1-.74.09-.49.19-.99.28-1.48,1.25-2.5,2.5-5,3.75-7.5.47.3.94.6,1.42.9Z"/>
  <path class="st3" d="M288.66,396.06c-2.5-1.69-5-3.39-7.5-5.08.31-.46.62-.93.93-1.4,2.38,1.48,4.75,2.97,7.13,4.45.27.8.29,1.53-.56,2.03Z"/>
  <path class="st3" d="M283.54,357.87c2.25.55.89,1.59.35,2.54-1.1,1.92-3.11,3.31-3.38,5.72-.72-.7-1.44-1.39-2.17-2.09,1.66-1.45,2.97-3.17,3.92-5.16.42-.34.85-.67,1.27-1.01Z"/>
  <path class="st3" d="M295.34,383.35c-3.61-.88-7.43-.83-10.86-2.5,0-.28-.01-.55-.02-.83,1.38.04,2.76.07,4.15.11,0,0,.06,0,.06,0,.37.56.93.61,1.53.55,1.43.49,2.86.88,4.41.89,1.23,0,1.73.67.74,1.78Z"/>
  <path class="st3" d="M255.08,386.66c.73.25.56.89.62,1.43-1.39,2.76-4.78,2.96-6.6,5.18-3.64-1.88.52-1.98.68-2.98,1.73-1.26,3.94-1.8,5.29-3.62Z"/>
  <path class="st3" d="M253.68,383.69c.36.74.72,1.47,1.09,2.21-1.88.76-4,.91-5.68,2.21-1.01.02-2.02.04-3.03.06.08-.47.15-.95.23-1.42,1.19-.5,2.38-1,3.57-1.5,1.48,0,2.82-.38,3.82-1.56Z"/>
  <path class="st3" d="M281.33,366.89c2.23-1.61,2.53-5.67,6.48-5.11-.89,2.83-3.54,4.25-5.18,6.48-.43-.46-.87-.91-1.3-1.37Z"/>
  <path class="st3" d="M250.56,368.47c1.25.71,2.5,1.42,3.74,2.14-.15.72.26,1.63-.69,2.09-1.85-2.39-4.67-2.5-7.27-3.13.37-4.35,2.84-.63,4.22-1.09Z"/>
  <path class="st3" d="M276.22,363.09c.8-2.62,1.59-5.24,2.39-7.86.46-.08.91-.16,1.37-.25.11.56.21,1.11.32,1.67-.12.71-.24,1.43-.37,2.14-.71,1.65-1.43,3.29-2.14,4.94-.52-.21-1.04-.43-1.57-.64Z"/>
  <path class="st3" d="M246.18,372.05c2.38.5,4.76,1.01,7.15,1.52-.24.43-.49.87-.73,1.3-2.75.24-5.39-.15-7.88-1.4,0-.98.53-1.4,1.46-1.41Z"/>
  <path class="st3" d="M255.84,368.34c-2.36-.7-3.73-2.85-5.78-4-.84-.47-.49-1.2-.18-1.85.23,0,.46,0,.69,0,2.11,1.58,4.05,3.41,6.52,4.44-.42.47-.83.94-1.25,1.41Z"/>
  <path class="st3" d="M292.31,387.42c-1.69-1.38-3.9-1.51-5.79-2.42.03-.51.06-1.02.09-1.54,2.65,1.07,5.3,2.14,7.94,3.21-.6.7-1.21,1.35-2.25.75Z"/>
  <path class="st3" d="M269.01,407.1c0-2.65,0-5.29-.01-7.93.49.75.99,1.49,1.48,2.24-.58,1.88.93,4.29-1.47,5.7Z"/>
  <path class="st6" d="M442.83,363.34c-2.05-7.1,1.26-12.77,4.79-18.44,2.02-3.24,3.71-6.67,5.55-10.02,1.61-1.14,2.88-2.84,5-3.18,2.58-.15,4.89.9,7.27,1.62,3.24,2.81.87,6.1.57,9.1-.22,2.19-1.26,4.35-2.19,6.41-2.08,4.56-4.24,9.08-6.54,13.53-1.17,2.27-2.83,4.19-5.64,4.54-2.9-1.28-6.24-1.48-8.81-3.57ZM459.69,343.3c0-1.06-.23-1.96-1.55-1.92-1.28.05-1.99.78-2.03,2.05-.04,1.22.46,2.22,1.82,2.16,1.33-.06,1.73-1.1,1.75-2.29Z"/>
  <path class="st3" d="M465.45,333.32c-2.38-.73-4.69-1.77-7.27-1.62.05-.2.07-.41.07-.62,1.07-.08,2.14-.17,3.4-.26.38-2.17,1-4.25-1.05-5.79-2.58-1.94-5.61-1.6-8.42-.96-1.31.3-2.71.95-3.98,1.57-2.3,1.13-3.66,2.88-3.18,5.83.52,3.19-.54,5.58-4.35,5.62-2.89-.47-4.35.71-4.54,3.69-.18,2.76-1.53,4.71-4.28,5.75-1.65.62-3.47,1.39-3.76,3.58-.26.49-.52.98-.78,1.48-1.76,3.57-4.61,6.05-7.95,8.05-.48.06-.97.12-1.45.19-.25-.01-.49-.02-.74-.03-.53-.33-.65-.84-.63-1.41,3.9-1.33,7.4-3.12,8.64-7.52.07-4.49,4.01-5.39,6.87-7.12,1.34-.81,1.89-1.48,2.06-3,.33-2.98,1.48-5.23,5.11-5.48,2.3-.16,3.85-1.3,3.69-4.3-.27-4.82,3.08-8.19,7.94-8.66.85-.08,1.71-.08,2.56-.07,4.82.04,10.67-1.71,10.53,6.51,2.49-.41,3.97-2.09,6.16-2.14,5.18-.12,7.11.71,8.89,4.5,1.5,3.2.63,8.83-1.91,11.3-2.4,2.33-4.18,4.34-.32,7.14,1.27.92,2.15,2.95,1.87,4.95-1.2,0-1.75,1.15-2.72,1.56-.29-.29-.57-.58-.86-.87,1.84-1.66,1.28-2.95-.41-4.41-3.33-2.87-3.29-4.18-.8-7.95,1.68-2.55,4.12-4.81,3.48-8.44-.55-3.09-2-5.14-5.22-5.45-4.08-.39-5.72.77-6.65,4.4Z"/>
  <path class="st3" d="M442.83,363.34c2.57,2.09,5.91,2.29,8.81,3.57-.78.21-1.2.33-.7,1.43,1.41,3.09.95,6.13-.91,8.96-2.36,3.59-2,5.93,1.37,8.8,1.09.93,1.93,2.36,1.27,3.49-2.19,3.77-.97,7.44-.2,11.17-.46.77.43,2.25-1.3,2.53-.59-2.15.32-4.6-1.71-6.19-.07-.49-.13-.99-.2-1.48,0-.47,0-.94-.01-1.41.06-.5.13-1,.19-1.49,2.44-3.84,2.32-4.24-2.13-6.73-.5-1.8-1.01-3.61-1.51-5.39,0-.23,0-.48-.01-.72,2.37-2.26,3.76-5.01,3.62-8.3-.08-1.98-1.13-3.61-3.25-2.1-2.4,1.7-5.26,3.37-4.87,7.1-.42,0-.84,0-1.25,0-.97-4.36,2.68-6.31,4.92-8.98-3.19-1.94-6.36-.44-6.51,2.93-.1,2.28.43,4.62-.72,6.79,0,0-.03.03-.03.03-.99.71-1.98,1.43-2.96,2.14-1.71.88-2.35,2.31-2.18,4.19.35,3.73-1.89,5.91-4.86,7.3-1.71.8-3.39,1.57-4.8,3.04-.82-3.68-.71-3.83,3.06-4.39.62.14,1.12.01,1.4-.62,0,0,.03-.03.03-.03,2.89-1.6,4.2-3.94,3.41-7.26.24-2.09,1.57-3.36,3.26-4.36,3.92-.99,2.8-4.04,2.71-6.66.04-.71.08-1.42.12-2.14.35-.69.71-1.38,1.06-2.07,1.31-1.55,3.02-2.45,4.89-3.1Z"/>
  <path class="st3" d="M445.79,379.85c0,.25,0,.49.01.72-1.09,1.09-2.01,2.3-2.33,3.87-1.37.63-3.3.8-3.38,2.74-.06,1.44,1.11,2.3,2.5,2.66.52,1.79.07,3.36-1.1,4.75-2.13,2.54-3.52,5.43-4.04,8.68-1.57.11-1.87-.8-1.65-1.85.4-1.88.72-3.77,1.92-5.44,1.56-2.17,2.93-4.4,1.07-7.26-.91-1.4-.6-3.39.82-4.31,3.64-2.36,2.45-4.68.34-7.17,0-.24.03-.48.09-.71.42,0,.84,0,1.25,0,1.68.85,2.16,3.34,4.49,3.3Z"/>
  <path class="st3" d="M475.05,355.17c.29.29.57.58.86.87-.64,1.04-2.55,1.15-2.16,2.94.02.48.03.96.05,1.44.15.31.3.62.46.92.1,3.46,2.89,6.68.63,10.44-.06-4.08-2.15-7.46-3.36-11.13-.88-2.65.08-5.11,3.52-5.48Z"/>
  <path class="st3" d="M459.69,343.3c-.03,1.19-.43,2.23-1.76,2.29-1.35.06-1.85-.93-1.82-2.16.04-1.27.75-2,2.03-2.05,1.31-.05,1.56.85,1.55,1.92Z"/>
  <path class="st1" d="M279.03,389.59c-1.27,2.85-5.5,5.35-9.07,5.1-8.15-.57-16.05-10.01-15.67-16.44.33-5.62,2.92-10.75,8.09-13.01,5.12-2.24,10.92-2.27,15.92,1.17,4.1,2.82,5.77,10.62,3.68,15.88-.83-.92-.49-2.07-.6-3.13-1.17-11.68-5.64-14.65-15.6-12.89-2.97.53-6.24,1.65-6.32,5.77h.01c-1.66-.06-1.88,1.29-2.29,2.4-2.84,7.56,3.43,16.74,11.69,17.43,3.71.31,6.91-.9,10.16-2.28Z"/>
  <path class="st3" d="M279.03,389.59c-3.25,1.37-6.45,2.59-10.16,2.28-8.26-.69-14.53-9.88-11.69-17.43.42-1.11.63-2.46,2.29-2.4-3.82,11.09-.29,12.22,4.2,16.01,3.89,3.28,8.34,3.27,12.57.79,3.96-2.33,4.22-6.53,3.61-10.41-1.39-8.76-4.16-11.62-12.26-10.79-3.32.34-5.76,2.31-8.12,4.41.08-4.13,3.35-5.25,6.32-5.77,9.96-1.76,14.43,1.21,15.6,12.89.11,1.06-.23,2.21.6,3.13.29,2.95-1.6,5.02-2.95,7.31Z"/>
  <path class="st3" d="M257.28,366.78c-.72-2.71-3.61-4.09-4.51-7.21,3.29.83,4.03,4.21,6.62,5.18-.7.68-1.41,1.35-2.11,2.03Z"/>
  <path class="st3" d="M268.98,398.41c-.04-.69-.07-1.38-.11-2.08,1.1-.41,2.02.11,2.94.6-.19,1.95-1.71,1.33-2.84,1.48Z"/>
  <path class="st3" d="M323.1,200.81c.07,6.26-4.28,11.6-9.83,10.4-4.3-.93-9-3.44-9.18-9.38-.17-5.6,3.3-9.02,9.33-9.13,7.62-.14,9.61,1.52,9.68,8.11Z"/>
  <path class="st12" d="M259.46,372.03c2.36-2.1,4.81-4.07,8.12-4.41,8.1-.83,10.87,2.03,12.26,10.79.61,3.87.35,8.08-3.61,10.41-4.22,2.48-8.68,2.49-12.57-.79-4.49-3.79-8.02-4.92-4.2-16.01,0,0-.01,0-.01,0ZM267.33,386.59c1.4,1.49,2.81-.53,4.27.03,2.77,1.06,4.65-1.39,5.05-2.89.59-2.19,1.51-5.08-.73-7.27l-1.24-.12c.45-.39.89-.77,1.34-1.16q-2.53-2.62-6.1-3.73c-.16,1.3-.33,2.58-.49,3.86-.12,0-.23,0-.35,0-.15-1.28-.3-2.56-.45-3.84-2.41-.12-2.99,2.03-4.24,3.18-4.26,3.92-3.31,8.04,2.29,10.46.22.49.43.98.65,1.47Z"/>
  <path class="st3" d="M212.91,393.08c0,.22.04.43.12.64-.05.82-.13,1.66.68,2.22.06.49.12.98.17,1.47.16.28.32.56.49.83-.02.21,0,.42.06.63.07,2.4.94,4.4,2.95,5.81,4.33,2.14,8.1,5.11,11.96,7.97,1.57,1.16,1.8,3.06,2.77,4.54.09,3.61.38,7.27-2.33,10.24,0,0,.01,0,.01,0-.22.26-.44.53-.65.79-.99,1.07-2.24,1.53-3.66,1.6-2.09.32-4.09.9-5.92,1.98-2.88.3-3.19,2.69-3.7,4.76-1.6,6.47-4.3,12.41-8.32,17.72-3.86,5.1-9.06,6.91-14.92,5.33-2.88-2.3-4.59-6.27-9.03-6.36-7.66.55-10.76-5.58-9.28-12.37,1.13-5.2,3.54-10.06,4.15-15.38.51-4.43-.38-8.66-2.33-12.66-.19-.25-.39-.49-.58-.74-.03-.24-.08-.47-.15-.7-.27-1.53-.38-3.12-1.34-4.44-.03-.48-.06-.96-.09-1.43,0-.51.01-1.03.02-1.54.06-.23.09-.46.1-.7.16-.25.33-.5.49-.74-.05-5.09,3.93-6.51,7.54-8.26,5.75.92,10.56-.1,14.52-5.08,3.51-4.41,7.29-4.62,11.62-2.28,2,1.08,2.53,3.19,3.98,4.6.06.25.12.51.18.76.16.27.33.54.49.81ZM188.05,452.4c8.76,7.41,14.21,6.47,20.19-3.49,2.02-3.36,3.74-6.95,4.53-10.74,1.24-5.96,4.21-9.43,10.54-10.17,2.85-.33,5.68-1.92,6.39-5.24.77-3.58-.14-6.67-3.12-9.14-3.12-2.59-6.67-4.49-9.99-6.77-1.96-1.35-3.83-2.99-4.19-5.27-.39-2.41-1.45-4.57-1.83-6.98-.48-3.07-2.2-5.74-5.57-6.62-3.33-.88-5.77.78-7.54,3.29-2.96,4.19-6.77,5.73-11.89,5.48-6.71-.33-10.82,5.86-8.44,12.12.69,1.82,1.56,3.59,2.14,5.44.94,2.96,2.84,5.79,2.14,9.02-.98,4.59-2.15,9.15-3.52,13.64-3.26,10.72-2.13,12.61,8.96,14.34.4.36.79.72,1.19,1.08Z"/>
  <path class="st12" d="M186.86,451.33c-11.09-1.73-12.22-3.63-8.96-14.35,1.37-4.49,2.53-9.06,3.52-13.64.69-3.24-1.21-6.07-2.14-9.02-.59-1.85-1.45-3.62-2.14-5.44-2.38-6.26,1.73-12.45,8.44-12.12,5.12.25,8.93-1.29,11.89-5.48,1.76-2.5,4.21-4.16,7.54-3.29,3.37.89,5.09,3.56,5.57,6.62.38,2.42,1.45,4.58,1.83,6.98.36,2.28,2.23,3.92,4.19,5.27,3.32,2.27,6.87,4.18,9.99,6.77,2.98,2.47,3.89,5.56,3.12,9.14-.71,3.32-3.54,4.91-6.39,5.24-6.33.74-9.3,4.2-10.54,10.17-.79,3.79-2.51,7.37-4.53,10.74-5.98,9.95-11.43,10.89-20.19,3.49l-.05.04c1.05-.9,3.32-.65,2.86-2.95-.18-.9-.93-1.45-1.85-1.3-1.5.24-1.72,1.42-1.66,2.7-.18.13-.34.27-.49.43ZM211.52,423.12c.74-4.51-1.35-8.46-4.37-12.19-4.64-5.74-13.32-5.66-17.59.28-5.42,7.53-5.13,16.71.78,24.19,3.49,4.42,8.2,5.77,13.21,3.32,6.22-3.05,8.29-8.52,7.97-15.6ZM205.63,401.25c.07-1.97-.37-3.59-2.81-3.85-2.49-.26-4.25.89-4.39,3.23-.13,2.08,1.57,3.84,3.58,3.88,1.59.03,3.69-.73,3.62-3.26ZM212.83,418.23c.21,1.89,1.3,3.35,3.66,3.31,2.19-.04,3.1-1.28,3.12-3.54.02-2.5-1.15-3.68-3.44-3.68-2.21,0-3.19,1.45-3.34,3.91ZM187.09,437.76c-2.5-.36-3.55.94-3.49,3.07.06,2.24,1.34,3.53,3.68,3.56,2.33.03,3.36-1.55,3.3-3.45-.06-1.98-.86-3.89-3.48-3.18ZM195.91,401.27c-.26-1.01-.79-1.73-1.96-1.63-.96.08-1.51.63-1.51,1.62,0,1.13.57,1.86,1.69,1.86,1.11,0,1.66-.76,1.78-1.85ZM195.15,443.47c1.09-.27,1.71-.96,1.5-2.11-.17-.97-.91-1.43-1.88-1.35-.99.08-1.57.7-1.54,1.69.04,1.15.74,1.74,1.91,1.77Z"/>
  <path class="st9" d="M211.52,423.12c.32,7.08-1.76,12.55-7.97,15.6-5.01,2.45-9.72,1.1-13.21-3.32-5.91-7.48-6.21-16.66-.78-24.19,4.28-5.94,12.95-6.01,17.59-.28,3.02,3.73,5.11,7.68,4.37,12.19ZM203.31,411.71c-1.51-2.08-3.45-2.49-5.59-2.24-6.02.71-8.3,5.27-9.41,10.18-1.14,5.06-.25,10.05,3.94,13.82,1.3,1.17,6.62.27,7.2-1.39.69-2.02,1.14-4.19-1.82-5.32-2.17-.83-4.25-2.49-4.3-4.95-.04-2.4.59-4.79-1.35-7.26,4.33.02,6.99-4.03,11.33-2.84ZM204.34,427.8c2.31-4.31,1.61-8.36-.65-12.35-1.16-2.05-3.02-1.08-4.57-.99-.81.05-1.67.8-2.02,1.61.19,1.21,1.91.8,1.87,1.99-.59,1.74-3.04,1.27-3.44,3.14.61,2.04,2.18,3.27,4.04,3.9,2.59.87,3.24,2.73,3.24,5.09,0,2.49-1.28,4.04-3.53,5.04-.97.43-2.57-.07-2.87,1.79,3.01,1.86,5.4-.06,7.55-1.54,2.84-1.96,4.56-4.79,4.59-8.8-1.46.98-2.42,2.12-4.22,1.13Z"/>
  <path class="st3" d="M205.63,401.25c.07,2.53-2.03,3.29-3.62,3.26-2-.04-3.71-1.79-3.58-3.88.15-2.34,1.9-3.49,4.39-3.23,2.43.26,2.87,1.87,2.81,3.85Z"/>
  <path class="st3" d="M212.83,418.23c.15-2.47,1.13-3.92,3.34-3.91,2.29,0,3.46,1.18,3.44,3.68-.02,2.26-.93,3.5-3.12,3.54-2.36.04-3.44-1.42-3.66-3.31Z"/>
  <path class="st3" d="M187.09,437.76c2.62-.71,3.42,1.2,3.48,3.18.06,1.9-.97,3.48-3.3,3.45-2.34-.03-3.62-1.32-3.68-3.56-.06-2.13.99-3.43,3.49-3.07Z"/>
  <path class="st3" d="M188,452.45c.04-.62.14-1.27-.65-1.55-.06-1.28.16-2.46,1.66-2.7.92-.15,1.67.41,1.85,1.3.46,2.29-1.81,2.05-2.86,2.95Z"/>
  <path class="st3" d="M195.91,401.27c-.11,1.09-.67,1.84-1.78,1.85-1.12,0-1.7-.73-1.69-1.86,0-.99.55-1.54,1.51-1.62,1.17-.1,1.7.62,1.96,1.63Z"/>
  <path class="st3" d="M195.15,443.47c-1.18-.03-1.87-.62-1.91-1.77-.03-.98.55-1.61,1.54-1.69.97-.08,1.7.38,1.88,1.35.2,1.14-.42,1.83-1.5,2.11Z"/>
  <path class="st3" d="M203.31,411.71c-4.35-1.19-7,2.85-11.33,2.84,1.93,2.47,1.3,4.86,1.35,7.26.05,2.46,2.13,4.11,4.3,4.95,2.96,1.14,2.51,3.31,1.82,5.32-.57,1.66-5.89,2.56-7.2,1.39-4.19-3.77-5.08-8.76-3.94-13.82,1.11-4.92,3.39-9.48,9.41-10.18,2.14-.25,4.08.16,5.59,2.24Z"/>
  <path class="st3" d="M204.34,427.8c1.8,1,2.76-.15,4.22-1.13-.04,4.01-1.75,6.84-4.59,8.8-2.15,1.48-4.55,3.4-7.55,1.54.3-1.86,1.9-1.36,2.87-1.79,2.26-1,3.53-2.55,3.53-5.04,0-2.36-.65-4.22-3.24-5.09-1.86-.63-3.44-1.85-4.04-3.9.41-1.87,2.85-1.39,3.44-3.14.04-1.19-1.68-.79-1.87-1.99.35-.82,1.21-1.56,2.02-1.61,1.55-.1,3.4-1.06,4.57.99,2.26,3.99,2.95,8.05.65,12.35Z"/>
  <path class="st2" d="M266.68,385.11c-5.6-2.42-6.55-6.54-2.29-10.46,1.25-1.15,1.83-3.29,4.24-3.18.15,1.28.3,2.56.45,3.84.12,0,.23,0,.35,0,.16-1.28.32-2.56.49-3.86q3.57,1.11,6.1,3.73c-.45.39-.89.77-1.34,1.16-2.35.82-4.7,1.63-6.38,2.21.78,2.69-1.07,4.52-1.62,6.56Z"/>
  <path class="st3" d="M275.93,376.46c2.23,2.19,1.31,5.08.73,7.27-.4,1.5-2.28,3.94-5.05,2.89-1.46-.56-2.87,1.46-4.27-.03,1.14-4.84,3.95-8.26,8.6-10.12Z"/>
  <path class="st13" d="M275.93,376.46c-4.65,1.86-7.45,5.29-8.6,10.12-.22-.49-.43-.98-.65-1.48.55-2.03,2.4-3.86,1.62-6.56,1.68-.58,4.03-1.4,6.38-2.21.41.04.83.08,1.24.12Z"/>
  <path class="st11" d="M494.62,267.29c-.02.64-.12,1.3.41,1.81.03.53-.05,1.09.55,1.4-.13.62.16,1.14.43,1.66-.96.59-.04,1.04.12,1.54.14.6.27,1.19.41,1.79.66,1.92,2.63.26,3.61,1.32-.76.21-1.64-.21-2.32.43-1.75.15-.57.86-.26,1.4-.64.29-.5.87-.52,1.4-.24.57.14.94.44,1.35-.72.47-.48,1.2-.49,1.86-.78.5-.15.96.05,1.43-.2.21-.39.42-.59.62-.6.16-.9.57-.97,1.17-.13.32-.26.65-.39.97-1.19-.89-1.29.01-1.42.87h-.2s-.19-.03-.19-.03c-.77-.48-1.54-.95-1.87.44-.41-.95-1.08-.47-1.69-.3-.15-.57-.54-.59-1.01-.46-.37-.26-.75-.5-1.23-.41-.48-.02-.96-.05-1.45-.07-.07-1.24-1.12-1.49-1.98-1.94-.2-.57-.54-.94-1.2-.85-.14-.88-.47-1.61-1.4-1.89-.02-.42-.05-.83-.55-.98-.05-.43-.21-.79-.64-.97.13-.64-.22-1.02-.72-1.3.03-.53,0-1.04-.6-1.28.15-.65-.17-.98-.77-1.09.29-.44.22-.85-.12-1.24-.09-.52-.22-1.01-.81-1.19,0-.61.1-1.25-.57-1.62.21-.57.16-1.06-.44-1.37.06-.86.09-1.71-.77-2.25-.05-.29-.1-.57-.16-.86,0-.71-.25-1.31-.74-1.82-.07-.33-.15-.66-.22-1-.05-.8-.26-1.54-.71-2.21-.2-.86-.92-.47-1.43-.58.48-.46,1.14-.84.79-1.68-.36-.87-1.21-.39-1.8-.64.02-.66,2.2.2.96-1.36.16-1.07-.43-1.41-1.37-1.41,1.63-1.09.44-2.14-.06-3.2.68-.75.32-1.27-.39-1.7,1.18-.24,1.13-.77.35-1.48-.13-.27-.25-.53-.38-.8,1.55-.05.87-.74.38-1.36.37-.11.8-.12.92-.61.32-.89.64-1.78.96-2.66.49-.02.81-.25.87-.77,2-1.76,4.36-2.31,6.95-2.08.16.01.31.02.47.03.26.75.87.39,1.35.43.08,1.08.71,1.47,1.72,1.38-.02.73.34,1.03,1.05.91-.07.86.15,1.58,1.04,1.92.1.49.32.88.84,1.01-.05.74.09,1.39.85,1.73-.04.65.26,1.01.92,1.05.07.56.14,1.12.21,1.68.22.76.89.43,1.37.57-.36.47-1.25.88-.18,1.51-.15.8.18,1.33.92,1.62-.34.48-.28.96.03,1.42-.23.97.55,1.52.95,2.22-.24,1.5,1.28,2.35,1.37,3.72.13.48.44.8.89,1-.73.8-.38,1.35.4,1.81ZM472.64,252.3c.18.98,0,2.08.26,3.24,1.25,5.56,3.16,10.92,5.05,16.26,1.57,4.42,3.43,8.8,6.88,12.23,1.71,1.7,3.73,2.7,6.17,2.46,2.17-.22,3.66-.96,4.28-3.56.83-3.47-.22-6.57-.88-9.76-1.36-6.54-4.33-12.54-6.69-18.74-.86-2.27-2.08-4.41-3.57-6.37-2.27-2.98-4.64-3.63-7.69-2.74-2.49.73-3.84,3.33-3.81,6.99Z"/>
  <path class="st13" d="M480.39,243.28c-2.59-.22-4.95.33-6.95,2.08-3.31-3.29-6.62-6.59-9.94-9.88-.02-.26-.04-.53-.05-.79.44-.02.89-.04,1.33-.07,0,0,0,0,0,0,2.83,2.6,5.66,5.19,8.45,7.75-1.61-3.34-3.8-6.52-6.12-9.63,0-.29,0-.59,0-.88,2.18-.38,1.97,2.02,3.19,2.76.13.16.27.31.4.47,1.28,2.68,3.06,5.02,5.03,7.87.06-2.09-.58-3.41-1.23-4.72-.04-.29-.09-.57-.13-.86-.84-2.12-1.06-4.45-2.2-6.46-.01-.6-.18-1.21.27-1.96,2.01,1.2,1.5,3.59,2.54,5.17.09,1.27.03,2.62,1.6,3.32.44-1.7-.61-3.15-.38-4.69,0-.46.02-.92.02-1.38.47-.38-.82-2.14,1.09-1.39-.13.29,0,.43.28.49.22,3.16.51,6.3,1.7,9.44.39-2.99.78-5.99,1.17-8.98,1.21-.32,1.48.35,1.43,1.36-.97,3.59-1.22,7.28-1.49,10.97Z"/>
  <path class="st13" d="M472.58,246.13c-.32.89-.64,1.78-.96,2.66-1.87-.79-3.44-2.17-5.42-2.74-1.45-1.4-3.44-1.94-5.04-3.12-.66-.49-1.57-.76-.94-1.87,2.79.63,4.68,3.23,8.1,3.74-2.1-2.21-4.2-3.66-6.25-5.17-.02-.15-.07-.29-.13-.43,1.03-1.62,1.81-.2,2.46.31,2.77,2.15,5.45,4.4,8.17,6.62Z"/>
  <path class="st13" d="M470.73,254.74c.49,1.06,1.69,2.1.06,3.2-3.25.36-6.54.42-9.66,1.55-.63-.25-1.48.26-1.96-.55.05-.8.65-.73,1.22-.97,1.64-.69,3.64.2,5.28-1.31-1.59,0-2.97-.05-4.34.02-1.1.05-1.33-.46-1.12-1.39.3-.03.61-.06.91-.09,2.63.24,5.23.12,7.81-.46.6,0,1.2,0,1.8,0Z"/>
  <path class="st4" d="M491.95,260.76c3.89-1.18,7.72-2.55,11.48-4.09.64-.12.99.2,1.23.87-3.28,1.97-7.27,2.34-10.51,4.35.3,1,1,.58,1.42.81-.14.41-.28.82-.42,1.24-.61.18-1.23.36-1.84.55-.09-1.38-1.61-2.23-1.37-3.72Z"/>
  <path class="st13" d="M462.98,273.68c3.65-1.08,6.98-2.93,10.48-4.36.61-.25,1.1-.81,1.84-.68.05.29.1.57.16.86-.23,1.07-1.5.63-1.96,1.37h0c-.15.01-.3.05-.44.12-.48.25-.97.51-1.45.76h0c-.43.21-.86.42-1.29.63-.38-.07-.8-.23-.96.33,0,0,.01-.02.01-.02-1.06.23-1.99.75-2.86,1.37-1.18.65-2.36,1.3-3.54,1.95-.63.06-1.34-.35-1.87.31-.16-.12-.32-.25-.47-.37-.05-1.62,1.85-1.23,2.36-2.28h0Z"/>
  <path class="st13" d="M487.47,287.56c-1.16,2.86-2.31,5.72-3.47,8.58-.86,1.73-.78,4.01-2.92,5.01-1.3-.87-.59-1.99-.11-2.77,1.91-3.13,3.17-6.54,4.55-9.89.42-.21.4-.63.5-1,.48.02.96.05,1.45.07Z"/>
  <path class="st13" d="M480.9,281.83c.5.15.53.56.55.98-.79,1.08-1.9,1.91-2.43,3.18-1.98,1.96-3.53,4.27-5.27,6.42-.71.87-1.26,2.35-3.05,1.68,1.01-2.85,3.8-4.19,5.12-6.66.24-.06.41-.18.33-.47.08-.12.13-.26.15-.4.78-.39,1.17-1.16,1.75-1.75.96-.99,1.4-2.47,2.84-2.99Z"/>
  <path class="st13" d="M482.85,284.7c.66-.09,1,.28,1.2.85-.29.47-.59.95-.88,1.42-2.47,3.35-4.94,6.7-7.41,10.04-.38.51-.76,1.44-1.53.8-.79-.65.21-1.09.49-1.64.57-1.15,1.83-1.83,2.05-3.18.67-.22.89-.74.94-1.38,0,0-.01.01-.01.01,2.13-2,3.49-4.57,5.16-6.91Z"/>
  <path class="st13" d="M479.53,279.56c.51.28.85.66.72,1.3-1.94,1.43-3.89,2.86-5.83,4.29-.14.15-.29.3-.43.46-.79.6-1.84.87-2.33,1.84-1.44.44-2.21,2.05-4.06,2.28.11-2.79,2.85-3.02,4.11-4.53,2.88-1.5,5.18-3.79,7.81-5.63Z"/>
  <path class="st13" d="M476.67,273.12c-3.38,1.35-6.43,3.33-9.66,4.98-1.12.57-2.19,1.36-3.57,1.06,0,0,0,0,0,0,0-.3,0-.6.01-.89.15-.02.29-.08.42-.16,1.37-.5,2.53-1.34,3.72-2.15.15-.02.3-.05.44-.11.32.1.4-.12.48-.35.58.12.92-.35,1.35-.58.28.07.48-.03.59-.31.14.04.24,0,.32-.12.28.05.46-.07.53-.34,0,0-.01.01-.01.01,1.17-.46,2.44-.74,3.22-1.87.14-.01.29-.04.42-.09.56.21.87-.32,1.31-.46.6.31.64.8.44,1.37Z"/>
  <path class="st13" d="M484.99,246.02c-.71.12-1.07-.18-1.05-.91.41-.65,1.24-.99,1.4-1.83.07-.12.12-.25.15-.4,1.64-1.3,3.23-2.65,4.17-4.59,0,0-.01.01-.01.01.59-.03.87-.38.93-.94,1.1-.44,1.54-2.09,3.37-1.8-2.05,3.34-5.15,5.5-7.13,8.57-.61.63-1.21,1.25-1.82,1.88Z"/>
  <path class="st13" d="M486.81,300.07c.63-4.03,1.26-8.06,1.89-12.1.46-.13.86-.11,1.01.46-.48,3.95-.96,7.89-1.46,11.84-.14,1.09-.59,1.37-1.43.5,0-.18,0-.35-.01-.53v-.17Z"/>
  <path class="st13" d="M478.17,277.18c.61.12.92.44.77,1.09-2.98,1.88-6,3.7-8.76,5.91-.15-.02-.25.04-.32.18-.16.11-.32.22-.48.33-.55.24-1.09.48-1.63.72-.69-1.19.09-1.67.89-2.14,3.17-2.03,6.34-4.06,9.52-6.09Z"/>
  <path class="st13" d="M496.98,283.26c2.28.99,3.88,2.9,5.87,4.29.32.22.59.41.97.45.64,1.18,2.26,1.4,3.21,3.32-3.39-.68-5.3-2.62-7.35-4.29-.72-.96-1.69-1.64-2.65-2.33-.2-.47-.83-.93-.05-1.43Z"/>
  <path class="st13" d="M463.36,271.81c-.66,0-1.38.08-1.39-.91.18-.17.35-.34.53-.5.78.06,1.41-.21,1.86-.85.3-.04.6-.08.9-.12.29.07.4-.11.48-.35.15,0,.3-.04.44-.1.31.09.41-.11.48-.35,0,0,0,0,0,0,2.72-.5,5.07-2.02,7.68-2.8.07.33.15.66.22,1-2.4,1.82-5.42,2.25-8.03,3.61-.72.37-1.48.68-2.22,1.01-.38-.04-.79-.17-.96.36Z"/>
  <path class="st13" d="M482.22,243.73c-.48-.03-1.09.32-1.35-.43,1.09-2.43,2.19-4.86,3.28-7.29,0,0,0,0,0,0,.88-1.27,1.33-2.72,1.83-4.16h-.01c.17-.14.35-.29.52-.44.24,0,.49,0,.73,0,.51,1.07-.17,1.89-.58,2.75-.93,1.94-2.09,3.78-2.57,5.91,0,0,.01-.02.01-.02-.11.17-.21.34-.32.52-.11.11-.15.24-.13.4-.79.76-.98,1.81-1.41,2.76Z"/>
  <path class="st13" d="M473.64,263.62c-2.38,1.63-5.32,1.55-7.9,2.6-1.15.47-2.43.62-3.65.94-1.12.29-1.58-.13-1.4-1.26.15-.04.3-.08.44-.12,3.8-.47,7.36-1.92,11.08-2.74.51.11,1.22-.28,1.43.58Z"/>
  <path class="st13" d="M494.62,267.29c-.79-.46-1.13-1.01-.4-1.81,4.12-.2,8.24-.39,12.36-.59.03.21.05.43.08.64-3.83,1.56-8.09.78-12.03,1.75Z"/>
  <path class="st13" d="M501.58,250.76c-3.84,1.58-7.68,3.16-11.53,4.74-1.07-.64-.19-1.04.18-1.51.62-.24,1.27-.43,1.7-.99,0,0,0,0,0,0,.89-.01,1.71-.18,2.29-.94.15-.03.3-.06.46-.1.33.11.41-.12.48-.36.3-.05.6-.09.9-.14.17-.1.33-.19.5-.29,0,0,0,0,0,0,1.07-.46,2.14-.92,3.21-1.38,0,0-.01,0,0,0,.4,0,.76-.07.92-.5.15,0,.29-.04.43-.09.15,0,.31,0,.46,0,.13.07.26.1.4.09.06.31.11.61.17.92-.19.17-.37.35-.56.52Z"/>
  <path class="st13" d="M511.19,277.28c-3.71.45-7.36-.4-11.05-.46-.98-1.06-2.95.6-3.61-1.32,4.6-.24,9.16.89,13.77.4.29.18.58.36.87.54.05.15.09.3.14.45-.09.12-.13.25-.11.39Z"/>
  <path class="st13" d="M496.05,241.96c-3.06,2.33-6.12,4.66-9.18,6.99-.52-.14-.75-.52-.84-1.01.96-.79,1.92-1.59,2.88-2.39.08-.04.12-.11.14-.19.36-.52,1.19-.45,1.42-1.15.14-.51.97-.22,1-.86,1.42-.3,2.19-1.56,3.33-2.29.82-.53,1.33-.67,1.67.39-.14.16-.28.33-.41.49Z"/>
  <path class="st13" d="M491.4,288.74c.33-1.39,1.1-.92,1.87-.44-.88,2.73-.45,5.51-.19,8.24.09.89.16,1.79.21,2.69.03.51.14,1.13-.72,1.1-.86-.03-.6-.68-.67-1.16-.46-3.46-.5-6.94-.51-10.43Z"/>
  <path class="st13" d="M493.65,288.33c.13-.86.23-1.76,1.42-.87.69,1.96,1.68,3.77,2.79,5.52,0,0,0,0,0,0,.64,1.53,1.28,3.05,1.92,4.58-.11.07-.15.17-.12.3-1.12.27-1.34-.62-1.8-1.31-.49-.73-.56-1.71-1.32-2.27-.63-2.15-1.89-3.98-2.89-5.95Z"/>
  <path class="st13" d="M467.16,281.03c3.36-2.1,6.72-4.19,10.08-6.29.59.18.72.68.81,1.19-3.35,2.03-6.7,4.06-10.05,6.09-1.17.41-.9-.38-.84-1Z"/>
  <path class="st13" d="M497.82,277.25c3.31,1.09,6.62,2.15,9.91,3.31.65.23,1.82.06,1.64,1.37-.3.03-.61.06-.91.09-2.66-.33-5.06-1.54-7.55-2.39-1.11-.37-2.39-.17-3.35-.98-.31-.54-1.49-1.25.26-1.4Z"/>
  <path class="st13" d="M459.18,251.61c.04-.8.44-1.05,1.2-.88,3.4.74,6.83,1,10.31.83.78.71.83,1.24-.35,1.48-1.53-.03-3.05-.05-4.58-.08-.49-.79-1.22-.4-1.87-.36-.91-.03-1.82-.06-2.73-.09-.31-.7-.89-.44-1.41-.39-.19-.17-.38-.34-.57-.51Z"/>
  <path class="st13" d="M487.73,250.69c3.41-1.95,6.71-4.1,10.58-5.82q-.53,1.65-3.18,3.14c-.51-.03-.71.37-.97.68-1.42.75-3.04,1.17-4.17,2.42-.16-.02-.28.03-.37.16-.16.11-.33.21-.49.32-.16.05-.31.1-.47.15-.67-.03-.96-.39-.92-1.05Z"/>
  <path class="st13" d="M495.57,270.5c-.6-.3-.52-.87-.54-1.4,4.01.12,7.97-.84,11.99-.47-.4,1.42-1.7,1.13-2.7,1.43-.61,0-1.22-.01-1.83-.02-.95.02-1.97-.45-2.8.39-.6.03-1.2.06-1.81.09-.77,0-1.54-.01-2.31-.02Z"/>
  <path class="st13" d="M461.11,260.71c2.71-.38,5.41-.77,8.12-1.13.97-.13,1.95-.15,2.93-.23,1.24,1.55-.93.69-.96,1.36-2.6.37-5.19.74-7.79,1.1-.69.46-1.46.33-2.21.32-.18-.15-.35-.29-.53-.44,0,0,0,0,0,0-.03-.15-.07-.3-.1-.46.18-.18.36-.36.53-.54Z"/>
  <path class="st13" d="M470.32,250.76c-2.15-.76-4.3-1.53-6.45-2.29-1.34-.41-2.56-1.03-4.1-2.07,2.36-.85,3.77.98,5.49.99,1.71.94,3.59,1.44,5.44,2.01.48.63,1.17,1.31-.38,1.36Z"/>
  <path class="st13" d="M508,272.82c-3.96.29-7.92.59-11.88.88-.16-.5-1.07-.95-.12-1.54.91.04,1.84.21,2.72.09,3.22-.43,6.44-.66,9.69-.31.03.37.07.75-.42.88Z"/>
  <path class="st13" d="M495.47,286.49c.07-.6.37-1.01.96-1.17.79.99,1.58,1.98,2.37,2.97,1.38,2.11,3.49,3.78,4.35,6.75-1.45-.55-2.03-1.33-2.64-2.07.07-.29-.07-.42-.33-.48,0,0,0,0,0,0l-.43-.51s.02.03.02.03c-.17-.15-.33-.3-.5-.44,0,0,0,0,0,0-.87-1.99-2.52-3.4-3.81-5.08Z"/>
  <path class="st13" d="M495.16,263.94c.14-.41.28-.82.42-1.24,2.86-.74,5.69-1.64,8.75-1.1-2.82,1.69-6.05,1.79-9.16,2.34Z"/>
  <path class="st12" d="M472.64,252.3c-.03-3.66,1.32-6.26,3.81-6.99,3.05-.89,5.42-.24,7.69,2.74,1.49,1.96,2.71,4.1,3.57,6.37,2.35,6.2,5.33,12.2,6.69,18.74.66,3.19,1.71,6.29.88,9.76-.62,2.6-2.11,3.34-4.28,3.56-2.44.24-4.46-.76-6.17-2.46-3.44-3.43-5.31-7.8-6.88-12.23-1.9-5.34-3.8-10.7-5.05-16.26-.26-1.16-.08-2.26-.26-3.24ZM474.44,254.21c.15,2.77,1.5,6.79,3.16,10.74,2.35,5.61,4.07,11.51,7.32,16.72,1.31,2.1,3.11,3.5,5.77,3.49,1.99,0,3.08-1.22,3.7-2.84.7-1.82.51-3.79.11-5.64-.86-4-2.32-7.82-3.84-11.62-2.03-5.09-3.62-10.37-6.47-15.09-.97-1.6-2.06-3.27-4.25-3.45-3.86-.31-5.55,1.57-5.51,7.69Z"/>
  <path class="st13" d="M497.04,280.05c4.49,1.31,8.61,3.41,12.6,5.81-4.45-.45-8.13-2.94-12.17-4.46-.29-.4-.68-.77-.44-1.35Z"/>
  <path class="st13" d="M490.97,257.12c3.66-1.17,6.96-3.46,10.91-3.72.09.24.18.48.28.72-3.72,1.48-7.43,2.95-11.15,4.43-.31-.47-.38-.94-.03-1.42Z"/>
  <path class="st9" d="M474.44,254.21c-.04-6.12,1.64-8,5.51-7.69,2.19.18,3.28,1.85,4.25,3.45,2.85,4.72,4.44,10,6.47,15.09,1.52,3.8,2.97,7.62,3.84,11.62.4,1.85.59,3.82-.11,5.64-.62,1.62-1.71,2.84-3.7,2.84-2.65,0-4.46-1.39-5.77-3.49-3.25-5.21-4.97-11.11-7.32-16.72-1.66-3.95-3.01-7.97-3.16-10.74ZM481.3,269.44c1.11,4.47,2.85,8.67,5.64,12.35,1.01,1.33,2.21,2.39,4.3,1.62,2.14-.78,2.2-2.42,2.01-4.03-.59-5.09-2.27-9.87-4.6-14.43.08-1.17-.47-2.19-.82-3.25-.21-.95-.75-1.77-1.07-2.69-1.14-3.31-2.4-6.59-4.55-9.43-1.26-1.66-3.02-1.43-4.59-1.1-1.5.32-1.76,1.77-1.86,3.25-.26,4,1.27,7.59,2.57,11.18.64,1.77.97,3.84,2.55,5.2-.46.63-.01.98.41,1.33Z"/>
  <path class="st3" d="M480.89,268.11c-1.58-1.36-1.91-3.43-2.55-5.2-1.3-3.59-2.83-7.18-2.57-11.18.1-1.48.36-2.93,1.86-3.25,1.56-.33,3.33-.56,4.59,1.1,2.15,2.84,3.42,6.12,4.55,9.43.32.92.86,1.74,1.07,2.69-.48,1.65-1.93.24-2.88.94-1.96,1.44-3.32,3.2-4.06,5.47ZM484.11,258.24c-.06-1.1-.47-2.08-1.67-2.04-1.26.04-2.1.84-2,2.24.09,1.28.94,1.92,2.11,1.9,1.28-.02,1.53-1.03,1.56-2.1Z"/>
  <path class="st3" d="M488.65,264.95c2.33,4.56,4.02,9.33,4.6,14.43.19,1.61.13,3.25-2.01,4.03-2.09.76-3.29-.3-4.3-1.62-2.8-3.68-4.54-7.88-5.64-12.35,2.23.42,3.76-.77,5.09-2.31.69-.8,1.28-1.69,2.26-2.18ZM486.44,275.51c.97-.01,1.81-.1,1.83-1.45.02-1.59-1.27-1.66-2.17-1.69-.79-.03-1.96.43-1.95,1.5.02,1.34,1.09,1.68,2.29,1.64ZM491.83,279.15c-.21-.54-.42-1.2-1.28-1.23-.83-.03-1.3.44-1.33,1.22-.02.76.39,1.3,1.22,1.34.83.05,1.23-.44,1.39-1.34Z"/>
  <path class="st4" d="M488.65,264.95c-.98.49-1.57,1.38-2.26,2.18-1.33,1.54-2.86,2.72-5.09,2.31-.42-.36-.87-.7-.41-1.33.75-2.28,2.1-4.03,4.06-5.47.95-.7,2.4.71,2.88-.94.35,1.07.9,2.08.82,3.25Z"/>
  <path class="st4" d="M484.11,258.24c-.03,1.07-.28,2.08-1.56,2.1-1.17.02-2.02-.62-2.11-1.9-.1-1.4.74-2.2,2-2.24,1.2-.04,1.62.93,1.67,2.04Z"/>
  <path class="st9" d="M486.44,275.51c-1.2.04-2.27-.3-2.29-1.64-.01-1.07,1.16-1.53,1.95-1.5.9.03,2.19.1,2.17,1.69-.02,1.34-.86,1.43-1.83,1.45Z"/>
  <path class="st12" d="M491.83,279.15c-.16.9-.55,1.38-1.39,1.34-.83-.05-1.25-.58-1.22-1.34.02-.77.5-1.24,1.33-1.22.87.03,1.07.68,1.28,1.23Z"/>
  <path class="st3" d="M347.37,168.29c.1,8.18-5.59,15.18-12.86,13.6-5.62-1.22-11.78-4.49-12.01-12.27-.22-7.32,4.32-11.79,12.2-11.94,9.96-.19,12.56,1.99,12.66,10.61Z"/>
  <path class="st6" d="M134.71,187.38c7.35.71,11.4,5.88,15.38,11.26,2.27,3.07,4.83,5.91,7.26,8.86.47,1.92,1.58,3.72,1.11,5.82-.81,2.45-2.64,4.22-4.19,6.16-3.81,1.98-5.99-1.44-8.67-2.83-1.95-1.01-3.58-2.77-5.15-4.4-3.47-3.61-6.87-7.29-10.16-11.07-1.68-1.93-2.85-4.18-2.14-6.92,2.26-2.22,3.68-5.25,6.56-6.87ZM147.12,210.44c.99.4,1.91.51,2.35-.73.43-1.21,0-2.14-1.16-2.64-1.12-.49-2.23-.39-2.68.89-.44,1.26.38,2.01,1.48,2.47Z"/>
  <path class="st3" d="M154.27,219.47c1.55-1.95,3.38-3.71,4.19-6.16.17.12.35.22.55.29-.32,1.03-.64,2.05-1.01,3.26,1.88,1.15,3.58,2.49,5.77,1.16,2.76-1.68,3.56-4.62,4-7.48.21-1.33.12-2.87,0-4.28-.2-2.56-1.33-4.46-4.24-5.1-3.16-.69-4.99-2.56-3.62-6.12,1.5-2.52.95-4.3-1.75-5.58-2.5-1.18-3.82-3.16-3.77-6.1.03-1.77-.01-3.73-1.94-4.82-.36-.42-.72-.85-1.08-1.27-2.67-2.95-3.92-6.52-4.55-10.36.12-.47.24-.95.36-1.42.1-.22.2-.45.3-.67.5-.37,1.02-.29,1.54-.06-.2,4.12.17,8.03,3.8,10.8,4.15,1.72,3.54,5.72,4.08,9.01.26,1.54.68,2.3,2.03,3.02,2.65,1.41,4.32,3.31,3.21,6.77-.7,2.19-.22,4.06,2.64,5.01,4.58,1.53,6.47,5.88,5.12,10.57-.24.82-.56,1.62-.88,2.41-1.82,4.47-2.35,10.55-9.93,7.39-.54,2.47.48,4.46-.28,6.52-1.8,4.86-3.28,6.34-7.46,6.6-3.53.22-8.44-2.67-9.8-5.94-1.28-3.09-2.5-5.49-6.52-2.93-1.32.84-3.54.91-5.29-.08.44-1.12-.42-2.05-.45-3.1.37-.16.75-.32,1.12-.48.86,2.32,2.27,2.28,4.25,1.24,3.89-2.04,5.1-1.52,7.69,2.19,1.75,2.5,2.95,5.6,6.56,6.35,3.07.63,5.52.03,6.99-2.84,1.87-3.65,1.39-5.6-1.64-7.81Z"/>
  <path class="st3" d="M134.71,187.38c-2.89,1.62-4.31,4.65-6.56,6.87.1-.81.14-1.23-1.07-1.17-3.39.17-6.05-1.37-7.99-4.15-2.46-3.52-4.78-4.04-8.69-1.97-1.27.67-2.9.92-3.71-.11-2.69-3.42-6.55-3.65-10.3-4.31-.55-.71-2.26-.43-1.87-2.14,2.22.24,4.16,2,6.38.69.48.12.97.24,1.45.36.44.17.88.34,1.32.51.44.24.88.49,1.32.73,2.67,3.69,3.08,3.72,7.04.5,1.86.2,3.72.4,5.57.59.22.08.45.17.68.25,1.23,3.04,3.27,5.34,6.38,6.43,1.87.65,3.77.28,3.15-2.24-.7-2.86-1.2-6.13-4.8-7.15.15-.39.31-.78.46-1.16,4.41.7,4.88,4.82,6.53,7.89,2.98-2.25,2.76-5.75-.33-7.13-2.09-.93-4.45-1.31-6.04-3.17,0,0-.02-.04-.02-.04-.3-1.18-.6-2.36-.89-3.54-.19-1.92-1.28-3.04-3.09-3.57-3.6-1.05-4.79-3.94-4.99-7.21-.11-1.89-.21-3.73-1.06-5.58,3.72.6,3.82.76,2.96,4.46-.36.52-.42,1.04.06,1.53,0,0,.02.04.02.04.42,3.28,2.11,5.35,5.49,5.85,1.85.99,2.54,2.69,2.85,4.64-.53,4.01,2.72,4.09,5.19,4.97.65.3,1.29.6,1.94.9.51.58,1.03,1.17,1.54,1.75.95,1.78,1.16,3.71,1.07,5.69Z"/>
  <path class="st3" d="M118.27,184.04c-.23-.09-.46-.17-.68-.25-.61-1.41-1.39-2.72-2.73-3.59-.08-1.51.47-3.37-1.3-4.16-1.32-.59-2.54.18-3.4,1.35-1.86-.17-3.15-1.17-4.01-2.77-1.57-2.92-3.75-5.28-6.58-6.96.48-1.5,1.43-1.45,2.33-.86,1.61,1.06,3.24,2.06,4.35,3.79,1.44,2.25,3.01,4.34,6.36,3.68,1.64-.33,3.37.7,3.7,2.35.85,4.26,3.45,4,6.53,2.96.23.09.44.2.63.34-.15.39-.31.78-.46,1.17-1.41,1.25-3.9.78-4.73,2.96Z"/>
  <path class="st3" d="M130.42,220.35c-.37.16-.75.32-1.12.48-.73-.98-.13-2.79-1.94-3.09-.45-.16-.9-.32-1.35-.48-.34.03-.68.06-1.03.08-3.25-1.18-7.28.23-9.94-3.26,3.82,1.45,7.73.75,11.58.98,2.79.16,4.72,1.96,3.8,5.29Z"/>
  <path class="st3" d="M147.11,210.45c-1.09-.47-1.92-1.22-1.48-2.48.45-1.28,1.55-1.38,2.68-.89,1.17.5,1.59,1.43,1.16,2.64-.44,1.24-1.37,1.13-2.36.74Z"/>
  <path class="st9" d="M354.53,198.14c.1,4.14-3.65,7.96-7.82,7.95-4.12,0-7.28-3.36-7.3-7.73-.02-4.29,3.21-7.66,7.34-7.67,4.06,0,7.68,3.46,7.78,7.45Z"/>
  <path class="st9" d="M478.96,419.19c3.41,4.46,2.32,11.62-2.26,14.93-4.52,3.26-10.65,2.1-14.15-2.68-3.43-4.69-2.57-10.95,1.96-14.24,4.45-3.23,11.17-2.3,14.45,1.99Z"/>
  <path class="st8" d="M440.51,280.87c3.22,2.38,5.26,5.94,6.56,9.95,1.55,4.78-.63,7.95-5.6,8.29-8.88.6-19.86-5.93-23.55-14.01-2.6-5.71.24-10.42,6.49-10.63,6.15-.21,11.44,1.92,16.1,6.39Z"/>
  <path class="st12" d="M172.35,344.64c-.83,2.68-1.61,5.37-2.51,8.01-.52,1.5-1.18,3.24-3.15,3.01-2.27-.26-.74-2.46-1.51-3.62-2.12.4-2.82,1.71-2.63,3.82.2,2.19.14,4.39-.77,6.47-.44,1.02-.88,2.22-2.26,1.91-1.32-.3-.92-1.56-.84-2.45.19-2.04.52-4.06.81-6.16-3.61.76-4.79,2.89-4.26,6.3.2,1.3.07,2.7-.17,4-.21,1.12-.37,2.72-2.03,2.53-1.63-.18-1.46-1.69-1.45-2.9.02-1.8,1.06-3.5.54-5.37-2.17.76-3.16,1.95-2.35,4.42.56,1.71.55,3.65,0,5.41-.35,1.15-1.07,2.37-2.56,2.18-1.6-.21-1.69-1.55-1.55-2.81.17-1.53.48-3.04.75-4.71-2.3.57-2.79,2.12-2.82,4.01-.03,2.46-.45,4.84-1.57,7.07-.61,1.22-1.56,2.04-2.91,1.54-1.42-.52-.86-1.83-.61-2.82.29-1.16.79-2.26,1.37-3.83-3.47,2.2-4.89,4.86-4.5,8.53.17,1.57.15,3.18,0,4.75-.12,1.31-.87,2.48-2.37,2.17-1.39-.28-1.35-1.56-1.05-2.68.25-.94.68-1.83.32-3.03-2.26,2.33-3.59,4.58-2.17,7.96.58,1.38.81,3.39-.6,4.82-.36.37-.86.44-1.32.11-1.62-1.19-.52-2.98-1.09-4.56-1.57.84-2.15,1.99-1.33,3.75.2.42.13.96.25,1.43.42,1.63,1.37,3.99-.72,4.42-2.53.53-1.54-2.35-2.14-3.72-.09-.21-.18-.44-.32-.78-1.43,1.62-1.36,3.72-2.12,5.48-.5,1.17-.63,3.02-2.36,2.75-1.49-.24-1.2-1.86-1.22-3.07,0-.3-.11-.59-.23-1.2-.82,1.25-1.4,2.3-2.15,3.22-.5.61-1.1,1.43-2.13.82-.94-.56-.84-1.46-.54-2.26.51-1.36,1.05-2.74,1.77-4,.96-1.68,1.23-3.39.73-5.27-1.16-.25-1.56.96-2.41,1.32-.93.4-1.65,2.06-2.74,1.13-1.2-1.02-.16-2.28.61-3.18,1.03-1.19,2.13-2.36,3.4-3.28,1.13-.82,1.73-1.65,1.4-3.04-.15-.08-.36-.29-.49-.25-1.32.39-2.93,2.01-3.91.43-1.01-1.64,1.1-2.61,2.06-3.78,1.17-1.42,3.74-1.43,3.99-3.81-.29-.17-.49-.39-.65-.37-1.53.18-3.37,2.44-4.47.29-1.13-2.19,1.37-3.24,2.78-4.49,1.48-1.3,4.22-1.24,4.71-4.65-1.61.98-2.66,1.66-3.75,2.29-.88.51-1.92.87-2.69.03-.88-.95,0-1.88.57-2.57,1.58-1.9,3.64-3.24,5.82-4.34,1.75-.88,2.85-2.11,2.98-4.25-1.31-.06-2.14.95-3.18,1.41-.95.42-2.05,1.49-2.88.25-.7-1.03.24-2.04.95-2.89,1.53-1.84,3.58-2.94,5.68-3.9,1.54-.7,2.74-1.47,2.73-3.39-1.75-.52-4.03,2.64-5.01-.13-.94-2.64,1.98-3.62,3.84-4.51,2.93-1.41,6.21-2.25,6.87-6.18-1.38-.32-2.54.63-3.83.73-1.15.1-2.67.64-3.22-.86-.48-1.29.87-1.92,1.73-2.47,2.05-1.3,4.2-2.56,6.7-2.66,2.69-.11,4.21-1.5,5.06-3.92-1.81.16-3.59.38-5.38.44-1.16.04-2.74.35-2.92-1.33-.14-1.35,1.09-2.02,2.27-2.51,2.95-1.25,6.03-1.89,9.21-2,1.41-.05,2.72-.07,3.05-2.01-1.22-.06-2.41-.11-3.61-.16-1.27-.06-2.69-.31-2.85-1.71-.16-1.43,1.37-1.92,2.44-2.35.86-.35,1.9-.31,2.86-.32,4.23-.05,8.29-.16,12.38-2.03,4.12-1.89,8.85-1.54,13.22-.16,1.94.61,3.41.42,5.12-.47,5.14-2.68,8.92-6.65,11.89-11.57-.28,6.56-3.68,11.37-8.81,15.24,1.71,1.06,3.22.07,4.73-.32,1.76-.45,3.5-1.04,5.2-1.68,1.55-.58,3.05-1.32,4.77-1.7-3.08,3.87-6.72,7.04-11.22,9.08-1.72.78-2.49,1.52-2.43,3.71.14,4.58-.42,9.17.12,13.76.11.95-.03,1.97-.26,2.9-.37,1.53-.73,3.52-2.47,3.74-1.97.25-1.29-2.23-2.21-3.17Z"/>
  <path class="st3" d="M118.55,384.18c-.1-2.88.58-5.22,1.4-7.49,2.46-6.83,4.86-13.67,8.44-20.06,4.04-7.19,6.41-15.24,10.93-22.2,4.4-6.78,9.16-13.2,17.71-15.21,5.4-1.27,9.75-.17,12.13,3.43,3.07,4.66,4.07,9.45.97,14.66-3.62,6.08-9.41,9.72-14.92,13.61-10.02,7.07-18.45,15.55-25.08,25.89-1.89,2.95-4.04,5.74-5.88,8.75-.92,1.5-2.16,3.68-4.01,3.24-2.37-.57-1.55-3.17-1.69-4.62Z"/>
  <path class="st5" d="M145.89,340.11c-2.27-.08-4.03-.72-3.89-3.33.13-2.43,1.1-4.29,3.98-4.15,2.45.12,4.46,1.06,4.41,3.8-.05,2.76-2.17,3.52-4.49,3.67Z"/>
  <path class="st5" d="M145.84,352.04c-.12,2.44-1.09,4.17-3.89,4.18-2.35.01-3.31-1.54-3.29-3.51.02-2.47,1.41-4.25,4-4.29,2.14-.04,3.28,1.35,3.18,3.62Z"/>
  <path class="st5" d="M129.5,371.33c-.56,1.7-1.27,3.29-3.42,3.09-1.95-.19-2.59-1.63-2.48-3.35.13-1.92,1.41-2.72,3.23-2.59,1.73.12,2.48,1.25,2.67,2.86Z"/>
  <path class="st5" d="M165.34,325.65c-.43,1.51-1.07,2.79-2.93,2.66-1.42-.1-2.19-.82-2.15-2.35.04-1.83,1.02-2.72,2.73-2.66,1.36.05,2.16.96,2.36,2.34Z"/>
  <path class="st5" d="M156.66,326.27c-.09,1.56-.88,2.54-2.39,2.62-1.43.08-2.14-.84-2.17-2.25-.03-1.33.43-2.44,1.86-2.6,1.54-.17,2.39.78,2.71,2.23Z"/>
  <path class="st5" d="M133.87,358.51c-1.44-.16-2.27-.87-2.16-2.33.1-1.42.98-2.17,2.37-2.14,1.46.04,2.12.99,2.1,2.37-.02,1.49-.97,2.06-2.3,2.1Z"/>
  <path class="st5" d="M160.03,331.94c-.12.99-.54,1.95-1.69,1.98-1.23.03-2.14-.75-2.13-2.02.01-1.05.75-1.87,1.87-1.85,1.08.01,1.78.7,1.95,1.89Z"/>
  <path class="st5" d="M123.62,380.3c-1.41.08-1.9-.71-2-1.72-.11-1.15.66-1.78,1.69-1.86,1.11-.08,1.77.6,1.79,1.72.02,1.1-.53,1.77-1.48,1.86Z"/>
  <path class="st5" d="M157.33,338.85c-.29,1.03-1.01,1.7-2.02,1.73-.99.04-1.53-.77-1.45-1.67.09-1.04.78-1.79,1.91-1.71.92.06,1.5.66,1.56,1.65Z"/>
  <path class="st5" d="M152.09,348.85c.05,1.27-.78,1.78-1.74,1.91-.74.1-1.42-.45-1.47-1.23-.07-1.03.37-1.91,1.51-2.05.98-.12,1.49.52,1.71,1.37Z"/>
  <path class="st5" d="M167.57,337.73c-.14,1.02-.68,1.55-1.69,1.5-1.13-.05-1.37-.84-1.3-1.76.07-.83.61-1.29,1.45-1.26.98.03,1.58.49,1.55,1.52Z"/>
  <path class="st12" d="M162.67,405.76c.83,1.63,1.68,3.23,2.45,4.87.44.93.92,2.04-.1,2.83-1.18.91-1.46-.81-2.34-1-.81,1.15-.54,2.08.5,2.97,1.08.93,2.05,1.98,2.57,3.36.25.67.59,1.43-.19,1.91-.75.46-1.14-.31-1.5-.76-.83-1.04-1.6-2.13-2.42-3.24-1.34,1.99-.92,3.52.87,4.87.68.51,1.26,1.23,1.73,1.94.41.62,1.06,1.44.2,2.1-.84.65-1.45-.12-1.99-.69-.8-.85-1.09-2.11-2.18-2.75-.67,1.34-.59,2.34.91,3.13,1.04.55,1.91,1.45,2.46,2.52.36.7.58,1.59-.21,2.18-.84.63-1.49.04-1.99-.61-.61-.79-1.15-1.63-1.78-2.54-.82,1.31-.34,2.26.5,3.15,1.1,1.16,1.98,2.46,2.47,4.01.27.85.2,1.66-.66,2.04-.9.4-1.23-.47-1.56-1.04-.39-.67-.65-1.41-1.1-2.4-.62,2.6-.08,4.48,1.77,6.02.79.66,1.51,1.41,2.15,2.21.53.67.72,1.55-.12,2.08-.78.5-1.33-.12-1.7-.78-.31-.55-.52-1.16-1.22-1.56,0,2.11.4,3.76,2.59,4.7.89.38,1.91,1.21,1.9,2.52,0,.33-.2.6-.57.65-1.3.18-1.59-1.16-2.57-1.63-.35,1.11-.1,1.9,1.08,2.35.28.11.5.39.77.56.93.57,2.45,1.24,1.67,2.39-.94,1.39-1.79-.4-2.69-.76-.14-.06-.28-.12-.5-.22.07,1.4,1.05,2.35,1.5,3.52.29.77,1.08,1.69.15,2.35-.8.56-1.4-.32-1.96-.88-.14-.14-.32-.23-.65-.45.18.96.39,1.71.46,2.47.04.51.13,1.16-.62,1.34-.69.17-1.05-.3-1.28-.81-.38-.87-.75-1.75-.99-2.67-.31-1.22-.96-2.14-2.05-2.79-.66.41-.29,1.16-.52,1.71-.25.61.16,1.71-.76,1.77-1.02.07-1.11-.99-1.15-1.76-.06-1.02-.08-2.07.1-3.07.16-.89.06-1.55-.73-2.05-.11.03-.3.03-.34.11-.44.78-.46,2.27-1.63,1.97-1.21-.31-.67-1.72-.75-2.7-.1-1.19,1.09-2.36.14-3.58-.22.05-.4.04-.47.12-.63.78-.47,2.66-1.95,2.16-1.52-.51-.83-2.13-.73-3.35.1-1.27,1.41-2.49.09-4.3-.3,1.19-.49,1.98-.71,2.76-.18.64-.5,1.27-1.24,1.23-.84-.05-.85-.88-.9-1.46-.13-1.6.23-3.16.75-4.66.42-1.21.38-2.28-.53-3.33-.64.57-.57,1.41-.84,2.1-.25.63-.28,1.62-1.23,1.42-.79-.16-.81-1.06-.87-1.78-.12-1.55.34-2.99.88-4.39.4-1.02.61-1.93-.26-2.82-1.05.55-.68,3.06-2.39,2.21-1.64-.81-.72-2.58-.25-3.84.73-1.98,1.88-3.86.41-6-.79.48-.9,1.44-1.45,2.08-.49.56-.96,1.51-1.89,1.06-.81-.39-.47-1.29-.31-1.94.37-1.54.8-3.1,1.92-4.27,1.2-1.27,1.29-2.6.58-4.12-.77.89-1.5,1.8-2.31,2.64-.52.54-1.12,1.41-1.96.7-.68-.57-.4-1.43-.08-2.2.81-1.92,1.96-3.61,3.39-5.11.63-.66,1.24-1.26.51-2.32-.59.53-1.17,1.04-1.76,1.56-.62.54-1.39,1.08-2.1.5-.72-.59-.23-1.52.07-2.2.24-.55.74-1.01,1.19-1.45,1.95-1.94,3.79-3.83,4.85-6.55,1.07-2.75,3.43-4.73,6.09-6.06,1.18-.59,1.78-1.35,2.17-2.54,1.18-3.57,1.15-7.14.31-10.78,2.84,3.18,3.43,6.97,2.79,11.1,1.28-.28,1.53-1.42,2.06-2.29.62-1.01,1.16-2.07,1.66-3.14.46-.98.83-2,1.46-2.95.31,3.2.06,6.32-1.12,9.32-.45,1.14-.47,1.84.55,2.83,2.14,2.07,3.95,4.47,6.29,6.36.48.39.88.93,1.19,1.47.52.88,1.25,1.97.54,2.86-.8,1.01-1.61-.45-2.47-.48Z"/>
  <path class="st3" d="M155.49,448.56c-1.35-1.3-2.09-2.7-2.74-4.13-1.94-4.3-3.93-8.57-5.15-13.18-1.38-5.18-3.91-10.01-4.96-15.3-1.02-5.15-1.7-10.3,1.37-15.11,1.94-3.04,4.47-4.5,7.21-3.89,3.54.78,6.18,2.56,7.09,6.4,1.07,4.47.01,8.8-.8,13.11-1.47,7.83-1.56,15.61.03,23.43.45,2.23.72,4.51,1.22,6.74.25,1.11.66,2.7-.4,3.33-1.36.81-2.16-.78-2.88-1.39Z"/>
  <path class="st5" d="M148.28,415.63c-1.09.99-2.21,1.49-3.32.21-1.04-1.19-1.43-2.49-.02-3.74,1.2-1.05,2.56-1.53,3.78-.22,1.22,1.31.58,2.62-.43,3.75Z"/>
  <path class="st5" d="M153.66,421.21c1.05,1.19,1.38,2.44.08,3.71-1.09,1.07-2.24.78-3.12-.14-1.11-1.16-1.26-2.62-.08-3.81.98-.99,2.14-.86,3.12.24Z"/>
  <path class="st5" d="M154.77,437.61c.51,1.05.9,2.11-.2,2.99-.99.8-1.95.42-2.67-.44-.81-.95-.57-1.91.33-2.67.86-.73,1.72-.54,2.54.13Z"/>
  <path class="st5" d="M150.8,400.08c.48.9.77,1.79-.16,2.57-.71.6-1.39.61-2.07-.12-.81-.87-.76-1.73.07-2.47.66-.59,1.44-.53,2.16.02Z"/>
  <path class="st5" d="M147.03,404.3c.67.77.74,1.59.07,2.31-.63.68-1.38.58-2.03-.07-.62-.6-.91-1.33-.31-2.05.64-.78,1.47-.72,2.27-.19Z"/>
  <path class="st5" d="M151,429.65c-.74.58-1.45.62-2.07-.11-.6-.71-.53-1.46.14-2.07.7-.64,1.44-.5,2.05.15.67.7.48,1.4-.12,2.02Z"/>
  <path class="st5" d="M151.17,405.41c.39.52.63,1.15.11,1.69-.56.57-1.34.62-1.9.02-.47-.5-.49-1.21.03-1.71.51-.48,1.15-.48,1.77,0Z"/>
  <path class="st5" d="M156.09,444.46c-.62.68-1.21.53-1.71.1-.57-.49-.5-1.13-.05-1.64.48-.54,1.1-.52,1.62,0,.51.5.55,1.07.15,1.54Z"/>
  <path class="st5" d="M153.04,409.86c.33.61.3,1.25-.16,1.72-.45.47-1.06.33-1.43-.12-.43-.53-.45-1.19.12-1.66.46-.38,1-.37,1.48.06Z"/>
  <path class="st5" d="M155.13,416.9c.6.57.44,1.18.05,1.68-.3.39-.86.43-1.25.09-.5-.45-.69-1.06-.23-1.64.4-.5.93-.43,1.42-.13Z"/>
  <path class="st5" d="M157.31,404.7c.4.54.38,1.03-.11,1.47-.55.49-1.02.23-1.4-.23-.35-.42-.3-.88.1-1.25.47-.43.96-.49,1.41,0Z"/>
  <path class="st12" d="M135.05,443.4c1.61.85,3.24,1.67,4.82,2.56.9.51,1.93,1.14,1.55,2.37-.44,1.42-1.66.18-2.49.53,0,1.4.76,2.01,2.13,2.13,1.42.13,2.82.43,4.04,1.26.6.4,1.31.83.95,1.67-.35.81-1.11.4-1.67.24-1.28-.36-2.54-.82-3.84-1.25.06,2.4,1.28,3.4,3.52,3.47.85.03,1.73.27,2.54.59.69.27,1.69.56,1.38,1.6-.31,1.02-1.25.73-2.02.58-1.15-.23-2.11-1.1-3.37-.98.23,1.47.87,2.25,2.55,2.03,1.16-.15,2.4.08,3.46.64.7.36,1.39.97,1.09,1.89-.32,1-1.19.9-1.98.66-.95-.29-1.88-.67-2.92-1.04.09,1.54,1.03,2.04,2.23,2.28,1.57.31,3.04.86,4.33,1.84.71.54,1.12,1.24.64,2.04-.5.85-1.27.33-1.88.05-.7-.32-1.35-.78-2.28-1.33,1,2.48,2.53,3.7,4.92,3.89,1.02.08,2.05.28,3.03.56.82.23,1.48.85,1.11,1.77-.35.86-1.16.67-1.84.35-.57-.27-1.09-.65-1.9-.56,1.22,1.72,2.5,2.84,4.83,2.33.95-.21,2.26-.12,3.01.96.19.27.18.6-.09.86-.95.89-1.97-.02-3.04.16.35,1.11,1.02,1.61,2.24,1.3.29-.08.63.03.95.01,1.09-.07,2.71-.41,2.74.99.04,1.68-1.69.71-2.63.93-.15.04-.3.06-.54.11.86,1.11,2.22,1.31,3.25,2,.69.46,1.86.76,1.48,1.83-.33.92-1.33.55-2.1.41-.19-.03-.39,0-.79,0,.7.67,1.31,1.17,1.8,1.76.33.39.78.87.27,1.46-.47.54-1.03.37-1.51.08-.81-.49-1.63-1-2.35-1.61-.96-.81-2.02-1.19-3.28-1.09-.3.72.43,1.11.56,1.7.14.64,1.12,1.3.4,1.89-.79.65-1.48-.17-1.96-.77-.64-.8-1.26-1.64-1.69-2.56-.39-.82-.85-1.3-1.78-1.25-.07.09-.22.19-.22.28.09.89.94,2.11-.19,2.55-1.17.45-1.54-1.01-2.17-1.77-.77-.92-.47-2.56-1.96-3-.15.17-.31.26-.31.37-.07,1,1.16,2.44-.34,2.89-1.54.46-1.91-1.26-2.54-2.31-.66-1.1-.29-2.84-2.41-3.56.44,1.14.74,1.9,1.02,2.67.22.63.33,1.33-.3,1.73-.71.45-1.2-.22-1.58-.67-1.03-1.23-1.64-2.71-2.08-4.24-.36-1.23-1.01-2.07-2.36-2.41-.2.83.35,1.48.52,2.2.16.66.71,1.48-.18,1.87-.74.32-1.27-.4-1.74-.95-.99-1.19-1.46-2.64-1.82-4.09-.27-1.07-.62-1.92-1.84-2.15-.54,1.06,1.21,2.89-.68,3.19-1.8.29-2.08-1.69-2.43-2.99-.55-2.04-.7-4.24-3.13-5.13-.37.84.1,1.7.01,2.54-.08.75.09,1.78-.93,1.96-.88.15-1.13-.78-1.37-1.4-.59-1.47-1.14-2.99-.91-4.6.25-1.73-.46-2.87-1.91-3.7-.11,1.17-.19,2.34-.36,3.49-.11.74-.1,1.8-1.2,1.71-.88-.07-1.16-.94-1.34-1.75-.45-2.03-.49-4.08-.19-6.13.14-.91.28-1.75-.92-2.19-.18.77-.35,1.53-.53,2.29-.19.8-.52,1.69-1.43,1.62-.93-.07-1.06-1.1-1.22-1.84-.12-.59.02-1.25.13-1.87.47-2.71.88-5.32.17-8.15-.72-2.86.07-5.84,1.46-8.47.62-1.17.67-2.13.31-3.33-1.1-3.6-3.19-6.49-5.98-8.97,4.16.96,6.83,3.7,8.7,7.44.88-.97.43-2.05.36-3.06-.08-1.18-.25-2.36-.46-3.52-.19-1.06-.48-2.11-.52-3.25,2.1,2.43,3.7,5.13,4.47,8.25.29,1.19.68,1.78,2.08,1.99,2.94.45,5.81,1.36,8.81,1.56.62.04,1.25.25,1.82.51.94.42,2.16.89,2.1,2.02-.07,1.29-1.58.56-2.29,1.04Z"/>
  <path class="st3" d="M153.93,482.48c-1.85-.28-3.27-.99-4.62-1.79-4.07-2.39-8.16-4.73-11.82-7.78-4.12-3.43-8.98-5.91-12.89-9.62-3.81-3.62-7.35-7.42-7.61-13.12-.17-3.6,1.05-6.25,3.63-7.34,3.34-1.41,6.52-1.48,9.49,1.12,3.46,3.03,5.1,7.17,6.93,11.15,3.33,7.24,7.75,13.64,13.57,19.1,1.66,1.56,3.19,3.26,4.89,4.8.85.76,2.1,1.82,1.59,2.95-.65,1.45-2.21.61-3.16.53Z"/>
  <path class="st5" d="M129.01,459.77c-.32,1.44-.94,2.49-2.59,2.09-1.54-.37-2.61-1.21-2.18-3.04.37-1.55,1.21-2.73,2.95-2.37,1.76.36,1.99,1.8,1.81,3.31Z"/>
  <path class="st5" d="M136.63,461.22c1.54.37,2.53,1.19,2.21,2.98-.27,1.5-1.38,1.93-2.63,1.69-1.57-.3-2.55-1.41-2.27-3.07.23-1.37,1.25-1.94,2.69-1.6Z"/>
  <path class="st5" d="M147.02,473.96c1.02.56,1.95,1.2,1.57,2.55-.35,1.23-1.35,1.46-2.43,1.19-1.21-.31-1.57-1.22-1.27-2.37.28-1.09,1.09-1.44,2.14-1.36Z"/>
  <path class="st5" d="M122.08,445.63c.91.46,1.66,1.01,1.36,2.19-.23.9-.78,1.3-1.76,1.1-1.16-.25-1.62-.98-1.37-2.06.2-.86.87-1.27,1.78-1.23Z"/>
  <path class="st5" d="M121.44,451.25c.99.24,1.52.87,1.39,1.84-.12.92-.79,1.27-1.7,1.12-.85-.14-1.51-.56-1.44-1.5.08-1,.78-1.44,1.74-1.46Z"/>
  <path class="st5" d="M139.34,469.64c-.27.9-.82,1.35-1.75,1.11-.9-.23-1.27-.89-1.09-1.77.2-.93.89-1.23,1.76-1.06.95.19,1.2.86,1.07,1.72Z"/>
  <path class="st5" d="M125.47,449.77c.62.2,1.18.57,1.06,1.31-.13.79-.73,1.28-1.54,1.12-.67-.13-1.1-.7-.96-1.41.14-.69.66-1.06,1.44-1.02Z"/>
  <path class="st5" d="M152.05,478.78c-.12.91-.68,1.13-1.34,1.07-.75-.07-1.06-.63-.99-1.3.08-.72.59-1.06,1.32-.94.71.12,1.07.55,1.01,1.17Z"/>
  <path class="st5" d="M129.56,452.32c.62.31.96.84.87,1.5-.09.64-.67.89-1.24.73-.66-.18-1.05-.71-.87-1.42.15-.58.6-.88,1.24-.8Z"/>
  <path class="st5" d="M135.33,456.85c.82.12,1.04.71,1.01,1.34-.02.49-.45.85-.96.79-.66-.08-1.18-.46-1.13-1.21.04-.64.51-.89,1.08-.93Z"/>
  <path class="st5" d="M130.06,445.64c.63.21.91.62.76,1.26-.17.71-.7.78-1.28.62-.52-.14-.75-.54-.64-1.08.13-.62.5-.95,1.16-.81Z"/>
  <path class="st9" d="M341.7,52.13c.22.55.44,1.09.66,1.64.61,5.24,4.84,9.88,2.59,15.6.01,1.3.03,2.6.04,3.9.01.5.03.99.04,1.49-.01.84-.03,1.68-.04,2.53-.91,2.95-1.82,5.91-2.74,8.86-2.13.86-1.3,2.77-1.53,4.3-.56.84-1.12,1.67-1.68,2.51-.84.23-2.04-.05-2.02,1.41-.4.82-.8,1.63-1.2,2.45-.64.55-1.29,1.1-1.93,1.65-1.05-.08-2.11-.19-2.51,1.15-.95.22-2.15-.1-2.58,1.22-2.35.55-5.33-.33-6.54,2.84-1.66-.87-3.3-1.81-5.29-1.08-.43,0-.87-.01-1.3-.02-.82-.07-1.63-.14-2.45-.21-.38-1.59-1.68-1.29-2.8-1.37-.6-1.06-1.5-1.37-2.64-1.06-.85-.51-1.71-1.03-2.56-1.54-.85-.54-1.7-1.08-2.55-1.62-.43-.39-.87-.77-1.3-1.16-.94-.87-1.89-1.73-2.83-2.6-.82-.86-1.63-1.73-2.45-2.59-.93-.89-1.87-1.78-2.8-2.67-.11-.97.19-2.12-1.12-2.56-.18-.46-.37-.91-.55-1.37-.65-1.32-1.3-2.65-1.95-3.97-.62-.83-1.25-1.66-1.87-2.49,0-.91,0-1.81,0-2.72-.07-.88-.15-1.75-.22-2.62.1-1.71.2-3.42.29-5.13-.05-.97-.1-1.94-.15-2.91.44-.78.87-1.56,1.31-2.33.17-.52.34-1.05.51-1.57,1.71-.82.97-2.46,1.24-3.76,1.73-.8,2.58-2.2,2.76-4.06.75-.84,1.49-1.68,2.24-2.53l.35-.28c1.26-1.22,2.53-2.43,3.79-3.65,0,0,.12-.1.12-.1,1.26-.87,2.52-1.75,3.78-2.62.52-.12,1.05-.24,1.57-.35.98.24,1.95.44,2.3-.92.91-.12,1.81-.24,2.72-.36,1.27,0,2.55.01,3.82.02,1.38-.01,2.75-.03,4.13-.04.89,0,1.79,0,2.68,0,1.5.06,3.25,1,4.11-1.17.81.39,1.63.79,2.44,1.18.86.46,1.72.91,2.58,1.37.94.39,1.88.77,2.81,1.16.25.35.59.54,1.02.56,1.3,1.25,2.59,2.5,3.89,3.76.49.46.98.92,1.46,1.37.78.82,1.55,1.64,2.33,2.46ZM335.24,90.46c2.42-4.11,5.82-7.83,5.3-13.13,3.76-9.45.76-23.47-6.61-28.54-9-6.19-19.42-6.14-28.62-2.11-9.29,4.07-13.94,13.29-14.54,23.39-.68,11.56,13.51,28.53,28.17,29.56,6.42.45,14.03-4.05,16.31-9.17Z"/>
  <path class="st3" d="M344.95,69.37c2.24-5.72-1.98-10.36-2.59-15.6,3.42-.97,6.83-1.93,10.25-2.9,1.08.04,2.08-.12,2.68-1.19,1.75-.03,3.5-.06,5.26-.09.2,2.11-1.75,2.65-2.81,3.84-2.07.15-3.79,1.11-5.39,2.35-2.49.91-6.16-.92-7.56,3.02,2.95,3.03,5.38.2,7.9-.16.83-.07,1.66-.15,2.49-.22,1.47.31,2.93.52,4.07-.82,1.61.16,3.71-.48,3.79,2.55-3.29,3.33-8.93,1.15-12.43,4.79,3.73,4.45,10.26-.88,14.17,4.16-3.11,2.67-6.49,1.13-9.5,1.55-3.22-2.19-6.9-.71-10.32-1.28Z"/>
  <path class="st3" d="M322.27,103.67c1.22-3.17,4.19-2.29,6.54-2.84,1.78,5.19,4.67,10.1,3.92,15.91-1.06.04-2.07-.04-2.62-1.16-.15-4.54-2.18-8.47-4.08-12.57.17,5.55.63,10.99.16,16.44-3.33-.27-2.38-2.93-2.69-4.86-.34-2.11-.15-4.79-3.64-2.89-.89-1.34-1.77-2.68-2.66-4.02-.01-.45-.03-.9-.04-1.35,2.02-.27,4.76.84,5.1-2.66Z"/>
  <path class="st3" d="M342.26,86.15c.91-2.95,1.82-5.91,2.74-8.86,1.29.72,2.58,1.43,3.86,2.15-.06.92-.11,1.84-.17,2.76-1.14.16-2.32-1.4-3.74.45,3.43,2.25,6.26,5.26,10.27,6.57.88.5,1.76,1,2.64,1.5,1.23,1.92,2.81,3.4,5.09,3.97-.07,2.67-1.82,2.48-3.66,2.14-5.32-4.12-10.86-7.9-17.03-10.67Z"/>
  <path class="st3" d="M298.55,93.03c.94.87,1.89,1.73,2.83,2.6-3.21,4.4-6.42,8.8-9.63,13.21-2.55,1.2-4.64,1.31-2.93-2.31,1.25-2.65,3.6-4.79,3.11-8.09,3.38-.36,3.69-4.48,6.61-5.4Z"/>
  <path class="st3" d="M302.52,119.48c-2.56-3.04.17-5.61.94-8.22,1.14-3.86,2.86-7.55,4.33-11.31,1.15-.3,2.04,0,2.64,1.06,0,1.77,0,3.54,0,5.31l.02-.03c-4.71,3.05-3.82,9.03-6.78,13-.38.06-.77.12-1.15.19Z"/>
  <path class="st3" d="M302.83,24.5c1.07,5.93,5.17,11.01,4.87,17.33-.35,1.36-1.32,1.16-2.3.92-1.64-6.48-5.05-12.48-5.28-19.35,1.1-.11,2.02.22,2.71,1.1Z"/>
  <path class="st3" d="M310.42,41.46c.74-5.76-1.59-11.25-1.48-16.95.49-.5.98-1,1.47-1.5,3.06,1.74,2.82,4.81,2.61,7.53-.29,3.78,1.06,7.27,1.22,10.94-1.27,0-2.55-.01-3.82-.02Z"/>
  <path class="st3" d="M294.58,28.8c3.08,4.77,6.17,9.54,9.25,14.3-1.26.87-2.52,1.75-3.78,2.62-1.12-4.63-3.75-8.41-6.68-12.04-.73-1.91-2.95-4.19,1.21-4.89Z"/>
  <path class="st3" d="M333.9,98.47c2.75,5.76,4.79,11.73,5.23,18.16-1.51.16-2.42-.9-3.48-1.67-.14-5.47-3.13-10.15-4.26-15.35.4-1.34,1.46-1.23,2.51-1.15Z"/>
  <path class="st3" d="M298.55,93.03c-2.93.91-3.23,5.04-6.61,5.4-2.51.9-5,5.89-7.53.03,3.9-2.67,7.79-5.35,11.69-8.02.82.86,1.63,1.73,2.45,2.59Z"/>
  <path class="st3" d="M315.68,102.58c-1.28,4.85-2.58,9.7-3.82,14.56-.54,2.1-1.4,3.72-3.94,3.5-.08-.37-.14-.74-.2-1.12,1.67-4.26,3.1-8.56,2.74-13.24,0,0-.02.03-.02.03.93-1.32,1.87-2.63,2.8-3.95.82.07,1.63.14,2.45.21Z"/>
  <path class="st3" d="M287.8,74.66c0,.91,0,1.81,0,2.72-1.7.46-3.4.92-5.1,1.38-.87.04-1.74.08-2.61.12-1.51-.34-2.96-.38-4.13.87-1.7-.2-4.21,1.14-4.68-1.57-.42-2.45,2.03-2.03,3.52-2.41,4.34-.37,8.67-.74,13.01-1.12Z"/>
  <path class="st3" d="M287.88,66.9c-.1,1.71-.2,3.42-.29,5.13-4.07-2.34-8.5-1.01-12.77-1.22-1.46-.36-3.18-.55-3.5-2.34-.26-1.44,1.16-1.54,2.16-1.84,4.82-.82,9.55,2.92,14.41.27Z"/>
  <path class="st3" d="M344.75,111.55c-2.97-4.91-5.95-9.82-8.92-14.73.4-.82.8-1.64,1.2-2.45,3.36,4.43,6.72,8.85,10.08,13.28.22,1.92.76,4.02-2.37,3.91Z"/>
  <path class="st3" d="M318.37,41.44c-2.04-4.92-1.26-10.08-1.29-15.17,0-1.73.58-2.91,2.52-2.94.09,6.07,2.49,11.95,1.44,18.11-.89,0-1.79,0-2.68,0Z"/>
  <path class="st3" d="M330.21,24.57c-.87,5.63-1.74,11.26-2.62,16.89-.81-.39-1.63-.79-2.44-1.18-.56-6.04-.02-11.84,3.62-16.99.48.42.96.85,1.43,1.27h0Z"/>
  <path class="st3" d="M305.23,98.41c-3.37,5.23-3.27,12.48-9.37,16.12,0,0-.23-.26-.22-.26-.06-.45-.12-.89-.18-1.34.17-.89.33-1.78.5-2.66,2.24-4.49,4.49-8.99,6.73-13.48.85.54,1.7,1.08,2.55,1.62Z"/>
  <path class="st3" d="M352.54,102.1c-4.5-3.05-8.99-6.09-13.49-9.14.56-.84,1.12-1.67,1.67-2.51,4.27,2.67,8.54,5.33,12.81,8,.49,1.44.52,2.76-1,3.65Z"/>
  <path class="st3" d="M343.35,33.46c4.04.99,1.6,2.86.63,4.56-1.97,3.46-5.59,5.95-6.07,10.28-1.3-1.25-2.6-2.51-3.89-3.76,2.98-2.61,5.34-5.69,7.05-9.27.76-.6,1.53-1.21,2.29-1.81Z"/>
  <path class="st3" d="M364.56,79.26c-6.49-1.59-13.36-1.48-19.52-4.5-.01-.5-.03-.99-.04-1.49,2.48.06,4.97.13,7.45.19,0,0,.1,0,.1,0,.67,1,1.67,1.1,2.75.98,2.57.88,5.13,1.59,7.93,1.6,2.21.01,3.11,1.21,1.34,3.2Z"/>
  <path class="st3" d="M292.17,85.21c1.31.44,1.01,1.59,1.12,2.56-2.5,4.96-8.6,5.32-11.87,9.3-6.54-3.38.93-3.55,1.23-5.37,3.1-2.26,7.09-3.24,9.51-6.5Z"/>
  <path class="st3" d="M289.67,79.87c.65,1.32,1.3,2.65,1.95,3.97-3.38,1.37-7.2,1.63-10.2,3.97-1.81.04-3.63.08-5.44.11.14-.85.27-1.7.41-2.56,2.14-.9,4.27-1.8,6.41-2.7,2.67,0,5.06-.69,6.88-2.8Z"/>
  <path class="st3" d="M339.37,49.67c4.02-2.89,4.55-10.2,11.64-9.19-1.61,5.08-6.37,7.64-9.31,11.65-.78-.82-1.56-1.64-2.33-2.46Z"/>
  <path class="st3" d="M284.06,52.5c2.24,1.28,4.49,2.56,6.73,3.84-.27,1.3.46,2.93-1.25,3.76-3.32-4.29-8.4-4.49-13.07-5.63.67-7.82,5.11-1.12,7.59-1.96Z"/>
  <path class="st3" d="M330.18,42.83c1.43-4.71,2.86-9.42,4.3-14.13.82-.15,1.64-.3,2.46-.44.19,1,.38,2,.57,3-.22,1.28-.44,2.57-.66,3.85-1.28,2.96-2.57,5.92-3.85,8.87-.94-.39-1.88-.77-2.81-1.16Z"/>
  <path class="st3" d="M276.19,58.93c4.28.91,8.57,1.81,12.85,2.72-.44.78-.87,1.56-1.31,2.34-4.95.43-9.69-.26-14.16-2.52-.01-1.77.95-2.52,2.62-2.54Z"/>
  <path class="st3" d="M293.55,52.28c-4.25-1.26-6.7-5.12-10.4-7.19-1.51-.84-.87-2.15-.32-3.33.41,0,.82,0,1.24,0,3.79,2.84,7.27,6.13,11.73,7.99-.75.84-1.5,1.69-2.24,2.53Z"/>
  <path class="st3" d="M359.1,86.56c-3.04-2.48-7.02-2.71-10.41-4.35.06-.92.11-1.84.17-2.76,4.76,1.92,9.52,3.85,14.28,5.77-1.08,1.26-2.18,2.43-4.04,1.35Z"/>
  <path class="st3" d="M317.23,121.94c0-4.75-.02-9.51-.02-14.26.89,1.34,1.77,2.68,2.66,4.02-1.03,3.37,1.67,7.71-2.64,10.24Z"/>
  <path class="st1" d="M335.24,90.46c-2.28,5.12-9.89,9.62-16.31,9.17-14.65-1.03-28.85-17.99-28.17-29.56.59-10.1,5.25-19.33,14.54-23.39,9.2-4.03,19.62-4.08,28.62,2.11,7.37,5.07,10.37,19.09,6.61,28.54-1.48-1.66-.89-3.72-1.08-5.63-2.1-21-10.14-26.34-28.03-23.17-5.34.94-11.22,2.96-11.36,10.37h.03c-2.98-.11-3.37,2.32-4.12,4.31-5.11,13.58,6.16,30.09,21.01,31.34,6.67.56,12.43-1.63,18.27-4.09Z"/>
  <path class="st3" d="M335.24,90.46c-5.84,2.47-11.6,4.66-18.27,4.09-14.85-1.25-26.11-17.76-21.01-31.34.75-1.99,1.14-4.42,4.12-4.32-6.87,19.94-.52,21.96,7.54,28.77,6.99,5.9,15,5.88,22.59,1.42,7.12-4.18,7.59-11.74,6.49-18.71-2.49-15.75-7.48-20.89-22.04-19.4-5.96.61-10.36,4.14-14.6,7.93.15-7.42,6.03-9.43,11.36-10.37,17.9-3.17,25.94,2.17,28.03,23.17.19,1.91-.41,3.97,1.08,5.63.52,5.3-2.87,9.02-5.3,13.13Z"/>
  <path class="st3" d="M296.14,49.47c-1.29-4.86-6.49-7.35-8.11-12.96,5.91,1.49,7.24,7.56,11.9,9.32-1.26,1.22-2.53,2.43-3.79,3.65Z"/>
  <path class="st3" d="M317.17,106.33c-.06-1.24-.13-2.49-.19-3.73,1.99-.73,3.63.21,5.29,1.08-.34,3.5-3.08,2.39-5.1,2.66Z"/>
  <path class="st12" d="M300.06,58.9c4.25-3.78,8.64-7.31,14.6-7.93,14.56-1.5,19.55,3.65,22.04,19.4,1.1,6.97.63,14.52-6.49,18.71-7.59,4.46-15.6,4.48-22.59-1.42-8.07-6.81-14.41-8.84-7.54-28.77,0,0-.02.01-.02.01ZM314.2,85.07c2.52,2.68,5.05-.94,7.68.06,4.98,1.9,8.36-2.5,9.08-5.19,1.06-3.94,2.71-9.12-1.3-13.06-.74-.07-1.49-.14-2.23-.21.8-.69,1.6-1.39,2.41-2.09q-4.55-4.71-10.97-6.7c-.29,2.33-.58,4.63-.88,6.93-.21,0-.42,0-.63,0-.27-2.3-.54-4.59-.81-6.9-4.34-.21-5.37,3.64-7.62,5.71-7.66,7.05-5.95,14.45,4.11,18.8.39.88.78,1.77,1.16,2.65Z"/>
  <path class="st2" d="M313.03,82.42c-10.06-4.35-11.78-11.75-4.12-18.8,2.25-2.07,3.28-5.92,7.62-5.71.27,2.3.54,4.6.81,6.9.21,0,.42,0,.63,0,.29-2.3.58-4.6.88-6.93q6.42,1.99,10.97,6.7c-.81.7-1.61,1.39-2.41,2.09-4.23,1.47-8.46,2.93-11.47,3.97,1.4,4.84-1.92,8.13-2.92,11.78Z"/>
  <path class="st3" d="M329.65,66.87c4.01,3.94,2.36,9.13,1.3,13.06-.72,2.69-4.11,7.09-9.08,5.19-2.63-1-5.16,2.63-7.68-.06,2.06-8.69,7.1-14.85,15.46-18.2Z"/>
  <path class="st13" d="M329.65,66.87c-8.35,3.35-13.4,9.5-15.46,18.2-.39-.88-.78-1.77-1.16-2.65,1-3.66,4.32-6.94,2.92-11.78,3.01-1.04,7.24-2.51,11.47-3.97.75.07,1.49.14,2.23.21Z"/>
  <path class="st11" d="M135.48,257.53c-.02.61-.11,1.24.39,1.73.03.5-.05,1.04.52,1.33-.12.6.15,1.09.41,1.58-.91.56-.04.99.11,1.47.13.57.26,1.13.39,1.7.63,1.83,2.51.25,3.44,1.26-.72.2-1.56-.2-2.21.41-1.67.15-.55.82-.25,1.34-.61.28-.48.83-.5,1.33-.23.55.14.9.42,1.28-.68.45-.46,1.14-.47,1.77-.75.48-.14.92.04,1.36-.19.2-.37.4-.56.6-.57.15-.85.55-.92,1.12-.13.31-.25.62-.38.93-1.14-.84-1.23.01-1.36.83h-.19s-.18-.03-.18-.03c-.73-.46-1.46-.9-1.78.42-.39-.9-1.03-.45-1.61-.29-.14-.54-.52-.56-.96-.44-.35-.25-.71-.47-1.17-.39-.46-.02-.92-.05-1.38-.07-.07-1.19-1.07-1.42-1.88-1.85-.19-.54-.51-.89-1.14-.81-.13-.83-.44-1.53-1.34-1.8-.02-.4-.05-.79-.53-.94-.05-.41-.2-.75-.61-.93.12-.61-.21-.97-.69-1.24.03-.51,0-.99-.57-1.22.14-.62-.16-.93-.74-1.04.28-.42.2-.81-.11-1.18-.09-.49-.21-.96-.77-1.14,0-.58.1-1.19-.54-1.55.2-.54.15-1.01-.42-1.31.05-.82.09-1.62-.73-2.14-.05-.27-.1-.55-.15-.82,0-.67-.24-1.25-.7-1.73-.07-.32-.14-.63-.21-.95-.05-.76-.25-1.47-.67-2.11-.19-.82-.87-.45-1.36-.55.46-.44,1.08-.8.75-1.6-.34-.83-1.15-.38-1.71-.61.02-.63,2.09.19.91-1.29.15-1.02-.41-1.35-1.31-1.35,1.55-1.04.41-2.04-.05-3.04.64-.72.3-1.21-.37-1.62,1.12-.23,1.08-.74.34-1.41-.12-.25-.24-.51-.36-.76,1.48-.05.83-.7.37-1.3.35-.1.76-.12.87-.58.3-.85.61-1.69.91-2.54.47-.02.77-.24.83-.73,1.9-1.67,4.15-2.2,6.62-1.98.15,0,.3.02.45.03.25.71.83.37,1.29.41.07,1.03.67,1.4,1.64,1.32-.02.7.32.98,1,.86-.06.82.14,1.5.99,1.83.09.47.3.84.8.97-.05.71.09,1.32.81,1.65-.04.62.25.97.88,1,.07.53.13,1.07.2,1.6.21.72.85.41,1.3.54-.34.45-1.19.84-.17,1.44-.14.76.17,1.26.88,1.54-.33.46-.26.91.03,1.36-.22.93.52,1.45.9,2.12-.23,1.43,1.22,2.24,1.3,3.55.12.46.42.76.85.95-.7.76-.37,1.29.39,1.72ZM114.54,243.26c.17.93,0,1.98.25,3.09,1.19,5.3,3.01,10.4,4.81,15.48,1.5,4.21,3.27,8.38,6.55,11.65,1.63,1.62,3.55,2.57,5.88,2.34,2.07-.21,3.49-.91,4.08-3.39.79-3.3-.21-6.26-.84-9.29-1.3-6.23-4.13-11.94-6.37-17.85-.82-2.17-1.98-4.2-3.4-6.07-2.16-2.84-4.42-3.46-7.32-2.61-2.37.69-3.66,3.18-3.63,6.66Z"/>
  <path class="st13" d="M121.93,234.66c-2.47-.21-4.72.31-6.62,1.98-3.15-3.14-6.31-6.27-9.47-9.41-.02-.25-.03-.5-.05-.76.42-.02.85-.04,1.27-.06,0,0,0,0,0,0,2.7,2.47,5.39,4.95,8.05,7.39-1.53-3.18-3.62-6.21-5.83-9.17,0-.28,0-.56,0-.84,2.08-.36,1.88,1.92,3.04,2.63.13.15.25.3.38.45,1.22,2.55,2.92,4.78,4.8,7.5.06-2-.55-3.25-1.18-4.5-.04-.27-.08-.54-.13-.82-.8-2.02-1.01-4.24-2.1-6.16-.01-.57-.17-1.15.26-1.86,1.91,1.14,1.43,3.42,2.42,4.93.09,1.21.03,2.5,1.52,3.16.42-1.62-.58-3-.36-4.47,0-.44.01-.87.02-1.31.44-.37-.78-2.04,1.04-1.33-.12.27,0,.41.26.47.21,3.01.48,6,1.62,8.99.37-2.85.74-5.7,1.11-8.55,1.16-.3,1.41.34,1.36,1.3-.92,3.42-1.17,6.94-1.42,10.45Z"/>
  <path class="st13" d="M114.48,237.37c-.3.85-.61,1.69-.91,2.54-1.78-.75-3.27-2.07-5.16-2.61-1.39-1.33-3.27-1.85-4.8-2.97-.63-.46-1.5-.73-.9-1.78,2.66.6,4.46,3.07,7.71,3.56-2-2.11-4-3.49-5.95-4.93-.02-.14-.06-.28-.12-.41.98-1.54,1.72-.19,2.35.3,2.64,2.05,5.2,4.19,7.78,6.31Z"/>
  <path class="st13" d="M112.72,245.58c.47,1.01,1.61,2,.05,3.04-3.09.34-6.23.4-9.2,1.48-.6-.24-1.41.25-1.86-.53.05-.76.62-.69,1.16-.92,1.56-.66,3.47.19,5.03-1.25-1.52,0-2.83-.05-4.13.02-1.05.05-1.27-.43-1.07-1.32.29-.03.58-.06.87-.09,2.5.23,4.98.11,7.44-.44.57,0,1.14,0,1.71,0Z"/>
  <path class="st4" d="M132.94,251.31c3.71-1.13,7.35-2.43,10.94-3.9.61-.11.95.19,1.17.83-3.12,1.88-6.93,2.23-10.01,4.14.28.95.95.55,1.35.77-.13.39-.26.79-.4,1.18-.58.17-1.17.35-1.75.52-.08-1.31-1.53-2.12-1.3-3.55Z"/>
  <path class="st13" d="M105.34,263.62c3.47-1.03,6.65-2.79,9.99-4.15.58-.24,1.05-.77,1.76-.64.05.27.1.55.15.82-.21,1.02-1.43.6-1.87,1.3h0c-.15,0-.29.05-.42.12-.46.24-.92.49-1.38.73h0c-.41.2-.82.4-1.23.6-.36-.06-.76-.22-.92.32,0,0,.01-.01.01-.01-1.01.22-1.89.71-2.73,1.3-1.12.62-2.25,1.24-3.37,1.86-.6.06-1.27-.34-1.78.29-.15-.12-.3-.23-.45-.35-.05-1.54,1.77-1.17,2.24-2.17h0Z"/>
  <path class="st13" d="M128.67,276.84c-1.1,2.72-2.2,5.45-3.3,8.17-.82,1.65-.75,3.82-2.78,4.77-1.24-.83-.56-1.9-.11-2.64,1.82-2.98,3.02-6.23,4.34-9.42.4-.2.38-.6.47-.95.46.02.92.05,1.38.07Z"/>
  <path class="st13" d="M122.41,271.38c.48.14.51.54.52.94-.75,1.02-1.81,1.82-2.31,3.03-1.88,1.87-3.36,4.07-5.02,6.11-.67.83-1.2,2.24-2.9,1.6.96-2.71,3.62-3.99,4.87-6.34.23-.06.39-.17.32-.45.08-.12.13-.24.14-.38.74-.38,1.12-1.11,1.67-1.67.91-.94,1.33-2.35,2.71-2.84Z"/>
  <path class="st13" d="M124.27,274.12c.63-.08.95.26,1.14.81-.28.45-.56.9-.84,1.35-2.35,3.19-4.7,6.38-7.06,9.56-.36.49-.72,1.37-1.45.77-.75-.62.2-1.04.46-1.57.54-1.09,1.75-1.74,1.95-3.03.64-.21.85-.71.89-1.32h0c2.03-1.9,3.33-4.34,4.91-6.58Z"/>
  <path class="st13" d="M121.11,269.21c.49.27.81.63.69,1.24-1.85,1.36-3.7,2.72-5.55,4.09-.14.14-.27.29-.41.43-.75.57-1.75.83-2.22,1.75-1.37.42-2.1,1.95-3.86,2.17.1-2.66,2.72-2.88,3.92-4.32,2.74-1.43,4.93-3.61,7.44-5.36Z"/>
  <path class="st13" d="M118.38,263.09c-3.22,1.29-6.13,3.17-9.2,4.74-1.06.54-2.09,1.29-3.4,1.01,0,0,0,0,0,0,0-.28,0-.57.01-.85.14-.02.28-.07.4-.15,1.3-.47,2.41-1.28,3.54-2.04.14-.02.28-.05.42-.1.3.1.38-.12.46-.33.56.11.87-.33,1.28-.56.27.06.46-.03.56-.29.13.04.23,0,.3-.12.27.05.43-.06.51-.32,0,0,0,.01,0,.01,1.11-.44,2.33-.7,3.06-1.78.14-.01.27-.04.4-.08.54.2.83-.31,1.25-.44.57.3.61.77.42,1.31Z"/>
  <path class="st13" d="M126.31,237.27c-.68.11-1.02-.17-1-.86.39-.62,1.18-.94,1.34-1.74.07-.12.12-.24.14-.38,1.56-1.24,3.08-2.52,3.97-4.37,0,0-.01.01-.01.01.56-.03.83-.36.88-.89,1.05-.42,1.47-1.99,3.21-1.72-1.95,3.18-4.9,5.24-6.8,8.16-.58.6-1.16,1.19-1.73,1.79Z"/>
  <path class="st13" d="M128.04,288.76c.6-3.84,1.2-7.68,1.8-11.52.44-.12.82-.1.96.44-.46,3.76-.92,7.52-1.39,11.28-.13,1.04-.56,1.31-1.36.47,0-.17,0-.33-.01-.5v-.17Z"/>
  <path class="st13" d="M119.81,266.95c.58.11.88.42.74,1.04-2.83,1.79-5.72,3.52-8.34,5.63-.14-.02-.24.04-.3.17-.15.1-.31.21-.46.31-.52.23-1.04.46-1.55.68-.66-1.14.08-1.59.85-2.04,3.02-1.93,6.04-3.86,9.06-5.8Z"/>
  <path class="st13" d="M137.73,272.74c2.17.94,3.7,2.77,5.59,4.09.3.21.56.39.92.42.61,1.12,2.15,1.33,3.06,3.16-3.23-.65-5.05-2.49-7.01-4.09-.69-.92-1.61-1.56-2.52-2.22-.19-.45-.79-.89-.04-1.36Z"/>
  <path class="st13" d="M105.7,261.83c-.63,0-1.31.08-1.32-.87.17-.16.34-.32.5-.48.74.06,1.34-.2,1.77-.81.29-.04.57-.08.86-.12.28.07.38-.11.45-.33.15,0,.29-.04.42-.1.3.09.39-.1.46-.33,0,0,0,0,0,0,2.59-.48,4.83-1.92,7.32-2.66.07.32.14.63.21.95-2.28,1.74-5.16,2.14-7.65,3.43-.69.36-1.41.65-2.11.97-.36-.04-.76-.16-.91.35Z"/>
  <path class="st13" d="M123.67,235.09c-.46-.03-1.04.3-1.29-.41,1.04-2.32,2.09-4.63,3.13-6.95,0,0,0,0,0,0,.84-1.21,1.27-2.59,1.74-3.96h-.01c.17-.13.33-.28.5-.42.23,0,.46,0,.69,0,.49,1.02-.16,1.8-.56,2.62-.89,1.85-1.99,3.6-2.45,5.63,0,0,.01-.02.01-.02-.1.16-.2.33-.31.49-.11.11-.15.23-.12.38-.75.72-.94,1.73-1.34,2.62Z"/>
  <path class="st13" d="M115.49,254.03c-2.27,1.55-5.07,1.48-7.52,2.48-1.1.45-2.32.59-3.48.89-1.07.28-1.5-.12-1.34-1.2.14-.04.28-.08.42-.12,3.62-.45,7.01-1.83,10.56-2.61.49.1,1.17-.27,1.36.55Z"/>
  <path class="st13" d="M135.48,257.53c-.75-.44-1.08-.96-.39-1.72,3.92-.19,7.85-.37,11.77-.56.02.2.05.41.07.61-3.65,1.49-7.71.74-11.46,1.67Z"/>
  <path class="st13" d="M142.11,241.78c-3.66,1.5-7.32,3.01-10.98,4.51-1.02-.61-.18-.99.17-1.44.59-.23,1.21-.41,1.62-.95,0,0,0,0,0,0,.84,0,1.63-.17,2.18-.89.15-.03.29-.06.44-.09.31.1.39-.11.46-.34.29-.04.57-.09.86-.13.16-.09.32-.18.47-.27,0,0,0,0,0,0,1.02-.44,2.04-.88,3.06-1.32,0,0,0,0,0,0,.38,0,.72-.06.88-.47.14,0,.28-.03.41-.09.15,0,.29,0,.44,0,.12.07.25.1.38.09.05.29.11.58.16.87-.18.16-.36.33-.54.49Z"/>
  <path class="st13" d="M151.27,267.04c-3.53.43-7.01-.38-10.53-.44-.93-1.01-2.81.57-3.44-1.26,4.38-.23,8.73.84,13.12.38.28.17.55.34.83.52.04.14.09.28.13.43-.09.11-.12.24-.11.38Z"/>
  <path class="st13" d="M136.85,233.4c-2.91,2.22-5.83,4.44-8.74,6.66-.5-.13-.71-.5-.8-.97.91-.76,1.83-1.51,2.74-2.27.07-.04.12-.1.14-.18.34-.5,1.14-.43,1.35-1.09.13-.49.92-.21.96-.82,1.35-.29,2.09-1.48,3.17-2.18.79-.51,1.26-.64,1.59.38-.13.16-.26.31-.39.47Z"/>
  <path class="st13" d="M132.41,277.96c.32-1.32,1.05-.88,1.78-.42-.84,2.6-.43,5.25-.18,7.85.08.85.15,1.71.2,2.56.03.49.13,1.08-.69,1.04-.82-.03-.58-.64-.64-1.11-.44-3.3-.47-6.61-.48-9.93Z"/>
  <path class="st13" d="M134.56,277.58c.12-.82.22-1.67,1.36-.83.65,1.87,1.6,3.59,2.66,5.26,0,0,0,0,0,0,.61,1.45,1.22,2.91,1.83,4.36-.1.07-.14.16-.11.28-1.06.25-1.28-.59-1.71-1.24-.47-.7-.53-1.63-1.26-2.16-.6-2.04-1.8-3.79-2.75-5.67Z"/>
  <path class="st13" d="M109.32,270.62c3.2-2,6.4-3.99,9.6-5.99.56.17.68.64.77,1.14-3.19,1.93-6.38,3.87-9.57,5.8-1.11.39-.85-.36-.8-.95Z"/>
  <path class="st13" d="M138.53,267.02c3.15,1.04,6.31,2.05,9.44,3.15.62.22,1.73.06,1.56,1.3-.29.03-.58.06-.87.09-2.54-.31-4.82-1.47-7.2-2.27-1.06-.36-2.27-.16-3.19-.94-.29-.52-1.41-1.19.25-1.34Z"/>
  <path class="st13" d="M101.72,242.6c.03-.76.42-1,1.15-.84,3.24.71,6.51.96,9.82.79.74.67.79,1.18-.34,1.41-1.45-.02-2.91-.05-4.36-.07-.47-.75-1.16-.38-1.78-.34-.87-.03-1.74-.06-2.6-.09-.3-.66-.85-.42-1.34-.37-.18-.16-.36-.33-.54-.49Z"/>
  <path class="st13" d="M128.92,241.72c3.25-1.86,6.4-3.91,10.07-5.54q-.5,1.58-3.03,2.99c-.48-.03-.67.35-.92.65-1.36.71-2.89,1.11-3.97,2.3-.15-.02-.27.03-.35.16-.16.1-.31.2-.47.3-.15.05-.3.09-.45.14-.63-.03-.92-.37-.88-1Z"/>
  <path class="st13" d="M136.39,260.59c-.57-.29-.49-.83-.52-1.33,3.82.11,7.59-.8,11.42-.44-.38,1.35-1.62,1.07-2.57,1.36-.58,0-1.16-.01-1.74-.02-.9.02-1.87-.43-2.67.37-.57.03-1.15.06-1.72.08-.73,0-1.47-.01-2.2-.02Z"/>
  <path class="st13" d="M103.56,251.26c2.58-.36,5.15-.74,7.74-1.07.92-.12,1.86-.15,2.79-.22,1.18,1.48-.89.66-.91,1.29-2.47.35-4.95.7-7.42,1.05-.65.44-1.39.32-2.11.31-.17-.14-.33-.28-.5-.42h0c-.03-.14-.07-.28-.1-.43.17-.17.34-.34.51-.51Z"/>
  <path class="st13" d="M112.33,241.79c-2.05-.73-4.09-1.46-6.14-2.18-1.27-.39-2.44-.98-3.91-1.97,2.25-.81,3.59.93,5.23.94,1.63.89,3.42,1.38,5.18,1.92.46.6,1.11,1.25-.37,1.3Z"/>
  <path class="st13" d="M136.29,275.82c.07-.57.35-.96.92-1.12.75.94,1.5,1.89,2.26,2.83,1.32,2.01,3.32,3.6,4.15,6.43-1.38-.52-1.93-1.27-2.51-1.97.07-.27-.06-.4-.32-.45,0,0,0,0,0,0l-.41-.49s.02.03.02.03c-.16-.14-.32-.28-.48-.42,0,0,0,0,0,0-.83-1.9-2.4-3.24-3.63-4.84Z"/>
  <path class="st13" d="M135.99,254.34c.13-.39.26-.79.4-1.18,2.72-.7,5.42-1.56,8.33-1.05-2.69,1.61-5.76,1.71-8.73,2.23Z"/>
  <path class="st12" d="M114.54,243.26c-.03-3.48,1.26-5.96,3.63-6.66,2.9-.85,5.16-.23,7.32,2.61,1.42,1.87,2.58,3.9,3.4,6.07,2.24,5.91,5.07,11.62,6.37,17.85.63,3.03,1.63,5.99.84,9.29-.59,2.48-2.01,3.19-4.08,3.39-2.33.23-4.25-.72-5.88-2.34-3.28-3.26-5.05-7.43-6.55-11.65-1.81-5.09-3.62-10.19-4.81-15.48-.25-1.1-.08-2.16-.25-3.09ZM116.25,245.07c.15,2.64,1.43,6.47,3.01,10.23,2.24,5.35,3.87,10.96,6.97,15.93,1.25,2,2.97,3.33,5.49,3.33,1.9,0,2.94-1.17,3.53-2.7.66-1.73.49-3.61.11-5.37-.82-3.81-2.21-7.45-3.65-11.07-1.93-4.85-3.45-9.88-6.16-14.37-.92-1.52-1.96-3.12-4.04-3.29-3.68-.3-5.29,1.49-5.25,7.33Z"/>
  <path class="st13" d="M137.78,269.69c4.28,1.25,8.2,3.25,12.01,5.53-4.24-.43-7.74-2.8-11.59-4.25-.28-.38-.64-.74-.42-1.28Z"/>
  <path class="st13" d="M132,247.84c3.48-1.12,6.63-3.3,10.39-3.55.09.23.18.46.26.68-3.54,1.41-7.08,2.81-10.62,4.22-.3-.45-.36-.9-.03-1.36Z"/>
  <path class="st9" d="M116.25,245.07c-.04-5.83,1.56-7.63,5.25-7.33,2.09.17,3.12,1.76,4.04,3.29,2.71,4.5,4.23,9.53,6.16,14.37,1.44,3.62,2.83,7.26,3.65,11.07.38,1.76.56,3.64-.11,5.37-.59,1.54-1.63,2.7-3.53,2.7-2.53,0-4.25-1.33-5.49-3.33-3.1-4.97-4.73-10.58-6.97-15.93-1.58-3.76-2.86-7.59-3.01-10.23ZM122.79,259.58c1.05,4.26,2.71,8.26,5.37,11.77.96,1.26,2.11,2.27,4.1,1.54,2.04-.75,2.09-2.3,1.91-3.84-.56-4.85-2.16-9.41-4.38-13.74.08-1.12-.45-2.08-.78-3.1-.2-.91-.72-1.68-1.02-2.56-1.08-3.15-2.28-6.28-4.34-8.99-1.2-1.58-2.88-1.36-4.37-1.04-1.43.31-1.68,1.68-1.77,3.09-.25,3.81,1.21,7.23,2.45,10.65.61,1.69.92,3.65,2.43,4.95-.44.6-.01.93.39,1.27Z"/>
  <path class="st3" d="M122.4,258.31c-1.51-1.3-1.82-3.27-2.43-4.95-1.24-3.42-2.7-6.84-2.45-10.65.09-1.41.35-2.79,1.77-3.09,1.49-.32,3.17-.53,4.37,1.04,2.05,2.71,3.25,5.83,4.34,8.99.3.88.82,1.66,1.02,2.56-.46,1.57-1.84.23-2.75.89-1.87,1.37-3.16,3.04-3.87,5.21ZM125.47,248.91c-.05-1.05-.45-1.98-1.6-1.94-1.2.04-2,.8-1.9,2.14.09,1.22.9,1.83,2.01,1.81,1.22-.02,1.46-.98,1.49-2Z"/>
  <path class="st3" d="M129.79,255.31c2.22,4.34,3.82,8.89,4.38,13.74.18,1.54.13,3.09-1.91,3.84-1.99.73-3.14-.28-4.1-1.54-2.66-3.5-4.32-7.51-5.37-11.77,2.13.4,3.58-.73,4.85-2.2.66-.76,1.22-1.61,2.15-2.07ZM127.69,265.36c.93-.01,1.73-.1,1.75-1.38.02-1.52-1.21-1.58-2.07-1.61-.75-.03-1.87.41-1.86,1.43.01,1.27,1.04,1.6,2.18,1.56ZM132.83,268.83c-.2-.52-.4-1.14-1.22-1.17-.79-.03-1.24.42-1.27,1.16-.02.72.37,1.24,1.17,1.28.79.04,1.17-.41,1.32-1.27Z"/>
  <path class="st4" d="M129.79,255.31c-.94.47-1.5,1.31-2.15,2.07-1.26,1.47-2.72,2.6-4.85,2.2-.4-.34-.83-.67-.39-1.27.71-2.17,2-3.84,3.87-5.21.9-.66,2.28.68,2.75-.89.33,1.02.85,1.98.78,3.1Z"/>
  <path class="st4" d="M125.47,248.91c-.03,1.02-.27,1.98-1.49,2-1.12.02-1.93-.59-2.01-1.81-.1-1.34.7-2.09,1.9-2.14,1.14-.04,1.54.89,1.6,1.94Z"/>
  <path class="st9" d="M127.69,265.36c-1.14.04-2.16-.29-2.18-1.56-.01-1.02,1.1-1.46,1.86-1.43.86.03,2.09.1,2.07,1.61-.02,1.28-.82,1.36-1.75,1.38Z"/>
  <path class="st12" d="M132.83,268.83c-.15.86-.53,1.32-1.32,1.27-.79-.04-1.19-.56-1.17-1.28.02-.74.47-1.18,1.27-1.16.82.03,1.02.65,1.22,1.17Z"/>
  <path class="st8" d="M64.96,227.01c1.35-3.77,4.17-6.75,7.63-9.15,4.13-2.86,7.8-1.69,9.56,2.97,3.14,8.33.06,20.73-6.61,26.59-4.72,4.14-10.04,2.77-12.05-3.14-1.98-5.83-1.46-11.51,1.47-17.26Z"/>
  <path class="st8" d="M198.01,490.22c-3.67.32-4.48-2.44-4.3-4.92.5-6.88,3.64-12.65,9.54-16.29,5.81-3.58,9.07-1.71,9.65,4.9.66,7.44-7.51,16.39-14.89,16.32Z"/>
  <path class="st8" d="M501.77,194.45c3.99-.37,7.88.91,11.52,3.03,4.34,2.52,4.84,6.34,1.36,9.91-6.21,6.38-18.75,8.85-26.88,5.29-5.75-2.52-6.77-7.92-2.26-12.24,4.44-4.26,9.8-6.2,16.26-5.99Z"/>
  <path class="st6" d="M294.55,154.79c-1.53,4.5-6.06,5.28-9.12,1.64-1.14-1.36-1.79-3.5-4.01-3.32-1.58.13-3.21.18-4.82.34-2.05.2-4.06.6-5.88,1.65-2.08,1.2-1.66,3.91-2.02,6.03-1.33,7.74-1.03,8.11,6.4,10.95,3.73,1.43,7.11,3.42,11.45,1.22,2.44-1.23,4.31.89,5.1,3.39,1.06,3.35-.87,9.51-3.64,11.74-2.96,2.37-7.35,1.03-7.88-2.84-.54-3.81-2.65-5.16-5.96-5.72-1.08-.18-2.13-.54-3.18-.87-7.27-2.29-11.6-.34-14.62,6.61-.15.33-.29.68-.34,1.03-.25,1.86,2.17,5.5,4.91,8.26,2.08,2.11,4.33,3.7,5.75,3.62,2.32-.14,4.55-.07,5.77,2.19,1.28,2.38.65,4.69-.84,6.87-1.28,1.87-2.96,3.19-4.94,4.23-2.19,1.15-4.44,1.61-6.62.27-2.16-1.34-2.39-3.56-1.92-5.85.43-2.11-.19-3.84-1.56-5.4-1.26-1.42-2.48-2.89-3.74-4.32-.76-.86-1.53-1.69-2.33-2.51-3.71-3.76-7.55-.91-11.27.1-2.94.81-2.63,3.45-2.67,5.76-.04,1.95,0,3.9.1,5.85.01.34.04.68.09,1.02.29,2.32,1.18,4.3,3.21,5.99,3.29,2.75,2.77,6.13-.91,8.31-3.31,1.96-7.44,1.7-10.28-.64-2.71-2.24-3.14-4.64-.81-7.21,1.76-1.96,2.35-4,2.11-6.39-.03-.33-.08-.67-.15-1.02-.43-2.27-.63-4.58-.91-6.89-.32-2.66-1.66-4.31-4.5-4.29-2.55.01-5.9-2.13-7.42.87-.95,1.9-1.91,3.92-2.32,6.04-.37,1.89-.32,3.84.52,5.84,2.16,5.16,2,6.94-1,8.42-3.65,1.79-9.92-.16-11.57-3.65-1.17-2.49-.19-4.56,2.07-5.45,2.84-1.12,3.79-3.16,4.25-5.55.1-.55.18-1.12.26-1.7.16-1.33.29-2.67.45-4,.59-4.75-1.69-8.58-6.16-10.27-.45-.17-.95-.3-1.42-.26-1.61.11-6.21,4.54-7.87,7.26-.4.65-.62,1.2-.61,1.57.13,3.08,1.4,6.63-2.87,7.97-3.16,1-8.41-1.74-10.15-5.15-1.13-2.22-1.8-4.61-.43-6.99,1.42-2.46,3.77-2.41,6.14-1.95.4.08.79.12,1.16.12,1.48,0,2.71-.62,3.77-1.8.9-.99,1.81-1.98,2.66-3.01,3.56-4.31,3.46-7.59-.22-11.73-1.23-1.38-2.76-1.47-4.36-1.25-3.07.42-6.13.9-9.2,1.36-.32.04-.63.1-.95.14-2.37.34-3.84,1.86-5.22,3.66-2.43,3.15-5.11,2.94-7.2-.48-1.68-2.76-1.89-5.81-1.13-8.84.78-3.05,3.7-4.06,5.85-1.79,2.41,2.53,4.84,2.63,7.86,1.95.14-.04.29-.07.43-.1,11.34-2.8,12.47-4.3,11.45-16.03-.15-1.69-1.04-2.63-2.45-3.33-2.63-1.29-5.27-2.54-7.84-3.95-1.02-.56-1.97-.83-2.96-.83-.92,0-1.87.24-2.9.73-4.46,2.08-7.47-.06-7.34-4.99.07-2.94,1.26-5.42,3.45-7.42,3.48-3.18,6.84-2.41,8.51,1.97.4,1.06,1.52,2.22,2.97,3.28,3.18,2.33,7.99,4.21,10.44,3.6,2.16-.53,9.42-10.89,9.15-13.03-.21-1.57-1.39-3.55-2.91-5.25-1.53-1.7-3.41-3.12-4.99-3.54-5.05-1.34-6.34-5.32-3.01-9.36,1.75-2.13,3.89-3.7,6.69-4.16,4.64-.76,7.78,2.57,6.2,6.99-1.59,4.43,1.28,6.93,3.66,9.56,2.27,2.5,4.7.73,7-.38,2.33-1.13,4.82-1.72,7.39-2.02,2.6-.31,3.86-1.77,3.92-4.39.09-4.15.52-8.27-3.18-11.48-.48-.42-.78-.92-.97-1.46-.68-.98-1.07-2.13-1.07-3.34,0-3.73,3.67-6.76,8.19-6.76s8.19,3.02,8.19,6.76c0,.64-.11,1.25-.31,1.83-.08,1.54-.87,2.91-2.41,4.18-1.9,1.57-2.78,10.95-1.43,12.83.62.85,1.57,1.14,2.52,1.37,2.01.49,4.03.99,6.07,1.4,2.05.4,4.44,2.13,6.07-.23.23-.34.47-.67.71-1,1.58-2.22,3.09-4.51,1.07-7.87-2.12-3.53.22-6.94,4.35-7.05,3.85-.1,7.2,1.03,9.43,4.51,2.71,4.22,1.35,7.61-3.67,8.51-1.86.33-3.45.65-4.59,2.2-.17.22-.32.46-.47.74-1.77,3.33-2.19,6.12,1.43,8.46.9.59,1.56,1.53,2.36,2.28,1.06,1,2.16,2.08,3.51,2.08.5,0,1.03-.15,1.61-.51,2.24-1.41,4.72-2.84,4.04-6.24-.45-2.24-.31-4.45,1.47-6.12,1.6-1.49,3.56-1.6,5.46-.65,4.08,2.05,6.09,5.54,6.34,9.99.12,2.15-.62,4.14-2.84,5.09-1.17.51-2.38.33-3.6.07-3.34-.7-5.99.26-7.33,2.31-.92,1.42-1.24,3.35-.75,5.63.58,2.66.47,6.19,3.59,7.11,2.05.6,4.17.83,6.31.75,1.88-.08,3.76-.4,5.61-.92,1.25-.36,1.42-1.92,2.21-2.82,1.45-1.63,2.92-3.54,5.41-3.19,2.7.38,4.22,2.39,5.04,4.8.92,2.73.86,5.56-.07,8.27Z"/>
  <path class="st8" d="M210.92,517.87c-3.67.32-4.48-2.44-4.3-4.92.5-6.88,3.64-12.65,9.54-16.29,5.81-3.58,9.07-1.71,9.65,4.9.66,7.44-7.51,16.39-14.89,16.32Z"/>
  <path class="st8" d="M235.3,497.02c-3.67.32-4.48-2.44-4.3-4.92.5-6.88,3.64-12.65,9.54-16.29,5.81-3.58,9.07-1.71,9.65,4.9.66,7.44-7.51,16.39-14.89,16.32Z"/>
  <path class="st8" d="M250.17,529.37c-5.5.49-6.72-3.66-6.45-7.38.74-10.33,5.47-18.98,14.32-24.44,8.72-5.37,13.6-2.57,14.47,7.35.99,11.16-11.27,24.58-22.34,24.47Z"/>
  <path class="st8" d="M288.57,517.3c-5.5.49-6.72-3.66-6.45-7.38.74-10.33,5.47-18.98,14.32-24.44,8.72-5.37,13.6-2.57,14.47,7.35.99,11.16-11.27,24.58-22.34,24.47Z"/>
  <path class="st8" d="M314.49,547.69c-7.33.65-8.96-4.88-8.6-9.84.99-13.76,7.28-25.3,19.08-32.56,11.61-7.16,18.12-3.42,19.29,9.79,1.31,14.87-15.02,32.76-29.77,32.61Z"/>
  <path class="st8" d="M91.07,376.5c1.59,3.67,1.57,7.77.68,11.9-1.06,4.91-4.54,6.56-9.01,4.36-7.99-3.93-14.21-15.09-13.34-23.93.61-6.24,5.44-8.89,10.94-5.94,5.43,2.91,8.93,7.4,10.73,13.61Z"/>
  <path class="st9" d="M396.3,271.02c-1.4,2.49-3.17,1.88-4.65,2.03-1.82.18-3.54.48-4.24,2.44-.68,1.89.72,2.92,1.89,4.02.72.68,1.71,1.18,1.79,2.6-1.33,1.49-2.82.5-4.19-.04-1.86-.74-3.75-2.3-5.54-.21-2.02,2.37,1.1,3.05,1.76,4.56.11.25.09.55.14.86-.9,1.37-2.02.63-3.09.3-1.72-.52-3.65-2.31-5.15-.3-1.47,1.97.84,3.35,1.68,4.92.41.76,1.03,1.44.39,2.7-2.6.6-5.86-4.75-8.24.35-1.24,2.65,2.4,2.49,2.7,4.61-2.09,1.48-4.9-.67-6.93,1.11-2.67,2.35,1.06,4.49.29,6.76-8.7,1.29-8.43.63-9.18,8.72-5.36-3.88-10.94-4.38-16.83-1.45-2.98-4.4-1.97-11.72-9.61-12.49-.15-3.66,4.1-4.52,4.84-7.76.98-4.34-2.16-5.37-5.01-6.91,10.72-5.8,10.84-6.06,4.65-10.02.92-1.78,2.5-1.05,3.81-.92,1.83.18,3.4-.04,4.84-1.34,3.41-3.08,3.38-4.45-.45-7.28-.46-.34-1.06-.48-1.92-.85,2.3-1.88,3.77-1.06,5.21-.64,1.47.43,3.05,1.7,4.26-.25,1.13-1.81,1.4-3.73.19-5.75-.87-1.45-2.88-2.09-2.97-4.33,2.52-1.56,5.7,2.63,8.41-1.41,2.04-3.03,2.07-5.63,1.27-9.32,3.51,1.4,6.21,3.22,9.77,1.46,3.78-1.87,3.38-5.28,3.95-9.01,4.43,2.24,3.63,7.59,8.38,9.41,5.17,1.97,7.72-.92,11.16-3.2,1.65,2.91-.23,4.51-1.21,6.25-1.95,3.49-.95,5.76,3.03,6.52,2.34.45,4.89.47,5.89,3.7-2.67.71-6.25-2.06-7.29,2.07-1.22,4.82.9,7.74,6.17,8.11Z"/>
  <path class="st8" d="M438.96,155.53c-6.34,10.21-16.78,12.4-27.49,14.32-6.1,1.1-12.1,2.79-18.15,4.22-3.14-.7-6.56-.38-9.28-2.57-2.99-2.95-4.25-6.88-5.97-10.55-.14-6.98,6.41-7.7,10.36-10.61,2.89-2.12,6.62-3.23,10.12-4.34,7.77-2.46,15.59-4.77,23.46-6.85,4.02-1.06,8.14-1.14,11.64,1.86,1.62,4.89,5.01,9.14,5.3,14.52ZM396.4,157.02c-1.29,1.15-2.12,2.42-.63,3.96,1.45,1.49,3.11,1.55,4.68.21,1.52-1.29,2.17-2.98.62-4.55-1.52-1.54-3.21-.89-4.68.38Z"/>
  <path class="st9" d="M378.07,160.94c1.72,3.67,2.98,7.6,5.97,10.55-.3.16-.57.36-.82.58-1.27-1.2-2.54-2.41-4.02-3.82-3.03,1.91-6.22,3.43-5.85,7.58.46,5.23,4.18,8.51,8.02,11.22,1.79,1.26,4.1,2.24,6.23,3.09,3.88,1.55,7.47,1.28,10.5-2.52,3.28-4.11,7.32-5.44,11.53-.88,2.59,4,5.59,4.48,9.4,1.46,3.53-2.8,7.35-3.3,11.61-1.1,2.55,1.32,5.45,2.67,8.42.64.88-.22,1.76-.44,2.64-.66,6.22-1.77,12.33-1.03,18.39.82.6.52,1.2,1.03,1.81,1.55.25.31.51.62.77.92.18,1-.31,1.7-1.02,2.3-5.86-3.26-11.84-5.53-18.49-2.24-5.49,4.81-10.88,1.04-16.08-.53-2.43-.73-3.84-.67-5.86.78-3.96,2.85-7.93,3.92-12.19-.19-2.7-2.6-5.76-3.24-9.21.24-5.53,5.57-13.24,5.2-19.1-.14-1.02-.93-1.95-1.98-2.88-3.02-5.2-5.87-13.7-11.03-3.62-19.81-3.21-2.56-6.84-2.51-9.3-5.11-5.79-6.12-6.89-9.35-4.26-15.63,2.22-5.3,9.97-10.39,15.71-10.01,5.44.36,9.8.31,8.96-7.4-.27-2.53,1.22-5.81,3.93-7.65,1.31,1.44,3.29.86,4.84,1.58-.04.66-.07,1.32-.11,1.98-4.01-.41-4.96,1.67-4.87,5.3.17,7.15-1.46,8.52-8.73,9.64-4.91.75-10.3.27-13.98,5-3.13,4.02-4.03,8.03-.89,12.24,3.98,5.35,7.16,6.06,12.57,3.23Z"/>
  <path class="st9" d="M438.96,155.53c-.29-5.38-3.68-9.63-5.3-14.52,1.11.72,1.7,1.09,2.48-.72,2.19-5.08,6.36-7.83,11.8-8.67,6.9-1.06,9.34-4.06,9.13-11.25-.07-2.33.75-4.89,2.82-5.33,6.93-1.46,10.04-6.93,13.7-11.93,1.43-.29,2.25-2.98,4.47-1.18-1.95,3.06-5.9,4.62-5.61,8.81-.52.62-1.05,1.24-1.57,1.86-.56.52-1.13,1.04-1.69,1.56-.67.47-1.34.93-2.01,1.4-7.3,1.24-7.64,1.82-5.79,9.91-1.63,2.57-3.26,5.15-4.87,7.7-.27.26-.56.53-.86.8-5.31-.4-10.14.92-13.97,4.68-2.3,2.26-3.13,5.3,1,6.21,4.67,1.03,9.8,2.67,13.88-1.86.45.51.91,1.01,1.36,1.52-4.2,5.93-10.54,3.65-16.21,3.85,1.13,5.97,6.4,8.17,10.64,4.66,2.86-2.37,5.11-5.55,8.98-6.53,0,0,.07,0,.07,0,1.94.42,3.88.83,5.81,1.25,2.93,1.1,5.36.32,7.43-1.93,4.13-4.49,9.19-4.16,14.11-2.08,2.84,1.2,5.59,2.38,8.91,2.48-3.55,5-3.85,5.02-8.64,1.1-.51-.9-1.21-1.37-2.27-1.01,0,0-.07,0-.07,0-5.08-1.76-9.33-.77-12.49,3.8-2.78,1.98-5.76,1.77-8.82.82-5.48-3.66-7.92,1.02-10.99,3.99-.9.73-1.81,1.45-2.71,2.18-1.22.33-2.44.66-3.66.98-3.29.11-6.25-.97-9.07-2.53Z"/>
  <path class="st9" d="M455.67,133.97c.29-.27.58-.55.86-.8,2.5.12,4.97-.07,7.21-1.4,2.26.97,4.57,3.11,7,1.09,1.8-1.5,1.57-3.84.48-5.93,1.59-2.58,3.97-3.75,6.94-3.85,5.39-.19,10.4-1.67,14.89-4.59,1.84,1.78,1.08,3.13-.43,4.01-2.71,1.58-5.34,3.24-8.66,3.61-4.31.48-8.5,1.26-9.94,6.62-.71,2.63-3.44,4.41-6.09,3.7-6.82-1.82-8.31,2.15-9.02,7.4-.29.27-.61.49-.96.67-.45-.51-.91-1.01-1.36-1.52-.81-2.96,1.67-6.25-.91-9.03Z"/>
  <path class="st9" d="M393.98,125.53c.04-.66.07-1.32.11-1.98,1.95-.36,4.16,1.82,5.9-.61.56-.54,1.12-1.09,1.68-1.63.21-.52.41-1.04.62-1.56,4.06-3.9,4.91-10.78,11.91-12.14-4.86,4.53-6.66,10.73-9.77,16.18-2.25,3.95-6.26,5.47-10.45,1.72Z"/>
  <path class="st9" d="M396.39,157.01c1.47-1.26,3.17-1.91,4.68-.37,1.55,1.57.89,3.26-.62,4.55-1.57,1.34-3.23,1.28-4.68-.21-1.49-1.53-.67-2.81.62-3.97Z"/>
  <path class="st8" d="M137.38,123.94c-3.32,4.42-7.22,2.55-9.81-.13-7.18-7.45-10.47-16.75-8.61-26.98,1.83-10.07,7.18-11.83,15.14-5.86,8.96,6.72,10.76,24.81,3.28,32.97Z"/>
  <path class="st8" d="M154.06,87.31c-3.32,4.42-7.22,2.55-9.81-.13-7.18-7.45-10.47-16.75-8.61-26.98,1.83-10.07,7.18-11.83,15.14-5.86,8.96,6.72,10.76,24.81,3.28,32.97Z"/>
  <path class="st8" d="M194,88.34c-4.42,5.89-9.62,3.4-13.07-.18-9.57-9.93-13.95-22.32-11.48-35.95,2.44-13.42,9.56-15.77,20.17-7.81,11.94,8.96,14.34,33.06,4.37,43.94Z"/>
  <path class="st9" d="M513.86,390.05c4.83,6.33,3.29,16.48-3.21,21.17-6.41,4.62-15.11,2.98-20.07-3.8-4.87-6.65-3.64-15.53,2.78-20.2,6.31-4.58,15.84-3.27,20.49,2.83Z"/>
</svg>